<svg width="686" height="749" viewBox="0 0 686 749" fill="none" xmlns="http://www.w3.org/2000/svg">
<circle cx="136.678" cy="144.112" r="8.43395" fill="#A3FF4A"/>
<circle cx="136.678" cy="132.434" r="8.43395" fill="#A3FF4A"/>
<circle cx="130.839" cy="138.273" r="5.83889" fill="#A3FF4A"/>
<circle cx="146.409" cy="130.488" r="4.54136" fill="#A3FF4A"/>
<circle cx="148.356" cy="137.624" r="8.43395" fill="#A3FF4A"/>
<path d="M136.678 144.267L146.351 148.208L148.807 139.833L147.585 148.972L166.955 176.661L162.538 179.386L146.481 149.653L136.678 144.267Z" fill="#A52A2A"/>
<path d="M591.131 60.2205C593.4 56.9679 597.877 56.1705 601.129 58.4397V58.4397C604.382 60.7088 605.179 65.1851 602.91 68.4377L596.811 77.1809L585.032 68.9637L591.131 60.2205Z" fill="#978062"/>
<rect width="2.7678" height="124.805" transform="matrix(0.282868 0.959159 -0.643151 0.76574 589.145 65.381)" fill="#978062"/>
<rect width="2.99803" height="20.3002" transform="matrix(-0.652141 0.758098 -0.132205 -0.991222 583.932 95.0961)" fill="#978062"/>
<rect width="2.99803" height="20.3003" transform="matrix(0.486297 -0.873793 0.975907 -0.218186 570.444 89.7487)" fill="#978062"/>
<rect width="2.98979" height="23.9531" transform="matrix(-0.679317 0.733845 -0.282797 -0.95918 570.842 118.552)" fill="#978062"/>
<rect width="2.98979" height="23.9532" transform="matrix(0.454152 -0.890924 0.997833 -0.0657929 553.143 110.267)" fill="#978062"/>
<rect width="2.98028" height="27.67" transform="matrix(-0.703211 0.710981 -0.380306 -0.924861 557.386 141.752)" fill="#978062"/>
<rect width="2.98028" height="27.67" transform="matrix(0.424444 -0.905454 0.999294 0.0375695 535.825 130.773)" fill="#978062"/>
<rect width="2.99561" height="30.9684" transform="matrix(-0.722486 0.691385 -0.441466 -0.897278 545.002 164.013)" fill="#978062"/>
<rect width="2.99561" height="30.9685" transform="matrix(0.399397 -0.916778 0.994526 0.104492 520.2 150.772)" fill="#978062"/>
<rect width="2.7678" height="123.397" transform="matrix(0.997839 -0.0657133 -0.496574 0.867994 595.218 72.9047)" fill="#978062"/>
<path d="M636.686 40.8606L603.701 61.1586L596.821 49.9778C611.513 42.927 618.632 38.4326 629.805 29.6798L636.686 40.8606Z" fill="#FDFFAE" fill-opacity="0.9"/>
<line x1="635.5" y1="38.9335" x2="602.515" y2="59.2315" stroke="#E8E8E8"/>
<line x1="634.051" y1="36.5796" x2="601.067" y2="56.8776" stroke="#E8E8E8"/>
<line x1="632.603" y1="34.226" x2="599.619" y2="54.524" stroke="#E8E8E8"/>
<line x1="631.155" y1="31.8722" x2="598.17" y2="52.1702" stroke="#E8E8E8"/>
<line x1="633.799" y1="42.6383" x2="626.919" y2="31.4575" stroke="#E8E8E8"/>
<line x1="631.83" y1="43.8501" x2="624.949" y2="32.6693" stroke="#E8E8E8"/>
<line x1="629.86" y1="45.0619" x2="622.98" y2="33.8811" stroke="#E8E8E8"/>
<line x1="627.891" y1="46.2738" x2="621.011" y2="35.093" stroke="#E8E8E8"/>
<line x1="625.922" y1="47.4856" x2="619.042" y2="36.3048" stroke="#E8E8E8"/>
<line x1="623.953" y1="48.6974" x2="617.072" y2="37.5166" stroke="#E8E8E8"/>
<line x1="621.983" y1="49.9093" x2="615.103" y2="38.7285" stroke="#E8E8E8"/>
<line x1="620.014" y1="51.1211" x2="613.134" y2="39.9403" stroke="#E8E8E8"/>
<line x1="618.045" y1="52.3328" x2="611.165" y2="41.1521" stroke="#E8E8E8"/>
<line x1="616.076" y1="53.5446" x2="609.195" y2="42.3639" stroke="#E8E8E8"/>
<line x1="614.107" y1="54.7566" x2="607.226" y2="43.5758" stroke="#E8E8E8"/>
<line x1="612.137" y1="55.9683" x2="605.257" y2="44.7876" stroke="#E8E8E8"/>
<line x1="610.168" y1="57.1801" x2="603.288" y2="45.9994" stroke="#E8E8E8"/>
<line x1="608.199" y1="58.3921" x2="601.319" y2="47.2113" stroke="#E8E8E8"/>
<line x1="606.23" y1="59.6038" x2="599.349" y2="48.4231" stroke="#E8E8E8"/>
<path d="M594.777 82.6909C584.503 87.8385 579.938 89.45 561.793 102.989L554.913 91.8082L587.897 71.5102L594.777 82.6909Z" fill="#FDFFAE" fill-opacity="0.9"/>
<line x1="593.591" y1="80.7629" x2="560.607" y2="101.061" stroke="#E8E8E8"/>
<line x1="592.143" y1="78.409" x2="559.158" y2="98.707" stroke="#E8E8E8"/>
<line x1="590.694" y1="76.0553" x2="557.71" y2="96.3533" stroke="#E8E8E8"/>
<line x1="589.246" y1="73.7013" x2="556.261" y2="93.9993" stroke="#E8E8E8"/>
<line x1="591.89" y1="84.4676" x2="585.01" y2="73.2869" stroke="#E8E8E8"/>
<line x1="589.921" y1="85.6795" x2="583.04" y2="74.4988" stroke="#E8E8E8"/>
<line x1="587.952" y1="86.8913" x2="581.071" y2="75.7106" stroke="#E8E8E8"/>
<line x1="585.982" y1="88.1031" x2="579.102" y2="76.9224" stroke="#E8E8E8"/>
<line x1="584.013" y1="89.3149" x2="577.133" y2="78.1342" stroke="#E8E8E8"/>
<line x1="582.044" y1="90.5267" x2="575.164" y2="79.346" stroke="#E8E8E8"/>
<line x1="580.075" y1="91.7386" x2="573.194" y2="80.5579" stroke="#E8E8E8"/>
<line x1="578.106" y1="92.9504" x2="571.225" y2="81.7697" stroke="#E8E8E8"/>
<line x1="576.136" y1="94.1622" x2="569.256" y2="82.9815" stroke="#E8E8E8"/>
<line x1="574.167" y1="95.3741" x2="567.287" y2="84.1934" stroke="#E8E8E8"/>
<line x1="572.198" y1="96.5859" x2="565.318" y2="85.4052" stroke="#E8E8E8"/>
<line x1="570.229" y1="97.7977" x2="563.348" y2="86.617" stroke="#E8E8E8"/>
<line x1="568.259" y1="99.0095" x2="561.379" y2="87.8287" stroke="#E8E8E8"/>
<line x1="566.29" y1="100.221" x2="559.41" y2="89.0405" stroke="#E8E8E8"/>
<line x1="564.321" y1="101.433" x2="557.441" y2="90.2523" stroke="#E8E8E8"/>
<path d="M570.679 25.1454L590.977 58.1299L579.797 65.0103C573.597 51.3397 569.086 44.147 559.499 32.0258L570.679 25.1454Z" fill="#FDFFAE" fill-opacity="0.9"/>
<line x1="568.752" y1="26.3316" x2="589.05" y2="59.3161" stroke="#E8E8E8"/>
<line x1="566.397" y1="27.7804" x2="586.695" y2="60.7649" stroke="#E8E8E8"/>
<line x1="564.044" y1="29.2289" x2="584.342" y2="62.2134" stroke="#E8E8E8"/>
<line x1="561.69" y1="30.6773" x2="581.988" y2="63.6618" stroke="#E8E8E8"/>
<line x1="572.456" y1="28.0326" x2="561.276" y2="34.913" stroke="#E8E8E8"/>
<line x1="573.668" y1="30.0019" x2="562.487" y2="36.8823" stroke="#E8E8E8"/>
<line x1="574.88" y1="31.9711" x2="563.699" y2="38.8515" stroke="#E8E8E8"/>
<line x1="576.092" y1="33.9404" x2="564.911" y2="40.8208" stroke="#E8E8E8"/>
<line x1="577.304" y1="35.9096" x2="566.123" y2="42.79" stroke="#E8E8E8"/>
<line x1="578.515" y1="37.8788" x2="567.335" y2="44.7592" stroke="#E8E8E8"/>
<line x1="579.727" y1="39.8481" x2="568.547" y2="46.7285" stroke="#E8E8E8"/>
<line x1="580.939" y1="41.8172" x2="569.758" y2="48.6976" stroke="#E8E8E8"/>
<line x1="582.151" y1="43.7864" x2="570.97" y2="50.6668" stroke="#E8E8E8"/>
<line x1="583.363" y1="45.7557" x2="572.182" y2="52.6361" stroke="#E8E8E8"/>
<line x1="584.575" y1="47.7249" x2="573.394" y2="54.6053" stroke="#E8E8E8"/>
<line x1="585.786" y1="49.6941" x2="574.606" y2="56.5745" stroke="#E8E8E8"/>
<line x1="586.998" y1="51.6634" x2="575.817" y2="58.5438" stroke="#E8E8E8"/>
<line x1="588.21" y1="53.6326" x2="577.029" y2="60.513" stroke="#E8E8E8"/>
<line x1="589.422" y1="55.6019" x2="578.241" y2="62.4823" stroke="#E8E8E8"/>
<path d="M611.526 67.233C617.453 79.9444 621.574 87.1393 631.824 100.218L620.643 107.098L600.345 74.1134L611.526 67.233Z" fill="#FDFFAE" fill-opacity="0.9"/>
<line x1="609.598" y1="68.4192" x2="629.896" y2="101.404" stroke="#E8E8E8"/>
<line x1="607.243" y1="69.8681" x2="627.541" y2="102.853" stroke="#E8E8E8"/>
<line x1="604.89" y1="71.3164" x2="625.188" y2="104.301" stroke="#E8E8E8"/>
<line x1="602.536" y1="72.7648" x2="622.834" y2="105.749" stroke="#E8E8E8"/>
<line x1="613.302" y1="70.1203" x2="602.122" y2="77.0007" stroke="#E8E8E8"/>
<line x1="614.514" y1="72.0895" x2="603.334" y2="78.9699" stroke="#E8E8E8"/>
<line x1="615.726" y1="74.0588" x2="604.545" y2="80.9392" stroke="#E8E8E8"/>
<line x1="616.938" y1="76.028" x2="605.757" y2="82.9084" stroke="#E8E8E8"/>
<line x1="618.15" y1="77.9971" x2="606.969" y2="84.8775" stroke="#E8E8E8"/>
<line x1="619.362" y1="79.9664" x2="608.181" y2="86.8467" stroke="#E8E8E8"/>
<line x1="620.573" y1="81.9356" x2="609.393" y2="88.816" stroke="#E8E8E8"/>
<line x1="621.785" y1="83.9048" x2="610.604" y2="90.7852" stroke="#E8E8E8"/>
<line x1="622.997" y1="85.8741" x2="611.816" y2="92.7545" stroke="#E8E8E8"/>
<line x1="624.209" y1="87.8432" x2="613.028" y2="94.7236" stroke="#E8E8E8"/>
<line x1="625.421" y1="89.8124" x2="614.24" y2="96.6928" stroke="#E8E8E8"/>
<line x1="626.632" y1="91.7817" x2="615.452" y2="98.6621" stroke="#E8E8E8"/>
<line x1="627.844" y1="93.7509" x2="616.664" y2="100.631" stroke="#E8E8E8"/>
<line x1="629.056" y1="95.7201" x2="617.875" y2="102.601" stroke="#E8E8E8"/>
<line x1="630.268" y1="97.6894" x2="619.087" y2="104.57" stroke="#E8E8E8"/>
<line x1="636.948" y1="41.2873" x2="555.225" y2="91.5778" stroke="#E8E8E8"/>
<line x1="620.544" y1="107.13" x2="570.254" y2="25.4074" stroke="#E8E8E8"/>
<circle cx="595.694" cy="66.5567" r="2.79875" transform="rotate(148.393 595.694 66.5567)" fill="#E8E8E8"/>
<rect x="470.43" y="64.7357" width="9.48016" height="27.0185" transform="rotate(20.6609 470.43 64.7357)" fill="white"/>
<path d="M456.228 94.3352L505.459 112.9L492.414 147.494L443.183 128.93L456.228 94.3352Z" fill="white"/>
<path d="M490.544 77.8932L505.535 113.181L455.986 94.497L490.544 77.8932Z" fill="white"/>
<rect x="493.813" y="77.7905" width="48.3488" height="4.26607" transform="rotate(155.661 493.813 77.7905)" fill="#56422A"/>
<rect x="492.161" y="73.9436" width="48.3488" height="4.26607" transform="rotate(65.6609 492.161 73.9436)" fill="#56422A"/>
<rect x="460.843" y="100.156" width="16.5383" height="15.1163" rx="1.5" transform="rotate(20.6609 460.843 100.156)" fill="#FCFF6F" stroke="#56422A"/>
<rect x="482.774" y="109.918" width="15.1683" height="31.7586" transform="rotate(20.6609 482.774 109.918)" fill="#56422A"/>
<line x1="468.836" y1="103.142" x2="463.651" y2="116.891" stroke="#56422A"/>
<line x1="457.718" y1="107.027" x2="474.128" y2="113.215" stroke="#56422A"/>
<rect x="477.531" y="125.165" width="2.84405" height="0.474008" transform="rotate(20.6609 477.531 125.165)" fill="#FFF59A"/>
<rect x="478.251" y="125.943" width="0.948016" height="1.42202" transform="rotate(20.6609 478.251 125.943)" fill="#FFF59A"/>
<rect x="483" y="107.976" width="16.1163" height="1.89603" transform="rotate(20.6609 483 107.976)" fill="#C4C4C4"/>
<rect x="470.321" y="63.6814" width="10.4282" height="2.84405" transform="rotate(20.6609 470.321 63.6814)" fill="#56422A"/>
<rect x="454.924" y="113.094" width="18.4863" height="2.84405" transform="rotate(20.6609 454.924 113.094)" fill="#C4C4C4"/>
<circle cx="342.943" cy="405.282" r="299" transform="rotate(9.19656 342.943 405.282)" fill="#54AB00"/>
<rect x="268.333" y="122.791" width="1" height="5" transform="rotate(9.19656 268.333 122.791)" fill="#3B3B3B"/>
<rect x="276.231" y="124.069" width="1" height="5" transform="rotate(9.19656 276.231 124.069)" fill="#3B3B3B"/>
<path d="M268.545 115.227C268.324 116.59 267.041 117.516 265.678 117.295C264.315 117.075 263.389 115.791 263.609 114.428C263.83 113.065 265.114 112.139 266.477 112.36C267.84 112.58 268.766 113.864 268.545 115.227Z" fill="white"/>
<path d="M270.839 113.572C270.618 114.935 269.335 115.861 267.972 115.641C266.609 115.42 265.683 114.136 265.903 112.773C266.124 111.41 267.408 110.484 268.771 110.705C270.134 110.926 271.06 112.209 270.839 113.572Z" fill="white"/>
<path d="M271.187 117.681C270.966 119.044 269.682 119.97 268.319 119.749C266.956 119.529 266.03 118.245 266.251 116.882C266.472 115.519 267.756 114.593 269.119 114.813C270.481 115.034 271.407 116.318 271.187 117.681Z" fill="white"/>
<path d="M274.788 114.212C274.567 115.575 273.283 116.501 271.92 116.28C270.557 116.059 269.631 114.776 269.852 113.413C270.072 112.05 271.356 111.124 272.719 111.344C274.082 111.565 275.008 112.849 274.788 114.212Z" fill="white"/>
<path d="M272.334 116.854C272.113 118.217 270.829 119.143 269.466 118.922C268.103 118.701 267.177 117.417 267.398 116.054C267.619 114.691 268.903 113.765 270.265 113.986C271.628 114.207 272.554 115.491 272.334 116.854Z" fill="white"/>
<path d="M277.27 117.653C277.049 119.016 275.765 119.942 274.402 119.721C273.039 119.5 272.113 118.217 272.334 116.854C272.554 115.491 273.838 114.565 275.201 114.785C276.564 115.006 277.49 116.29 277.27 117.653Z" fill="white"/>
<path d="M278.576 115.838C278.356 117.201 277.072 118.127 275.709 117.906C274.346 117.686 273.42 116.402 273.641 115.039C273.861 113.676 275.145 112.75 276.508 112.971C277.871 113.191 278.797 114.475 278.576 115.838Z" fill="white"/>
<path d="M280.071 119.119C279.85 120.482 278.567 121.408 277.204 121.188C275.841 120.967 274.915 119.683 275.135 118.32C275.356 116.957 276.64 116.031 278.003 116.252C279.366 116.473 280.292 117.756 280.071 119.119Z" fill="white"/>
<path d="M276.63 121.601C276.41 122.964 275.126 123.89 273.763 123.67C272.4 123.449 271.474 122.165 271.694 120.802C271.915 119.439 273.199 118.513 274.562 118.734C275.925 118.954 276.851 120.238 276.63 121.601Z" fill="white"/>
<path d="M274.496 122.269C274.275 123.632 272.992 124.558 271.629 124.337C270.266 124.116 269.34 122.833 269.56 121.47C269.781 120.107 271.065 119.181 272.428 119.401C273.791 119.622 274.717 120.906 274.496 122.269Z" fill="white"/>
<path d="M278.285 123.895C278.064 125.258 276.78 126.184 275.417 125.963C274.054 125.743 273.128 124.459 273.349 123.096C273.57 121.733 274.854 120.807 276.217 121.028C277.58 121.248 278.506 122.532 278.285 123.895Z" fill="white"/>
<path d="M280.579 122.241C280.358 123.603 279.074 124.529 277.711 124.309C276.348 124.088 275.422 122.804 275.643 121.441C275.864 120.078 277.148 119.152 278.51 119.373C279.873 119.594 280.799 120.878 280.579 122.241Z" fill="white"/>
<path d="M282.205 118.452C281.985 119.815 280.701 120.741 279.338 120.52C277.975 120.299 277.049 119.016 277.27 117.653C277.49 116.29 278.774 115.364 280.137 115.584C281.5 115.805 282.426 117.089 282.205 118.452Z" fill="white"/>
<path d="M282.365 117.465C282.144 118.828 280.861 119.754 279.498 119.533C278.135 119.312 277.209 118.028 277.429 116.666C277.65 115.303 278.934 114.377 280.297 114.597C281.66 114.818 282.586 116.102 282.365 117.465Z" fill="white"/>
<path d="M283.86 120.746C283.639 122.109 282.355 123.035 280.992 122.814C279.63 122.593 278.703 121.31 278.924 119.947C279.145 118.584 280.429 117.658 281.792 117.878C283.155 118.099 284.081 119.383 283.86 120.746Z" fill="white"/>
<path d="M269.56 121.47C269.34 122.833 268.056 123.759 266.693 123.538C265.33 123.317 264.404 122.033 264.625 120.671C264.845 119.308 266.129 118.382 267.492 118.602C268.855 118.823 269.781 120.107 269.56 121.47Z" fill="white"/>
<path d="M274.816 120.294C274.595 121.657 273.311 122.583 271.948 122.363C270.585 122.142 269.659 120.858 269.88 119.495C270.101 118.132 271.384 117.206 272.747 117.427C274.11 117.648 275.036 118.931 274.816 120.294Z" fill="white"/>
<path d="M271.694 120.802C271.474 122.165 270.19 123.091 268.827 122.87C267.464 122.65 266.538 121.366 266.759 120.003C266.979 118.64 268.263 117.714 269.626 117.935C270.989 118.155 271.915 119.439 271.694 120.802Z" fill="white"/>
<path d="M267.906 119.176C267.685 120.539 266.401 121.465 265.038 121.244C263.675 121.023 262.749 119.74 262.97 118.377C263.191 117.014 264.474 116.088 265.837 116.308C267.2 116.529 268.126 117.813 267.906 119.176Z" fill="white"/>
<path d="M286.062 125.913C285.711 128.081 282.608 127.08 280.93 126.808C279.253 126.537 278.177 124.559 278.528 122.391C278.879 120.223 280.524 118.686 282.201 118.958C283.879 119.229 286.413 123.745 286.062 125.913Z" fill="#3C3C3C"/>
<rect x="266.199" y="123.458" width="1" height="5" transform="rotate(9.19656 266.199 123.458)" fill="#3B3B3B"/>
<rect x="274.097" y="124.737" width="1" height="5" transform="rotate(9.19656 274.097 124.737)" fill="#3B3B3B"/>
<rect width="0.916667" height="5" transform="matrix(-0.987146 -0.159822 -0.159822 0.987146 324.455 140.929)" fill="#3B3B3B"/>
<rect width="0.916667" height="5" transform="matrix(-0.987146 -0.159822 -0.159822 0.987146 317.216 139.757)" fill="#3B3B3B"/>
<path d="M326.559 133.672C326.338 135.035 327.172 136.304 328.421 136.506C329.671 136.708 330.862 135.767 331.083 134.404C331.304 133.041 330.47 131.772 329.22 131.57C327.971 131.368 326.779 132.309 326.559 133.672Z" fill="white"/>
<path d="M325.069 131.404C324.848 132.767 325.682 134.036 326.931 134.239C328.181 134.441 329.372 133.5 329.593 132.137C329.814 130.774 328.98 129.505 327.73 129.303C326.481 129.101 325.289 130.042 325.069 131.404Z" fill="white"/>
<path d="M323.524 135.207C323.304 136.57 324.138 137.838 325.387 138.041C326.636 138.243 327.828 137.302 328.049 135.939C328.269 134.576 327.435 133.307 326.186 133.105C324.937 132.903 323.745 133.844 323.524 135.207Z" fill="white"/>
<path d="M321.449 130.818C321.228 132.181 322.062 133.45 323.312 133.653C324.561 133.855 325.753 132.914 325.973 131.551C326.194 130.188 325.36 128.919 324.111 128.717C322.861 128.515 321.67 129.456 321.449 130.818Z" fill="white"/>
<path d="M322.779 134.073C322.559 135.436 323.393 136.705 324.642 136.907C325.891 137.109 327.083 136.168 327.304 134.805C327.524 133.442 326.69 132.174 325.441 131.971C324.192 131.769 323 132.71 322.779 134.073Z" fill="white"/>
<path d="M318.255 133.34C318.034 134.703 318.868 135.972 320.118 136.175C321.367 136.377 322.559 135.436 322.779 134.073C323 132.71 322.166 131.441 320.917 131.239C319.667 131.037 318.476 131.977 318.255 133.34Z" fill="white"/>
<path d="M317.67 131.22C317.449 132.583 318.283 133.851 319.532 134.054C320.782 134.256 321.973 133.315 322.194 131.952C322.415 130.589 321.581 129.32 320.331 129.118C319.082 128.916 317.89 129.857 317.67 131.22Z" fill="white"/>
<path d="M315.38 133.888C315.16 135.251 315.994 136.52 317.243 136.722C318.492 136.924 319.684 135.984 319.905 134.621C320.125 133.258 319.292 131.989 318.042 131.786C316.793 131.584 315.601 132.525 315.38 133.888Z" fill="white"/>
<path d="M317.616 137.289C317.395 138.652 318.229 139.921 319.478 140.123C320.728 140.325 321.919 139.384 322.14 138.022C322.361 136.659 321.527 135.39 320.277 135.187C319.028 134.985 317.836 135.926 317.616 137.289Z" fill="white"/>
<path d="M319.266 138.569C319.045 139.932 319.879 141.201 321.128 141.403C322.378 141.606 323.569 140.665 323.79 139.302C324.011 137.939 323.177 136.67 321.927 136.468C320.678 136.265 319.486 137.206 319.266 138.569Z" fill="white"/>
<path d="M315.486 138.97C315.265 140.333 316.099 141.602 317.349 141.804C318.598 142.007 319.79 141.066 320.011 139.703C320.231 138.34 319.397 137.071 318.148 136.869C316.899 136.666 315.707 137.607 315.486 138.97Z" fill="white"/>
<path d="M313.996 136.703C313.775 138.066 314.609 139.335 315.859 139.537C317.108 139.739 318.3 138.798 318.52 137.435C318.741 136.073 317.907 134.804 316.658 134.601C315.408 134.399 314.217 135.34 313.996 136.703Z" fill="white"/>
<path d="M313.73 132.608C313.51 133.971 314.344 135.24 315.593 135.442C316.842 135.644 318.034 134.703 318.255 133.34C318.476 131.977 317.642 130.709 316.392 130.506C315.143 130.304 313.951 131.245 313.73 132.608Z" fill="white"/>
<path d="M313.89 131.621C313.67 132.984 314.504 134.253 315.753 134.455C317.002 134.657 318.194 133.716 318.415 132.353C318.635 130.99 317.801 129.721 316.552 129.519C315.303 129.317 314.111 130.258 313.89 131.621Z" fill="white"/>
<path d="M311.601 134.289C311.38 135.652 312.214 136.921 313.464 137.123C314.713 137.326 315.905 136.385 316.125 135.022C316.346 133.659 315.512 132.39 314.263 132.188C313.013 131.985 311.822 132.926 311.601 134.289Z" fill="white"/>
<path d="M323.79 139.302C323.569 140.665 324.403 141.934 325.653 142.136C326.902 142.338 328.094 141.397 328.314 140.034C328.535 138.671 327.701 137.402 326.452 137.2C325.202 136.998 324.011 137.939 323.79 139.302Z" fill="white"/>
<path d="M319.585 136.595C319.364 137.958 320.198 139.227 321.448 139.429C322.697 139.631 323.889 138.69 324.11 137.327C324.33 135.964 323.496 134.696 322.247 134.493C320.998 134.291 319.806 135.232 319.585 136.595Z" fill="white"/>
<path d="M322.14 138.022C321.919 139.384 322.753 140.653 324.003 140.856C325.252 141.058 326.444 140.117 326.664 138.754C326.885 137.391 326.051 136.122 324.802 135.92C323.552 135.718 322.361 136.659 322.14 138.022Z" fill="white"/>
<path d="M325.919 137.62C325.699 138.983 326.533 140.252 327.782 140.455C329.031 140.657 330.223 139.716 330.444 138.353C330.664 136.99 329.83 135.721 328.581 135.519C327.332 135.316 326.14 136.257 325.919 137.62Z" fill="white"/>
<path d="M308.127 138.537C307.776 140.705 310.772 140.692 312.31 140.941C313.848 141.19 315.379 139.634 315.73 137.466C316.081 135.298 315.119 133.339 313.581 133.09C312.043 132.841 308.478 136.369 308.127 138.537Z" fill="#3C3C3C"/>
<rect width="0.916667" height="5" transform="matrix(-0.987146 -0.159822 -0.159822 0.987146 326.105 142.209)" fill="#3B3B3B"/>
<rect width="0.916667" height="5" transform="matrix(-0.987146 -0.159822 -0.159822 0.987146 318.866 141.037)" fill="#3B3B3B"/>
<rect x="272.524" y="150.921" width="1.02403" height="5" transform="rotate(0.525915 272.524 150.921)" fill="#3B3B3B"/>
<rect x="280.98" y="152.099" width="1.02403" height="5" transform="rotate(8.57343 280.98 152.099)" fill="#3B3B3B"/>
<path d="M272.984 143.308C272.779 144.674 271.478 145.61 270.08 145.399C268.682 145.188 267.716 143.91 267.922 142.545C268.128 141.18 269.428 140.244 270.826 140.455C272.224 140.665 273.19 141.943 272.984 143.308Z" fill="white"/>
<path d="M275.308 141.636C275.102 143.001 273.802 143.937 272.404 143.726C271.006 143.516 270.039 142.238 270.245 140.873C270.451 139.508 271.751 138.572 273.149 138.782C274.547 138.993 275.513 140.271 275.308 141.636Z" fill="white"/>
<path d="M275.724 145.744C275.518 147.109 274.218 148.045 272.82 147.834C271.422 147.624 270.455 146.346 270.661 144.981C270.867 143.615 272.167 142.68 273.565 142.89C274.963 143.101 275.93 144.379 275.724 145.744Z" fill="white"/>
<path d="M279.357 142.247C279.152 143.612 277.852 144.548 276.454 144.337C275.056 144.126 274.089 142.849 274.295 141.483C274.501 140.118 275.801 139.182 277.199 139.393C278.597 139.604 279.563 140.881 279.357 142.247Z" fill="white"/>
<path d="M276.885 144.908C276.679 146.273 275.379 147.209 273.981 146.998C272.583 146.788 271.617 145.51 271.823 144.145C272.029 142.779 273.329 141.843 274.727 142.054C276.125 142.265 277.091 143.543 276.885 144.908Z" fill="white"/>
<path d="M281.948 145.671C281.742 147.036 280.442 147.972 279.044 147.761C277.646 147.551 276.679 146.273 276.885 144.908C277.091 143.543 278.391 142.607 279.789 142.817C281.187 143.028 282.154 144.306 281.948 145.671Z" fill="white"/>
<path d="M283.258 143.846C283.053 145.211 281.752 146.147 280.354 145.936C278.957 145.726 277.99 144.448 278.196 143.083C278.402 141.718 279.702 140.782 281.1 140.992C282.498 141.203 283.464 142.481 283.258 143.846Z" fill="white"/>
<path d="M284.836 147.118C284.63 148.483 283.33 149.419 281.932 149.208C280.534 148.997 279.568 147.72 279.774 146.355C279.98 144.989 281.28 144.053 282.678 144.264C284.076 144.475 285.042 145.753 284.836 147.118Z" fill="white"/>
<path d="M281.351 149.626C281.146 150.992 279.845 151.928 278.448 151.717C277.05 151.506 276.083 150.228 276.289 148.863C276.495 147.498 277.795 146.562 279.193 146.773C280.591 146.983 281.557 148.261 281.351 149.626Z" fill="white"/>
<path d="M279.177 150.31C278.972 151.675 277.671 152.611 276.273 152.4C274.875 152.19 273.909 150.912 274.115 149.547C274.321 148.181 275.621 147.245 277.019 147.456C278.417 147.667 279.383 148.945 279.177 150.31Z" fill="white"/>
<path d="M283.078 151.909C282.872 153.275 281.572 154.21 280.174 154C278.776 153.789 277.81 152.511 278.016 151.146C278.222 149.781 279.522 148.845 280.92 149.056C282.318 149.266 283.284 150.544 283.078 151.909Z" fill="white"/>
<path d="M285.401 150.237C285.196 151.602 283.895 152.538 282.498 152.327C281.1 152.117 280.133 150.839 280.339 149.474C280.545 148.108 281.845 147.172 283.243 147.383C284.641 147.594 285.607 148.872 285.401 150.237Z" fill="white"/>
<path d="M287.01 146.434C286.804 147.8 285.504 148.735 284.106 148.525C282.708 148.314 281.742 147.036 281.948 145.671C282.154 144.306 283.454 143.37 284.852 143.581C286.25 143.791 287.216 145.069 287.01 146.434Z" fill="white"/>
<path d="M287.159 145.445C286.953 146.811 285.653 147.747 284.255 147.536C282.857 147.325 281.891 146.047 282.097 144.682C282.303 143.317 283.603 142.381 285.001 142.592C286.399 142.803 287.365 144.08 287.159 145.445Z" fill="white"/>
<path d="M288.737 148.717C288.531 150.082 287.231 151.018 285.833 150.808C284.435 150.597 283.469 149.319 283.675 147.954C283.88 146.589 285.181 145.653 286.579 145.864C287.977 146.074 288.943 147.352 288.737 148.717Z" fill="white"/>
<path d="M274.115 149.547C273.909 150.912 272.609 151.848 271.211 151.637C269.813 151.426 268.847 150.149 269.052 148.783C269.258 147.418 270.558 146.482 271.956 146.693C273.354 146.904 274.321 148.181 274.115 149.547Z" fill="white"/>
<path d="M279.476 148.332C279.27 149.698 277.97 150.633 276.572 150.423C275.174 150.212 274.207 148.934 274.413 147.569C274.619 146.204 275.919 145.268 277.317 145.479C278.715 145.689 279.681 146.967 279.476 148.332Z" fill="white"/>
<path d="M276.289 148.863C276.083 150.228 274.783 151.164 273.385 150.954C271.987 150.743 271.021 149.465 271.226 148.1C271.432 146.735 272.732 145.799 274.13 146.009C275.528 146.22 276.495 147.498 276.289 148.863Z" fill="white"/>
<path d="M272.388 147.264C272.182 148.629 270.882 149.565 269.484 149.354C268.086 149.143 267.12 147.866 267.326 146.5C267.531 145.135 268.832 144.199 270.229 144.41C271.627 144.621 272.594 145.898 272.388 147.264Z" fill="white"/>
<path d="M289.04 157.532C287.834 159.367 285.345 157.144 283.89 156.188C282.436 155.233 282.234 152.97 283.44 151.135C284.646 149.299 286.802 148.586 288.257 149.541C289.711 150.496 290.245 155.696 289.04 157.532Z" fill="#3C3C3C"/>
<rect x="270.358" y="150.434" width="1.02403" height="5" transform="rotate(19.3885 270.358 150.434)" fill="#3B3B3B"/>
<rect x="279.131" y="152.786" width="1.02403" height="5" transform="rotate(15.8775 279.131 152.786)" fill="#3B3B3B"/>
<path d="M509.5 408.5C575 229 421.5 124 400.5 111.5L391.5 110C421.01 134.683 544 224 336.5 408.5C282.508 468.099 475.382 502 509.5 408.5Z" fill="#C4C4C4"/>
<circle cx="134" cy="109" r="13" fill="#A3FF4A"/>
<circle cx="134" cy="91" r="13" fill="#A3FF4A"/>
<circle cx="125" cy="100" r="9" fill="#A3FF4A"/>
<circle cx="149" cy="88" r="7" fill="#A3FF4A"/>
<circle cx="152" cy="99" r="13" fill="#A3FF4A"/>
<path d="M134 109.239L148.911 115.315L152.696 102.404L150.812 116.492L180.669 159.172L173.86 163.372L149.11 117.542L134 109.239Z" fill="#A52A2A"/>
<path d="M138 236.407C123.44 259.218 90.199 279.969 76 270.907C76 270.907 88.7028 245.068 106.362 222.711C132.741 189.315 147.475 179.705 147.5 179.907C161.699 188.969 152.56 213.595 138 236.407Z" fill="#4BB7FF"/>
<path d="M126.389 191.589L131.283 193.221L129.652 194.852L128.02 196.483L126.389 191.589Z" fill="#F2E1E1"/>
<path d="M123.126 199.42L129.978 194.526L133.567 188L135.401 192.305L128.27 199.932L123.126 199.42Z" fill="white"/>
</svg>
