<svg width="70" height="96" viewBox="0 0 70 96" fill="none" xmlns="http://www.w3.org/2000/svg">
<path d="M68.956 31.5C68.956 42.3436 58.456 55 52.753 61.4271C45.456 69.6506 39.956 80 39.956 80C35.309 80.8547 33.2769 81.0513 31.456 80.5C31.456 80.5 23.556 68.0729 18.456 62.5C8.45601 51.5728 1.95598 44.5 1.95599 31.5C1.95599 14 15.956 0 34.956 0C53.956 0 68.956 14.3792 68.956 31.5Z" fill="white"/>
<path d="M25.456 40C23.9559 31.5 22.5001 11.5 35 0C14.5 0 5.38171 13.2199 18.456 46.5C23.956 60.5 27.2898 63.5 32.956 80C32.956 79 26.9561 48.5 25.456 40Z" fill="#FF4949"/>
<path d="M45.4559 36.5C45.4713 15.7926 36 0 36 0C54.5 1.26017e-05 64.1962 17.1935 53.9559 44.5C50.2822 54.2964 44.5874 63.7439 37.4559 81C37.4559 81 45.4406 57.2074 45.4559 36.5Z" fill="#FF4949"/>
<path d="M63.8816 46.6873C68.8237 36.8372 68.2799 22.7155 61.956 12.5C64.3049 15.5555 67.7021 18.2496 68.956 30C69.0729 38.7877 65.9284 42.9253 63.8816 46.6873C63.744 46.9615 63.6021 47.2325 63.456 47.5C63.591 47.23 63.7334 46.9596 63.8816 46.6873Z" fill="#FF4949"/>
<path d="M5.45595 16.5C-0.0447481 25.4893 0.28156 43.9115 9.95598 52.5C1.62667 40.463 3.32873 21.5142 5.45595 16.5Z" fill="#FF4949"/>
<path d="M1.95599 40.1942C1.95599 39.8637 2.29192 39.6391 2.59828 39.7632C22.7519 47.9266 46.2044 48.3974 67.3148 39.7653C67.6197 39.6406 67.956 39.8636 67.956 40.1931C67.956 40.379 67.8439 40.5471 67.6721 40.6183C46.3454 49.46 23.0735 49.4606 2.23766 40.6201C2.0669 40.5477 1.95599 40.3797 1.95599 40.1942Z" fill="#1B1B1B"/>
<path d="M29.956 79.6671C29.956 79.3562 30.2805 79.151 30.5653 79.2755C34.2113 80.8684 36.5467 80.8354 40.3527 79.2575C40.6376 79.1393 40.956 79.3458 40.956 79.6542C40.956 79.8205 40.8581 79.9726 40.7068 80.0417C36.4694 81.976 34.0819 81.9952 30.1891 80.0449C30.0466 79.9735 29.956 79.8265 29.956 79.6671Z" fill="#222222"/>
<path d="M16.956 44.5C25.573 59.1556 28.9585 66.9419 32.4129 80.2969" stroke="#222222"/>
<path d="M54.456 44.5001C45.7694 57.8152 42.0844 65.858 38.4129 80.7031" stroke="#222222"/>
<path d="M2.95601 40.5C6.71703 52.2723 16.956 52 16.956 44.5" stroke="#222222"/>
<path d="M17.456 45C24.6161 58.4384 45.2471 60.8734 53.956 44.5" stroke="#222222"/>
<path d="M53.9559 44.5C54.956 51 60.9559 52.5 66.9559 40.5" stroke="#222222"/>
<path d="M29.1099 88.9412C29.1099 87.6786 30.2656 86.7404 31.5149 86.9238C34.3522 87.3405 36.5791 87.3197 39.4196 86.9058C40.6608 86.7249 41.8022 87.6616 41.8022 88.9159V93.5C41.8022 94.6046 40.9067 95.5 39.8022 95.5H31.1099C30.0053 95.5 29.1099 94.6046 29.1099 93.5V88.9412Z" fill="#222222"/>
<path d="M27.956 86.5C33.8139 87.175 37.0981 87.2331 42.956 86.5V88.5C37.0985 89.3307 33.8135 89.3579 27.956 88.5V86.5Z" fill="#222222"/>
<path d="M32.4032 80.7236L28.456 88" stroke="#222222"/>
<path d="M38.456 80.5L42.456 87.5" stroke="#222222"/>
<path d="M33.456 80.5001L32 87.0001" stroke="#222222"/>
<line x1="37.4368" y1="80.3626" x2="39.4368" y2="87.3626" stroke="#222222"/>
</svg>
