<svg width="293" height="151" viewBox="0 0 293 151" fill="none" xmlns="http://www.w3.org/2000/svg">
<g filter="url(#filter0_d)">
<path d="M1 117C1 103.193 12.1929 92 26 92L260.884 88.5C274.691 88.5 286 103.193 286 117C286 130.807 274.807 142 261 142H26C12.1929 142 1 130.807 1 117Z" fill="white"/>
<path d="M196.425 61.5C196.425 95.4655 169.339 123 135.925 123C102.512 123 75.4255 95.4655 75.4255 61.5C75.4255 27.5345 102.512 0 135.925 0C169.339 0 196.425 27.5345 196.425 61.5Z" fill="white"/>
<path d="M116 88.5C116 111.42 94.9574 130 69 130C43.0426 130 22 111.42 22 88.5C22 65.5802 43.0426 47 69 47C94.9574 47 116 65.5802 116 88.5Z" fill="white"/>
<path d="M260.884 88.5C260.884 117.495 237.155 141 207.884 141C178.613 141 154.884 117.495 154.884 88.5C154.884 59.5051 178.613 36 207.884 36C237.155 36 260.884 59.5051 260.884 88.5Z" fill="white"/>
</g>
<defs>
<filter id="filter0_d" x="0" y="0" width="293" height="151" filterUnits="userSpaceOnUse" color-interpolation-filters="sRGB">
<feFlood flood-opacity="0" result="BackgroundImageFix"/>
<feColorMatrix in="SourceAlpha" type="matrix" values="0 0 0 0 0 0 0 0 0 0 0 0 0 0 0 0 0 0 127 0"/>
<feOffset dx="3" dy="5"/>
<feGaussianBlur stdDeviation="2"/>
<feColorMatrix type="matrix" values="0 0 0 0 0 0 0 0 0 0 0 0 0 0 0 0 0 0 0.25 0"/>
<feBlend mode="normal" in2="BackgroundImageFix" result="effect1_dropShadow"/>
<feBlend mode="normal" in="SourceGraphic" in2="effect1_dropShadow" result="shape"/>
</filter>
</defs>
</svg>
