<svg width="211" height="127" viewBox="0 0 211 127" fill="none" xmlns="http://www.w3.org/2000/svg">
<g filter="url(#filter0_d)">
<path d="M1 87C1 69.8792 14.8792 56 32 56H173C190.121 56 204 69.8792 204 87C204 104.121 190.121 118 173 118H32C14.8792 118 1 104.121 1 87Z" fill="white"/>
<path d="M138 56C138 86.9279 114.047 112 84.5 112C54.9528 112 31 86.9279 31 56C31 25.0721 54.9528 0 84.5 0C114.047 0 138 25.0721 138 56Z" fill="white"/>
<path d="M176 70.5C176 96.7335 158.763 118 137.5 118C116.237 118 99 96.7335 99 70.5C99 44.2665 116.237 23 137.5 23C158.763 23 176 44.2665 176 70.5Z" fill="white"/>
</g>
<defs>
<filter id="filter0_d" x="0" y="0" width="211" height="127" filterUnits="userSpaceOnUse" color-interpolation-filters="sRGB">
<feFlood flood-opacity="0" result="BackgroundImageFix"/>
<feColorMatrix in="SourceAlpha" type="matrix" values="0 0 0 0 0 0 0 0 0 0 0 0 0 0 0 0 0 0 127 0"/>
<feOffset dx="3" dy="5"/>
<feGaussianBlur stdDeviation="2"/>
<feColorMatrix type="matrix" values="0 0 0 0 0 0 0 0 0 0 0 0 0 0 0 0 0 0 0.25 0"/>
<feBlend mode="normal" in2="BackgroundImageFix" result="effect1_dropShadow"/>
<feBlend mode="normal" in="SourceGraphic" in2="effect1_dropShadow" result="shape"/>
</filter>
</defs>
</svg>
