<svg width="713" height="699" viewBox="0 0 713 699" fill="none" xmlns="http://www.w3.org/2000/svg">
<rect x="13.8646" y="267" width="92.6796" height="36.9078" transform="rotate(22.0648 13.8646 267)" fill="#A8A8A8"/>
<rect x="10.897" y="308.829" width="92.6796" height="36.9078" transform="rotate(14.2668 10.897 308.829)" fill="#A8A8A8"/>
<rect x="22.6997" y="354.759" width="92.6796" height="36.9078" transform="rotate(5.7139 22.6997 354.759)" fill="#A8A8A8"/>
<rect x="13.0118" y="291.605" width="9.84208" height="4.10087" transform="rotate(19.4904 13.0118 291.605)" fill="#C4C4C4"/>
<rect x="17.9328" y="276.842" width="9.84208" height="4.10087" transform="rotate(19.4904 17.9328 276.842)" fill="#C4C4C4"/>
<rect x="32.6959" y="298.987" width="9.84208" height="4.10087" transform="rotate(19.4904 32.6959 298.987)" fill="#C4C4C4"/>
<rect x="37.617" y="284.224" width="9.84208" height="4.10087" transform="rotate(19.4904 37.617 284.224)" fill="#C4C4C4"/>
<rect x="54.0204" y="308.009" width="9.84208" height="4.10087" transform="rotate(19.4904 54.0204 308.009)" fill="#C4C4C4"/>
<rect x="58.9415" y="293.246" width="9.84208" height="4.10087" transform="rotate(19.4904 58.9415 293.246)" fill="#C4C4C4"/>
<rect x="15.4723" y="333.434" width="9.84208" height="4.10087" transform="rotate(19.4904 15.4723 333.434)" fill="#C4C4C4"/>
<rect x="20.3934" y="318.671" width="9.84208" height="4.10087" transform="rotate(19.4904 20.3934 318.671)" fill="#C4C4C4"/>
<rect x="42.538" y="339.995" width="9.84208" height="4.10087" transform="rotate(19.4904 42.538 339.995)" fill="#C4C4C4"/>
<rect x="47.459" y="325.232" width="9.84208" height="4.10087" transform="rotate(19.4904 47.459 325.232)" fill="#C4C4C4"/>
<rect x="32.6959" y="377.723" width="9.84208" height="4.10087" transform="rotate(19.4904 32.6959 377.723)" fill="#C4C4C4"/>
<rect x="37.617" y="362.96" width="9.84208" height="4.10087" transform="rotate(19.4904 37.617 362.96)" fill="#C4C4C4"/>
<circle cx="163.678" cy="144.112" r="8.43395" fill="#A3FF4A"/>
<circle cx="163.678" cy="132.434" r="8.43395" fill="#A3FF4A"/>
<circle cx="157.839" cy="138.273" r="5.83889" fill="#A3FF4A"/>
<circle cx="173.409" cy="130.488" r="4.54136" fill="#A3FF4A"/>
<circle cx="175.356" cy="137.624" r="8.43395" fill="#A3FF4A"/>
<path d="M163.678 144.267L173.351 148.208L175.807 139.833L174.585 148.972L193.955 176.661L189.538 179.386L173.481 149.653L163.678 144.267Z" fill="#A52A2A"/>
<path d="M618.131 60.2205C620.4 56.9679 624.877 56.1705 628.129 58.4397C631.382 60.7088 632.179 65.1851 629.91 68.4377L623.811 77.1809L612.032 68.9637L618.131 60.2205Z" fill="#978062"/>
<rect width="2.7678" height="124.805" transform="matrix(0.282868 0.959159 -0.643151 0.76574 616.145 65.381)" fill="#978062"/>
<rect width="2.99803" height="20.3002" transform="matrix(-0.652141 0.758098 -0.132205 -0.991222 610.932 95.0961)" fill="#978062"/>
<rect width="2.99803" height="20.3003" transform="matrix(0.486297 -0.873793 0.975907 -0.218186 597.444 89.7487)" fill="#978062"/>
<rect width="2.98979" height="23.9531" transform="matrix(-0.679317 0.733845 -0.282797 -0.95918 597.842 118.552)" fill="#978062"/>
<rect width="2.98979" height="23.9532" transform="matrix(0.454152 -0.890924 0.997833 -0.0657929 580.143 110.267)" fill="#978062"/>
<rect width="2.98028" height="27.67" transform="matrix(-0.703211 0.710981 -0.380306 -0.924861 584.386 141.752)" fill="#978062"/>
<rect width="2.98028" height="27.67" transform="matrix(0.424444 -0.905454 0.999294 0.0375695 562.825 130.773)" fill="#978062"/>
<rect width="2.99561" height="30.9684" transform="matrix(-0.722486 0.691385 -0.441466 -0.897278 572.002 164.013)" fill="#978062"/>
<rect width="2.99561" height="30.9685" transform="matrix(0.399397 -0.916778 0.994526 0.104492 547.2 150.772)" fill="#978062"/>
<rect width="2.7678" height="123.397" transform="matrix(0.997839 -0.0657133 -0.496574 0.867994 622.218 72.9047)" fill="#978062"/>
<path d="M663.686 40.8606L630.701 61.1586L623.821 49.9778C638.513 42.9271 645.632 38.4326 656.805 29.6799L663.686 40.8606Z" fill="#FDFFAE" fill-opacity="0.9"/>
<line x1="662.5" y1="38.9335" x2="629.515" y2="59.2315" stroke="#E8E8E8"/>
<line x1="661.051" y1="36.5796" x2="628.067" y2="56.8776" stroke="#E8E8E8"/>
<line x1="659.603" y1="34.226" x2="626.619" y2="54.524" stroke="#E8E8E8"/>
<line x1="658.155" y1="31.8722" x2="625.17" y2="52.1702" stroke="#E8E8E8"/>
<line x1="660.799" y1="42.6383" x2="653.919" y2="31.4575" stroke="#E8E8E8"/>
<line x1="658.83" y1="43.8501" x2="651.949" y2="32.6693" stroke="#E8E8E8"/>
<line x1="656.86" y1="45.0619" x2="649.98" y2="33.8811" stroke="#E8E8E8"/>
<line x1="654.891" y1="46.2738" x2="648.011" y2="35.093" stroke="#E8E8E8"/>
<line x1="652.922" y1="47.4856" x2="646.042" y2="36.3048" stroke="#E8E8E8"/>
<line x1="650.953" y1="48.6974" x2="644.072" y2="37.5166" stroke="#E8E8E8"/>
<line x1="648.983" y1="49.9093" x2="642.103" y2="38.7285" stroke="#E8E8E8"/>
<line x1="647.014" y1="51.1211" x2="640.134" y2="39.9403" stroke="#E8E8E8"/>
<line x1="645.045" y1="52.3328" x2="638.165" y2="41.1521" stroke="#E8E8E8"/>
<line x1="643.076" y1="53.5446" x2="636.195" y2="42.3639" stroke="#E8E8E8"/>
<line x1="641.107" y1="54.7566" x2="634.226" y2="43.5758" stroke="#E8E8E8"/>
<line x1="639.137" y1="55.9683" x2="632.257" y2="44.7876" stroke="#E8E8E8"/>
<line x1="637.168" y1="57.1801" x2="630.288" y2="45.9994" stroke="#E8E8E8"/>
<line x1="635.199" y1="58.3921" x2="628.319" y2="47.2113" stroke="#E8E8E8"/>
<line x1="633.23" y1="59.6038" x2="626.349" y2="48.4231" stroke="#E8E8E8"/>
<path d="M621.777 82.6909C611.503 87.8385 606.938 89.45 588.793 102.989L581.913 91.8082L614.897 71.5102L621.777 82.6909Z" fill="#FDFFAE" fill-opacity="0.9"/>
<line x1="620.591" y1="80.7629" x2="587.607" y2="101.061" stroke="#E8E8E8"/>
<line x1="619.143" y1="78.409" x2="586.158" y2="98.707" stroke="#E8E8E8"/>
<line x1="617.694" y1="76.0553" x2="584.71" y2="96.3533" stroke="#E8E8E8"/>
<line x1="616.246" y1="73.7013" x2="583.261" y2="93.9993" stroke="#E8E8E8"/>
<line x1="618.89" y1="84.4676" x2="612.01" y2="73.2869" stroke="#E8E8E8"/>
<line x1="616.921" y1="85.6795" x2="610.04" y2="74.4988" stroke="#E8E8E8"/>
<line x1="614.952" y1="86.8913" x2="608.071" y2="75.7106" stroke="#E8E8E8"/>
<line x1="612.982" y1="88.1031" x2="606.102" y2="76.9224" stroke="#E8E8E8"/>
<line x1="611.013" y1="89.3149" x2="604.133" y2="78.1342" stroke="#E8E8E8"/>
<line x1="609.044" y1="90.5267" x2="602.164" y2="79.346" stroke="#E8E8E8"/>
<line x1="607.075" y1="91.7386" x2="600.194" y2="80.5579" stroke="#E8E8E8"/>
<line x1="605.106" y1="92.9504" x2="598.225" y2="81.7697" stroke="#E8E8E8"/>
<line x1="603.136" y1="94.1622" x2="596.256" y2="82.9815" stroke="#E8E8E8"/>
<line x1="601.167" y1="95.3741" x2="594.287" y2="84.1934" stroke="#E8E8E8"/>
<line x1="599.198" y1="96.5859" x2="592.318" y2="85.4052" stroke="#E8E8E8"/>
<line x1="597.229" y1="97.7977" x2="590.348" y2="86.617" stroke="#E8E8E8"/>
<line x1="595.259" y1="99.0095" x2="588.379" y2="87.8287" stroke="#E8E8E8"/>
<line x1="593.29" y1="100.221" x2="586.41" y2="89.0405" stroke="#E8E8E8"/>
<line x1="591.321" y1="101.433" x2="584.441" y2="90.2523" stroke="#E8E8E8"/>
<path d="M597.679 25.1454L617.977 58.1299L606.797 65.0103C600.597 51.3397 596.086 44.147 586.499 32.0258L597.679 25.1454Z" fill="#FDFFAE" fill-opacity="0.9"/>
<line x1="595.752" y1="26.3316" x2="616.05" y2="59.3161" stroke="#E8E8E8"/>
<line x1="593.397" y1="27.7804" x2="613.695" y2="60.7649" stroke="#E8E8E8"/>
<line x1="591.044" y1="29.2289" x2="611.342" y2="62.2134" stroke="#E8E8E8"/>
<line x1="588.69" y1="30.6773" x2="608.988" y2="63.6618" stroke="#E8E8E8"/>
<line x1="599.456" y1="28.0326" x2="588.276" y2="34.913" stroke="#E8E8E8"/>
<line x1="600.668" y1="30.0019" x2="589.487" y2="36.8823" stroke="#E8E8E8"/>
<line x1="601.88" y1="31.9711" x2="590.699" y2="38.8515" stroke="#E8E8E8"/>
<line x1="603.092" y1="33.9404" x2="591.911" y2="40.8208" stroke="#E8E8E8"/>
<line x1="604.304" y1="35.9096" x2="593.123" y2="42.79" stroke="#E8E8E8"/>
<line x1="605.515" y1="37.8788" x2="594.335" y2="44.7592" stroke="#E8E8E8"/>
<line x1="606.727" y1="39.8481" x2="595.547" y2="46.7285" stroke="#E8E8E8"/>
<line x1="607.939" y1="41.8172" x2="596.758" y2="48.6976" stroke="#E8E8E8"/>
<line x1="609.151" y1="43.7864" x2="597.97" y2="50.6668" stroke="#E8E8E8"/>
<line x1="610.363" y1="45.7557" x2="599.182" y2="52.6361" stroke="#E8E8E8"/>
<line x1="611.575" y1="47.7249" x2="600.394" y2="54.6053" stroke="#E8E8E8"/>
<line x1="612.786" y1="49.6941" x2="601.606" y2="56.5745" stroke="#E8E8E8"/>
<line x1="613.998" y1="51.6634" x2="602.817" y2="58.5438" stroke="#E8E8E8"/>
<line x1="615.21" y1="53.6326" x2="604.029" y2="60.513" stroke="#E8E8E8"/>
<line x1="616.422" y1="55.6019" x2="605.241" y2="62.4823" stroke="#E8E8E8"/>
<path d="M638.526 67.233C644.453 79.9445 648.574 87.1393 658.824 100.218L647.643 107.098L627.345 74.1134L638.526 67.233Z" fill="#FDFFAE" fill-opacity="0.9"/>
<line x1="636.598" y1="68.4192" x2="656.896" y2="101.404" stroke="#E8E8E8"/>
<line x1="634.243" y1="69.8681" x2="654.541" y2="102.853" stroke="#E8E8E8"/>
<line x1="631.89" y1="71.3164" x2="652.188" y2="104.301" stroke="#E8E8E8"/>
<line x1="629.536" y1="72.7648" x2="649.834" y2="105.749" stroke="#E8E8E8"/>
<line x1="640.302" y1="70.1203" x2="629.122" y2="77.0007" stroke="#E8E8E8"/>
<line x1="641.514" y1="72.0895" x2="630.334" y2="78.9699" stroke="#E8E8E8"/>
<line x1="642.726" y1="74.0588" x2="631.545" y2="80.9392" stroke="#E8E8E8"/>
<line x1="643.938" y1="76.028" x2="632.757" y2="82.9084" stroke="#E8E8E8"/>
<line x1="645.15" y1="77.9971" x2="633.969" y2="84.8775" stroke="#E8E8E8"/>
<line x1="646.362" y1="79.9664" x2="635.181" y2="86.8467" stroke="#E8E8E8"/>
<line x1="647.573" y1="81.9356" x2="636.393" y2="88.816" stroke="#E8E8E8"/>
<line x1="648.785" y1="83.9048" x2="637.604" y2="90.7852" stroke="#E8E8E8"/>
<line x1="649.997" y1="85.8741" x2="638.816" y2="92.7545" stroke="#E8E8E8"/>
<line x1="651.209" y1="87.8432" x2="640.028" y2="94.7236" stroke="#E8E8E8"/>
<line x1="652.421" y1="89.8124" x2="641.24" y2="96.6928" stroke="#E8E8E8"/>
<line x1="653.632" y1="91.7817" x2="642.452" y2="98.6621" stroke="#E8E8E8"/>
<line x1="654.844" y1="93.7509" x2="643.664" y2="100.631" stroke="#E8E8E8"/>
<line x1="656.056" y1="95.7201" x2="644.875" y2="102.601" stroke="#E8E8E8"/>
<line x1="657.268" y1="97.6894" x2="646.087" y2="104.57" stroke="#E8E8E8"/>
<line x1="663.948" y1="41.2873" x2="582.225" y2="91.5778" stroke="#E8E8E8"/>
<line x1="647.544" y1="107.13" x2="597.254" y2="25.4074" stroke="#E8E8E8"/>
<circle cx="622.694" cy="66.5567" r="2.79875" transform="rotate(148.393 622.694 66.5567)" fill="#E8E8E8"/>
<rect x="497.43" y="64.7357" width="9.48016" height="27.0185" transform="rotate(20.6609 497.43 64.7357)" fill="white"/>
<path d="M483.228 94.3352L532.459 112.9L519.414 147.494L470.183 128.93L483.228 94.3352Z" fill="white"/>
<path d="M517.544 77.8932L532.535 113.181L482.986 94.497L517.544 77.8932Z" fill="white"/>
<rect x="520.813" y="77.7905" width="48.3488" height="4.26607" transform="rotate(155.661 520.813 77.7905)" fill="#56422A"/>
<rect x="519.161" y="73.9436" width="48.3488" height="4.26607" transform="rotate(65.6609 519.161 73.9436)" fill="#56422A"/>
<rect x="487.843" y="100.156" width="16.5383" height="15.1163" rx="1.5" transform="rotate(20.6609 487.843 100.156)" fill="#FCFF6F" stroke="#56422A"/>
<rect x="509.774" y="109.918" width="15.1683" height="31.7586" transform="rotate(20.6609 509.774 109.918)" fill="#56422A"/>
<line x1="495.836" y1="103.142" x2="490.651" y2="116.891" stroke="#56422A"/>
<line x1="484.718" y1="107.027" x2="501.128" y2="113.215" stroke="#56422A"/>
<rect x="504.531" y="125.165" width="2.84405" height="0.474008" transform="rotate(20.6609 504.531 125.165)" fill="#FFF59A"/>
<rect x="505.251" y="125.943" width="0.948016" height="1.42202" transform="rotate(20.6609 505.251 125.943)" fill="#FFF59A"/>
<rect x="510" y="107.976" width="16.1163" height="1.89603" transform="rotate(20.6609 510 107.976)" fill="#C4C4C4"/>
<rect x="497.321" y="63.6814" width="10.4282" height="2.84405" transform="rotate(20.6609 497.321 63.6814)" fill="#56422A"/>
<rect x="481.924" y="113.094" width="18.4863" height="2.84405" transform="rotate(20.6609 481.924 113.094)" fill="#C4C4C4"/>
<circle cx="369.943" cy="405.282" r="299" transform="rotate(9.19656 369.943 405.282)" fill="#54AB00"/>
<rect x="295.333" y="122.791" width="1" height="5" transform="rotate(9.19656 295.333 122.791)" fill="#3B3B3B"/>
<rect x="303.231" y="124.069" width="1" height="5" transform="rotate(9.19656 303.231 124.069)" fill="#3B3B3B"/>
<path d="M295.545 115.227C295.324 116.59 294.041 117.516 292.678 117.295C291.315 117.075 290.389 115.791 290.609 114.428C290.83 113.065 292.114 112.139 293.477 112.36C294.84 112.58 295.766 113.864 295.545 115.227Z" fill="white"/>
<path d="M297.839 113.572C297.618 114.935 296.335 115.861 294.972 115.641C293.609 115.42 292.683 114.136 292.903 112.773C293.124 111.41 294.408 110.484 295.771 110.705C297.134 110.926 298.06 112.209 297.839 113.572Z" fill="white"/>
<path d="M298.187 117.681C297.966 119.044 296.682 119.97 295.319 119.749C293.956 119.529 293.03 118.245 293.251 116.882C293.472 115.519 294.756 114.593 296.119 114.813C297.481 115.034 298.407 116.318 298.187 117.681Z" fill="white"/>
<path d="M301.788 114.212C301.567 115.575 300.283 116.501 298.92 116.28C297.557 116.059 296.631 114.776 296.852 113.413C297.072 112.05 298.356 111.124 299.719 111.344C301.082 111.565 302.008 112.849 301.788 114.212Z" fill="white"/>
<path d="M299.334 116.854C299.113 118.217 297.829 119.143 296.466 118.922C295.103 118.701 294.177 117.417 294.398 116.054C294.619 114.691 295.903 113.765 297.265 113.986C298.628 114.207 299.554 115.491 299.334 116.854Z" fill="white"/>
<path d="M304.27 117.653C304.049 119.016 302.765 119.942 301.402 119.721C300.039 119.5 299.113 118.217 299.334 116.854C299.554 115.491 300.838 114.565 302.201 114.785C303.564 115.006 304.49 116.29 304.27 117.653Z" fill="white"/>
<path d="M305.576 115.838C305.356 117.201 304.072 118.127 302.709 117.906C301.346 117.686 300.42 116.402 300.641 115.039C300.861 113.676 302.145 112.75 303.508 112.971C304.871 113.191 305.797 114.475 305.576 115.838Z" fill="white"/>
<path d="M307.071 119.119C306.85 120.482 305.567 121.408 304.204 121.188C302.841 120.967 301.915 119.683 302.135 118.32C302.356 116.957 303.64 116.031 305.003 116.252C306.366 116.473 307.292 117.756 307.071 119.119Z" fill="white"/>
<path d="M303.63 121.601C303.41 122.964 302.126 123.89 300.763 123.67C299.4 123.449 298.474 122.165 298.694 120.802C298.915 119.439 300.199 118.513 301.562 118.734C302.925 118.954 303.851 120.238 303.63 121.601Z" fill="white"/>
<path d="M301.496 122.269C301.275 123.632 299.992 124.558 298.629 124.337C297.266 124.116 296.34 122.833 296.56 121.47C296.781 120.107 298.065 119.181 299.428 119.401C300.791 119.622 301.717 120.906 301.496 122.269Z" fill="white"/>
<path d="M305.285 123.895C305.064 125.258 303.78 126.184 302.417 125.963C301.054 125.743 300.128 124.459 300.349 123.096C300.57 121.733 301.854 120.807 303.217 121.028C304.58 121.248 305.506 122.532 305.285 123.895Z" fill="white"/>
<path d="M307.579 122.241C307.358 123.603 306.074 124.529 304.711 124.309C303.348 124.088 302.422 122.804 302.643 121.441C302.864 120.078 304.148 119.152 305.51 119.373C306.873 119.594 307.799 120.878 307.579 122.241Z" fill="white"/>
<path d="M309.205 118.452C308.985 119.815 307.701 120.741 306.338 120.52C304.975 120.299 304.049 119.016 304.27 117.653C304.49 116.29 305.774 115.364 307.137 115.584C308.5 115.805 309.426 117.089 309.205 118.452Z" fill="white"/>
<path d="M309.365 117.465C309.144 118.828 307.861 119.754 306.498 119.533C305.135 119.312 304.209 118.028 304.429 116.666C304.65 115.303 305.934 114.377 307.297 114.597C308.66 114.818 309.586 116.102 309.365 117.465Z" fill="white"/>
<path d="M310.86 120.746C310.639 122.109 309.355 123.035 307.992 122.814C306.63 122.593 305.703 121.31 305.924 119.947C306.145 118.584 307.429 117.658 308.792 117.878C310.155 118.099 311.081 119.383 310.86 120.746Z" fill="white"/>
<path d="M296.56 121.47C296.34 122.833 295.056 123.759 293.693 123.538C292.33 123.317 291.404 122.033 291.625 120.671C291.845 119.308 293.129 118.382 294.492 118.602C295.855 118.823 296.781 120.107 296.56 121.47Z" fill="white"/>
<path d="M301.816 120.294C301.595 121.657 300.311 122.583 298.948 122.363C297.585 122.142 296.659 120.858 296.88 119.495C297.101 118.132 298.384 117.206 299.747 117.427C301.11 117.648 302.036 118.931 301.816 120.294Z" fill="white"/>
<path d="M298.694 120.802C298.474 122.165 297.19 123.091 295.827 122.87C294.464 122.65 293.538 121.366 293.759 120.003C293.979 118.64 295.263 117.714 296.626 117.935C297.989 118.155 298.915 119.439 298.694 120.802Z" fill="white"/>
<path d="M294.906 119.176C294.685 120.539 293.401 121.465 292.038 121.244C290.675 121.023 289.749 119.74 289.97 118.377C290.191 117.014 291.474 116.088 292.837 116.308C294.2 116.529 295.126 117.813 294.906 119.176Z" fill="white"/>
<path d="M313.062 125.913C312.711 128.081 309.608 127.08 307.93 126.808C306.253 126.537 305.177 124.559 305.528 122.391C305.879 120.223 307.524 118.686 309.201 118.958C310.879 119.229 313.413 123.745 313.062 125.913Z" fill="#3C3C3C"/>
<rect x="293.199" y="123.458" width="1" height="5" transform="rotate(9.19656 293.199 123.458)" fill="#3B3B3B"/>
<rect x="301.097" y="124.737" width="1" height="5" transform="rotate(9.19656 301.097 124.737)" fill="#3B3B3B"/>
<rect width="0.916667" height="5" transform="matrix(-0.987146 -0.159822 -0.159822 0.987146 351.455 140.929)" fill="#3B3B3B"/>
<rect width="0.916667" height="5" transform="matrix(-0.987146 -0.159822 -0.159822 0.987146 344.216 139.757)" fill="#3B3B3B"/>
<path d="M353.559 133.672C353.338 135.035 354.172 136.304 355.421 136.506C356.671 136.708 357.862 135.767 358.083 134.404C358.304 133.041 357.47 131.772 356.22 131.57C354.971 131.368 353.779 132.309 353.559 133.672Z" fill="white"/>
<path d="M352.069 131.404C351.848 132.767 352.682 134.036 353.931 134.239C355.181 134.441 356.372 133.5 356.593 132.137C356.814 130.774 355.98 129.505 354.73 129.303C353.481 129.101 352.289 130.042 352.069 131.404Z" fill="white"/>
<path d="M350.524 135.207C350.304 136.57 351.138 137.838 352.387 138.041C353.636 138.243 354.828 137.302 355.049 135.939C355.269 134.576 354.435 133.307 353.186 133.105C351.937 132.903 350.745 133.844 350.524 135.207Z" fill="white"/>
<path d="M348.449 130.818C348.228 132.181 349.062 133.45 350.312 133.653C351.561 133.855 352.753 132.914 352.973 131.551C353.194 130.188 352.36 128.919 351.111 128.717C349.861 128.515 348.67 129.456 348.449 130.818Z" fill="white"/>
<path d="M349.779 134.073C349.559 135.436 350.393 136.705 351.642 136.907C352.891 137.109 354.083 136.168 354.304 134.805C354.524 133.442 353.69 132.174 352.441 131.971C351.192 131.769 350 132.71 349.779 134.073Z" fill="white"/>
<path d="M345.255 133.34C345.034 134.703 345.868 135.972 347.118 136.175C348.367 136.377 349.559 135.436 349.779 134.073C350 132.71 349.166 131.441 347.917 131.239C346.667 131.037 345.476 131.977 345.255 133.34Z" fill="white"/>
<path d="M344.67 131.22C344.449 132.583 345.283 133.851 346.532 134.054C347.782 134.256 348.973 133.315 349.194 131.952C349.415 130.589 348.581 129.32 347.331 129.118C346.082 128.916 344.89 129.857 344.67 131.22Z" fill="white"/>
<path d="M342.38 133.888C342.16 135.251 342.994 136.52 344.243 136.722C345.492 136.924 346.684 135.984 346.905 134.621C347.125 133.258 346.292 131.989 345.042 131.786C343.793 131.584 342.601 132.525 342.38 133.888Z" fill="white"/>
<path d="M344.616 137.289C344.395 138.652 345.229 139.921 346.478 140.123C347.728 140.325 348.919 139.384 349.14 138.022C349.361 136.659 348.527 135.39 347.277 135.187C346.028 134.985 344.836 135.926 344.616 137.289Z" fill="white"/>
<path d="M346.266 138.569C346.045 139.932 346.879 141.201 348.128 141.403C349.378 141.606 350.569 140.665 350.79 139.302C351.011 137.939 350.177 136.67 348.927 136.468C347.678 136.265 346.486 137.206 346.266 138.569Z" fill="white"/>
<path d="M342.486 138.97C342.265 140.333 343.099 141.602 344.349 141.804C345.598 142.007 346.79 141.066 347.011 139.703C347.231 138.34 346.397 137.071 345.148 136.869C343.899 136.666 342.707 137.607 342.486 138.97Z" fill="white"/>
<path d="M340.996 136.703C340.775 138.066 341.609 139.335 342.859 139.537C344.108 139.739 345.3 138.798 345.52 137.435C345.741 136.073 344.907 134.804 343.658 134.601C342.408 134.399 341.217 135.34 340.996 136.703Z" fill="white"/>
<path d="M340.73 132.608C340.51 133.971 341.344 135.24 342.593 135.442C343.842 135.644 345.034 134.703 345.255 133.34C345.476 131.977 344.642 130.709 343.392 130.506C342.143 130.304 340.951 131.245 340.73 132.608Z" fill="white"/>
<path d="M340.89 131.621C340.67 132.984 341.504 134.253 342.753 134.455C344.002 134.657 345.194 133.716 345.415 132.353C345.635 130.99 344.801 129.721 343.552 129.519C342.303 129.317 341.111 130.258 340.89 131.621Z" fill="white"/>
<path d="M338.601 134.289C338.38 135.652 339.214 136.921 340.464 137.123C341.713 137.326 342.905 136.385 343.125 135.022C343.346 133.659 342.512 132.39 341.263 132.188C340.013 131.985 338.822 132.926 338.601 134.289Z" fill="white"/>
<path d="M350.79 139.302C350.569 140.665 351.403 141.934 352.653 142.136C353.902 142.338 355.094 141.397 355.314 140.034C355.535 138.671 354.701 137.402 353.452 137.2C352.202 136.998 351.011 137.939 350.79 139.302Z" fill="white"/>
<path d="M346.585 136.595C346.364 137.958 347.198 139.227 348.448 139.429C349.697 139.631 350.889 138.69 351.11 137.327C351.33 135.964 350.496 134.696 349.247 134.493C347.998 134.291 346.806 135.232 346.585 136.595Z" fill="white"/>
<path d="M349.14 138.022C348.919 139.384 349.753 140.653 351.003 140.856C352.252 141.058 353.444 140.117 353.664 138.754C353.885 137.391 353.051 136.122 351.802 135.92C350.552 135.718 349.361 136.659 349.14 138.022Z" fill="white"/>
<path d="M352.919 137.62C352.699 138.983 353.533 140.252 354.782 140.455C356.031 140.657 357.223 139.716 357.444 138.353C357.664 136.99 356.83 135.721 355.581 135.519C354.332 135.316 353.14 136.257 352.919 137.62Z" fill="white"/>
<path d="M335.127 138.537C334.776 140.705 337.772 140.692 339.31 140.941C340.848 141.19 342.379 139.634 342.73 137.466C343.081 135.298 342.119 133.339 340.581 133.09C339.043 132.841 335.478 136.369 335.127 138.537Z" fill="#3C3C3C"/>
<rect width="0.916667" height="5" transform="matrix(-0.987146 -0.159822 -0.159822 0.987146 353.105 142.209)" fill="#3B3B3B"/>
<rect width="0.916667" height="5" transform="matrix(-0.987146 -0.159822 -0.159822 0.987146 345.866 141.037)" fill="#3B3B3B"/>
<rect x="299.524" y="150.921" width="1.02403" height="5" transform="rotate(0.525915 299.524 150.921)" fill="#3B3B3B"/>
<rect x="307.98" y="152.099" width="1.02403" height="5" transform="rotate(8.57343 307.98 152.099)" fill="#3B3B3B"/>
<path d="M299.984 143.308C299.778 144.674 298.478 145.61 297.08 145.399C295.682 145.188 294.716 143.91 294.922 142.545C295.128 141.18 296.428 140.244 297.826 140.455C299.224 140.665 300.19 141.943 299.984 143.308Z" fill="white"/>
<path d="M302.307 141.636C302.102 143.001 300.801 143.937 299.404 143.726C298.006 143.516 297.039 142.238 297.245 140.873C297.451 139.508 298.751 138.572 300.149 138.782C301.547 138.993 302.513 140.271 302.307 141.636Z" fill="white"/>
<path d="M302.724 145.744C302.518 147.109 301.218 148.045 299.82 147.834C298.422 147.624 297.455 146.346 297.661 144.981C297.867 143.615 299.167 142.68 300.565 142.89C301.963 143.101 302.929 144.379 302.724 145.744Z" fill="white"/>
<path d="M306.357 142.247C306.152 143.612 304.851 144.548 303.453 144.337C302.056 144.126 301.089 142.849 301.295 141.483C301.501 140.118 302.801 139.182 304.199 139.393C305.597 139.604 306.563 140.881 306.357 142.247Z" fill="white"/>
<path d="M303.885 144.908C303.679 146.273 302.379 147.209 300.981 146.998C299.583 146.788 298.617 145.51 298.823 144.145C299.029 142.779 300.329 141.843 301.727 142.054C303.125 142.265 304.091 143.543 303.885 144.908Z" fill="white"/>
<path d="M308.948 145.671C308.742 147.036 307.442 147.972 306.044 147.761C304.646 147.551 303.679 146.273 303.885 144.908C304.091 143.543 305.391 142.607 306.789 142.817C308.187 143.028 309.154 144.306 308.948 145.671Z" fill="white"/>
<path d="M310.258 143.846C310.053 145.211 308.752 146.147 307.354 145.936C305.956 145.726 304.99 144.448 305.196 143.083C305.402 141.718 306.702 140.782 308.1 140.992C309.498 141.203 310.464 142.481 310.258 143.846Z" fill="white"/>
<path d="M311.836 147.118C311.63 148.483 310.33 149.419 308.932 149.208C307.534 148.997 306.568 147.72 306.774 146.355C306.979 144.989 308.28 144.053 309.678 144.264C311.076 144.475 312.042 145.753 311.836 147.118Z" fill="white"/>
<path d="M308.351 149.626C308.146 150.992 306.845 151.928 305.447 151.717C304.049 151.506 303.083 150.228 303.289 148.863C303.495 147.498 304.795 146.562 306.193 146.773C307.591 146.983 308.557 148.261 308.351 149.626Z" fill="white"/>
<path d="M306.177 150.31C305.971 151.675 304.671 152.611 303.273 152.4C301.875 152.19 300.909 150.912 301.115 149.547C301.321 148.181 302.621 147.245 304.019 147.456C305.417 147.667 306.383 148.945 306.177 150.31Z" fill="white"/>
<path d="M310.078 151.909C309.872 153.275 308.572 154.21 307.174 154C305.776 153.789 304.81 152.511 305.016 151.146C305.222 149.781 306.522 148.845 307.92 149.056C309.318 149.266 310.284 150.544 310.078 151.909Z" fill="white"/>
<path d="M312.401 150.237C312.196 151.602 310.895 152.538 309.497 152.327C308.099 152.117 307.133 150.839 307.339 149.474C307.545 148.108 308.845 147.172 310.243 147.383C311.641 147.594 312.607 148.872 312.401 150.237Z" fill="white"/>
<path d="M314.01 146.434C313.804 147.8 312.504 148.735 311.106 148.525C309.708 148.314 308.742 147.036 308.948 145.671C309.154 144.306 310.454 143.37 311.852 143.581C313.25 143.791 314.216 145.069 314.01 146.434Z" fill="white"/>
<path d="M314.159 145.445C313.953 146.811 312.653 147.747 311.255 147.536C309.857 147.325 308.891 146.047 309.097 144.682C309.303 143.317 310.603 142.381 312.001 142.592C313.399 142.803 314.365 144.08 314.159 145.445Z" fill="white"/>
<path d="M315.737 148.717C315.531 150.082 314.231 151.018 312.833 150.808C311.435 150.597 310.469 149.319 310.675 147.954C310.88 146.589 312.181 145.653 313.578 145.864C314.976 146.074 315.943 147.352 315.737 148.717Z" fill="white"/>
<path d="M301.115 149.547C300.909 150.912 299.609 151.848 298.211 151.637C296.813 151.426 295.847 150.149 296.052 148.783C296.258 147.418 297.558 146.482 298.956 146.693C300.354 146.904 301.321 148.181 301.115 149.547Z" fill="white"/>
<path d="M306.475 148.332C306.27 149.698 304.97 150.633 303.572 150.423C302.174 150.212 301.207 148.934 301.413 147.569C301.619 146.204 302.919 145.268 304.317 145.479C305.715 145.689 306.681 146.967 306.475 148.332Z" fill="white"/>
<path d="M303.289 148.863C303.083 150.228 301.783 151.164 300.385 150.954C298.987 150.743 298.021 149.465 298.226 148.1C298.432 146.735 299.732 145.799 301.13 146.009C302.528 146.22 303.495 147.498 303.289 148.863Z" fill="white"/>
<path d="M299.388 147.264C299.182 148.629 297.882 149.565 296.484 149.354C295.086 149.143 294.12 147.866 294.325 146.5C294.531 145.135 295.831 144.199 297.229 144.41C298.627 144.621 299.594 145.898 299.388 147.264Z" fill="white"/>
<path d="M316.039 157.532C314.834 159.367 312.345 157.144 310.89 156.188C309.436 155.233 309.234 152.97 310.44 151.135C311.645 149.299 313.802 148.586 315.256 149.541C316.711 150.496 317.245 155.696 316.039 157.532Z" fill="#3C3C3C"/>
<rect x="297.358" y="150.434" width="1.02403" height="5" transform="rotate(19.3885 297.358 150.434)" fill="#3B3B3B"/>
<rect x="306.131" y="152.786" width="1.02403" height="5" transform="rotate(15.8775 306.131 152.786)" fill="#3B3B3B"/>
<path d="M536.5 408.5C602 229 448.5 124 427.5 111.5L418.5 110C448.01 134.683 571 224 363.5 408.5C309.508 468.099 502.382 502 536.5 408.5Z" fill="#C4C4C4"/>
<circle cx="161" cy="109" r="13" fill="#A3FF4A"/>
<circle cx="161" cy="91" r="13" fill="#A3FF4A"/>
<circle cx="152" cy="100" r="9" fill="#A3FF4A"/>
<circle cx="176" cy="88" r="7" fill="#A3FF4A"/>
<circle cx="179" cy="99" r="13" fill="#A3FF4A"/>
<path d="M161 109.239L175.911 115.315L179.696 102.404L177.812 116.492L207.669 159.172L200.86 163.372L176.11 117.542L161 109.239Z" fill="#A52A2A"/>
<path d="M165 236.407C150.44 259.218 117.199 279.969 103 270.907C103 270.907 115.703 245.068 133.362 222.711C159.741 189.315 174.475 179.705 174.5 179.907C188.699 188.969 179.56 213.595 165 236.407Z" fill="#4BB7FF"/>
<path d="M153.389 191.589L158.283 193.221L156.652 194.852L155.02 196.483L153.389 191.589Z" fill="#F2E1E1"/>
<path d="M150.126 199.42L156.978 194.526L160.567 188L162.401 192.305L155.27 199.932L150.126 199.42Z" fill="white"/>
<path d="M633.743 233.052L650.582 230.722C652.26 231.827 651.966 232.492 650.994 233.694L634.154 236.024L633.743 233.052Z" fill="#7E7E7E"/>
<path d="M639.588 201.576C641.672 200.117 643.255 202.55 644.154 204.979C642.849 204.768 643.828 206.26 642.523 206.049L641.055 203.812L611.685 223.082L610.218 220.845L639.588 201.576Z" fill="#747474"/>
<path d="M619.016 194.621C623.069 192.061 625.466 196.65 628.096 200.658L637.921 215.633C639.31 217.75 638.092 220.599 635.602 221.058C633.112 221.517 631.895 224.365 633.283 226.482L636.263 231.024C637.841 233.429 640.707 234.654 643.536 234.133L644 234.047C647.221 233.453 650.474 234.918 652.207 237.697C653.538 239.832 654.809 241.855 655.734 243.418C657.889 247.057 651.725 245.416 648.082 247.564L640.512 252.029C636.374 254.469 631.05 253.229 628.415 249.213L605.753 214.672C603.246 210.852 603.999 205.732 607.585 202.901C612.533 198.994 616.293 196.341 619.016 194.621Z" fill="#FF4848"/>
<circle cx="607.159" cy="218.159" r="5.17033" transform="rotate(56.7317 607.159 218.159)" fill="#1C1D1D"/>
<circle cx="606.887" cy="217.886" r="3.52891" transform="rotate(56.7317 606.887 217.886)" fill="#7B7B7B"/>
<circle cx="636.965" cy="250.464" r="12.1503" transform="rotate(56.7317 636.965 250.464)" fill="#1C1D1D"/>
<circle cx="636.666" cy="249.665" r="8.42468" transform="rotate(56.7317 636.666 249.665)" fill="#7B7B7B"/>
<path d="M648.084 240.372C649.935 244.62 651.94 246.751 651.416 251.613C651.211 252.438 649.665 252.705 649.765 252.102C650.6 247.079 648.285 245.088 646.434 240.861L648.084 240.372Z" fill="#FF4848"/>
<path d="M608 202L621.636 220.719" stroke="black"/>
<path d="M610 200L623.525 218.886" stroke="black"/>
<line y1="-0.5" x2="22.6039" y2="-0.5" transform="matrix(0.584952 0.811068 -0.827153 0.561977 611.778 199)" stroke="black"/>
</svg>
