<svg width="1440" height="434" viewBox="0 0 1440 434" fill="none" xmlns="http://www.w3.org/2000/svg">
<g filter="url(#filter0_d)">
<path d="M423.832 317C324.268 329.5 19.9911 322.333 -6 272.5V537H1509.5V212.5C1432.08 238.5 1386.58 253.188 1250.91 165.5C1131 88 1136 -3.05176e-05 1019 0C814.041 5.34602e-05 831.442 204 788 230.5C744.558 257 718.793 187.596 686.714 156C672.5 142 658 156 647.5 156C620.873 156 571.695 98.5527 547.5 141C519 191 499.5 307.5 423.832 317Z" fill="#B6B6B6"/>
</g>
<defs>
<filter id="filter0_d" x="-10" y="0" width="1523.5" height="545" filterUnits="userSpaceOnUse" color-interpolation-filters="sRGB">
<feFlood flood-opacity="0" result="BackgroundImageFix"/>
<feColorMatrix in="SourceAlpha" type="matrix" values="0 0 0 0 0 0 0 0 0 0 0 0 0 0 0 0 0 0 127 0"/>
<feOffset dy="4"/>
<feGaussianBlur stdDeviation="2"/>
<feColorMatrix type="matrix" values="0 0 0 0 0 0 0 0 0 0 0 0 0 0 0 0 0 0 0.25 0"/>
<feBlend mode="normal" in2="BackgroundImageFix" result="effect1_dropShadow"/>
<feBlend mode="normal" in="SourceGraphic" in2="effect1_dropShadow" result="shape"/>
</filter>
</defs>
</svg>
