<svg width="687" height="251" viewBox="0 0 687 251" fill="none" xmlns="http://www.w3.org/2000/svg">
<path d="M591.681 61.0133C593.95 57.7606 598.426 56.9633 601.679 59.2324V59.2324C604.931 61.5015 605.729 65.9778 603.46 69.2305L597.36 77.9737L585.581 69.7564L591.681 61.0133Z" fill="#978062"/>
<rect width="2.7678" height="124.805" transform="matrix(0.282868 0.959159 -0.643151 0.76574 589.694 66.1737)" fill="#978062"/>
<rect width="2.99803" height="20.3002" transform="matrix(-0.652141 0.758098 -0.132205 -0.991222 584.482 95.8888)" fill="#978062"/>
<rect width="2.99803" height="20.3003" transform="matrix(0.486297 -0.873793 0.975907 -0.218186 570.994 90.5414)" fill="#978062"/>
<rect width="2.98979" height="23.9531" transform="matrix(-0.679317 0.733845 -0.282797 -0.95918 571.392 119.345)" fill="#978062"/>
<rect width="2.98979" height="23.9532" transform="matrix(0.454152 -0.890924 0.997833 -0.0657929 553.692 111.059)" fill="#978062"/>
<rect width="2.98028" height="27.67" transform="matrix(-0.703211 0.710981 -0.380306 -0.924861 557.935 142.545)" fill="#978062"/>
<rect width="2.98028" height="27.67" transform="matrix(0.424444 -0.905454 0.999294 0.0375695 536.375 131.566)" fill="#978062"/>
<rect width="2.99561" height="30.9684" transform="matrix(-0.722486 0.691385 -0.441466 -0.897278 545.552 164.805)" fill="#978062"/>
<rect width="2.99561" height="30.9685" transform="matrix(0.399397 -0.916778 0.994526 0.104492 520.749 151.565)" fill="#978062"/>
<rect width="2.7678" height="123.397" transform="matrix(0.997839 -0.0657133 -0.496574 0.867994 595.768 73.6974)" fill="#978062"/>
<path d="M637.235 41.6533L604.251 61.9513L597.37 50.7706C612.063 43.7198 619.181 39.2253 630.355 30.4726L637.235 41.6533Z" fill="#FDFFAE" fill-opacity="0.9"/>
<line x1="636.049" y1="39.7262" x2="603.065" y2="60.0242" stroke="#E8E8E8"/>
<line x1="634.601" y1="37.3724" x2="601.616" y2="57.6704" stroke="#E8E8E8"/>
<line x1="633.152" y1="35.0187" x2="600.168" y2="55.3167" stroke="#E8E8E8"/>
<line x1="631.704" y1="32.665" x2="598.719" y2="52.963" stroke="#E8E8E8"/>
<line x1="634.348" y1="43.431" x2="627.468" y2="32.2502" stroke="#E8E8E8"/>
<line x1="632.379" y1="44.6428" x2="625.499" y2="33.462" stroke="#E8E8E8"/>
<line x1="630.41" y1="45.8546" x2="623.529" y2="34.6738" stroke="#E8E8E8"/>
<line x1="628.441" y1="47.0665" x2="621.56" y2="35.8857" stroke="#E8E8E8"/>
<line x1="626.471" y1="48.2783" x2="619.591" y2="37.0975" stroke="#E8E8E8"/>
<line x1="624.502" y1="49.4901" x2="617.622" y2="38.3093" stroke="#E8E8E8"/>
<line x1="622.533" y1="50.702" x2="615.653" y2="39.5212" stroke="#E8E8E8"/>
<line x1="620.564" y1="51.9138" x2="613.683" y2="40.733" stroke="#E8E8E8"/>
<line x1="618.595" y1="53.1256" x2="611.714" y2="41.9448" stroke="#E8E8E8"/>
<line x1="616.625" y1="54.3374" x2="609.745" y2="43.1566" stroke="#E8E8E8"/>
<line x1="614.656" y1="55.5493" x2="607.776" y2="44.3685" stroke="#E8E8E8"/>
<line x1="612.687" y1="56.7611" x2="605.806" y2="45.5803" stroke="#E8E8E8"/>
<line x1="610.718" y1="57.9729" x2="603.837" y2="46.7921" stroke="#E8E8E8"/>
<line x1="608.748" y1="59.1848" x2="601.868" y2="48.004" stroke="#E8E8E8"/>
<line x1="606.779" y1="60.3966" x2="599.899" y2="49.2158" stroke="#E8E8E8"/>
<path d="M595.327 83.4836C585.052 88.6312 580.487 90.2428 562.342 103.782L555.462 92.6009L588.446 72.3029L595.327 83.4836Z" fill="#FDFFAE" fill-opacity="0.9"/>
<line x1="594.14" y1="81.5556" x2="561.156" y2="101.854" stroke="#E8E8E8"/>
<line x1="592.692" y1="79.2017" x2="559.708" y2="99.4997" stroke="#E8E8E8"/>
<line x1="591.244" y1="76.8481" x2="558.259" y2="97.1461" stroke="#E8E8E8"/>
<line x1="589.795" y1="74.4941" x2="556.811" y2="94.7921" stroke="#E8E8E8"/>
<line x1="592.44" y1="85.2603" x2="585.559" y2="74.0796" stroke="#E8E8E8"/>
<line x1="590.47" y1="86.4723" x2="583.59" y2="75.2915" stroke="#E8E8E8"/>
<line x1="588.501" y1="87.684" x2="581.621" y2="76.5033" stroke="#E8E8E8"/>
<line x1="586.532" y1="88.8958" x2="579.652" y2="77.7151" stroke="#E8E8E8"/>
<line x1="584.563" y1="90.1076" x2="577.682" y2="78.9269" stroke="#E8E8E8"/>
<line x1="582.593" y1="91.3194" x2="575.713" y2="80.1387" stroke="#E8E8E8"/>
<line x1="580.624" y1="92.5313" x2="573.744" y2="81.3506" stroke="#E8E8E8"/>
<line x1="578.655" y1="93.7431" x2="571.775" y2="82.5624" stroke="#E8E8E8"/>
<line x1="576.686" y1="94.9549" x2="569.805" y2="83.7742" stroke="#E8E8E8"/>
<line x1="574.717" y1="96.1668" x2="567.836" y2="84.9861" stroke="#E8E8E8"/>
<line x1="572.747" y1="97.3786" x2="565.867" y2="86.1979" stroke="#E8E8E8"/>
<line x1="570.778" y1="98.5904" x2="563.898" y2="87.4097" stroke="#E8E8E8"/>
<line x1="568.809" y1="99.8022" x2="561.929" y2="88.6215" stroke="#E8E8E8"/>
<line x1="566.84" y1="101.014" x2="559.959" y2="89.8333" stroke="#E8E8E8"/>
<line x1="564.87" y1="102.226" x2="557.99" y2="91.0451" stroke="#E8E8E8"/>
<path d="M571.229 25.9381L591.527 58.9226L580.346 65.803C574.147 52.1324 569.635 44.9398 560.048 32.8185L571.229 25.9381Z" fill="#FDFFAE" fill-opacity="0.9"/>
<line x1="569.301" y1="27.1243" x2="589.599" y2="60.1088" stroke="#E8E8E8"/>
<line x1="566.947" y1="28.5732" x2="587.245" y2="61.5576" stroke="#E8E8E8"/>
<line x1="564.593" y1="30.0216" x2="584.891" y2="63.0061" stroke="#E8E8E8"/>
<line x1="562.239" y1="31.47" x2="582.537" y2="64.4545" stroke="#E8E8E8"/>
<line x1="573.006" y1="28.8254" x2="561.825" y2="35.7058" stroke="#E8E8E8"/>
<line x1="574.218" y1="30.7946" x2="563.037" y2="37.675" stroke="#E8E8E8"/>
<line x1="575.429" y1="32.7638" x2="564.249" y2="39.6442" stroke="#E8E8E8"/>
<line x1="576.641" y1="34.7331" x2="565.46" y2="41.6135" stroke="#E8E8E8"/>
<line x1="577.853" y1="36.7023" x2="566.672" y2="43.5827" stroke="#E8E8E8"/>
<line x1="579.065" y1="38.6716" x2="567.884" y2="45.552" stroke="#E8E8E8"/>
<line x1="580.277" y1="40.6408" x2="569.096" y2="47.5212" stroke="#E8E8E8"/>
<line x1="581.488" y1="42.6099" x2="570.308" y2="49.4903" stroke="#E8E8E8"/>
<line x1="582.7" y1="44.5792" x2="571.52" y2="51.4595" stroke="#E8E8E8"/>
<line x1="583.912" y1="46.5484" x2="572.731" y2="53.4288" stroke="#E8E8E8"/>
<line x1="585.124" y1="48.5176" x2="573.943" y2="55.398" stroke="#E8E8E8"/>
<line x1="586.336" y1="50.4869" x2="575.155" y2="57.3673" stroke="#E8E8E8"/>
<line x1="587.548" y1="52.4561" x2="576.367" y2="59.3365" stroke="#E8E8E8"/>
<line x1="588.759" y1="54.4253" x2="577.579" y2="61.3057" stroke="#E8E8E8"/>
<line x1="589.971" y1="56.3946" x2="578.791" y2="63.275" stroke="#E8E8E8"/>
<path d="M612.075 68.0258C618.002 80.7372 622.124 87.932 632.373 101.01L621.192 107.891L600.894 74.9061L612.075 68.0258Z" fill="#FDFFAE" fill-opacity="0.9"/>
<line x1="610.147" y1="69.212" x2="630.445" y2="102.196" stroke="#E8E8E8"/>
<line x1="607.793" y1="70.6608" x2="628.091" y2="103.645" stroke="#E8E8E8"/>
<line x1="605.439" y1="72.1092" x2="625.737" y2="105.094" stroke="#E8E8E8"/>
<line x1="603.086" y1="73.5575" x2="623.384" y2="106.542" stroke="#E8E8E8"/>
<line x1="613.852" y1="70.913" x2="602.671" y2="77.7934" stroke="#E8E8E8"/>
<line x1="615.064" y1="72.8823" x2="603.883" y2="79.7626" stroke="#E8E8E8"/>
<line x1="616.275" y1="74.8515" x2="605.095" y2="81.7319" stroke="#E8E8E8"/>
<line x1="617.487" y1="76.8207" x2="606.307" y2="83.7011" stroke="#E8E8E8"/>
<line x1="618.699" y1="78.7898" x2="607.518" y2="85.6702" stroke="#E8E8E8"/>
<line x1="619.911" y1="80.7591" x2="608.73" y2="87.6395" stroke="#E8E8E8"/>
<line x1="621.123" y1="82.7283" x2="609.942" y2="89.6087" stroke="#E8E8E8"/>
<line x1="622.335" y1="84.6976" x2="611.154" y2="91.5779" stroke="#E8E8E8"/>
<line x1="623.546" y1="86.6668" x2="612.366" y2="93.5472" stroke="#E8E8E8"/>
<line x1="624.758" y1="88.6359" x2="613.578" y2="95.5163" stroke="#E8E8E8"/>
<line x1="625.97" y1="90.6052" x2="614.789" y2="97.4855" stroke="#E8E8E8"/>
<line x1="627.182" y1="92.5744" x2="616.001" y2="99.4548" stroke="#E8E8E8"/>
<line x1="628.394" y1="94.5436" x2="617.213" y2="101.424" stroke="#E8E8E8"/>
<line x1="629.606" y1="96.5129" x2="618.425" y2="103.393" stroke="#E8E8E8"/>
<line x1="630.817" y1="98.4821" x2="619.637" y2="105.362" stroke="#E8E8E8"/>
<line x1="637.498" y1="42.08" x2="555.775" y2="92.3706" stroke="#E8E8E8"/>
<line x1="621.094" y1="107.923" x2="570.803" y2="26.2001" stroke="#E8E8E8"/>
<circle cx="596.243" cy="67.3495" r="2.79875" transform="rotate(148.393 596.243 67.3495)" fill="#E8E8E8"/>
<rect x="472.979" y="71.5284" width="9.48016" height="27.0185" transform="rotate(20.6609 472.979 71.5284)" fill="white"/>
<path d="M458.778 101.128L508.009 119.692L494.964 154.287L445.733 135.723L458.778 101.128Z" fill="white"/>
<path d="M493.094 84.6859L508.084 119.974L458.535 101.29L493.094 84.6859Z" fill="white"/>
<rect x="496.363" y="84.5833" width="48.3488" height="4.26607" transform="rotate(155.661 496.363 84.5833)" fill="#56422A"/>
<rect x="494.71" y="80.7363" width="48.3488" height="4.26607" transform="rotate(65.6609 494.71 80.7363)" fill="#56422A"/>
<rect x="463.393" y="106.949" width="16.5383" height="15.1163" rx="1.5" transform="rotate(20.6609 463.393 106.949)" fill="#FCFF6F" stroke="#56422A"/>
<rect x="485.324" y="116.711" width="15.1683" height="31.7586" transform="rotate(20.6609 485.324 116.711)" fill="#56422A"/>
<line x1="471.385" y1="109.935" x2="466.201" y2="123.684" stroke="#56422A"/>
<line x1="460.267" y1="113.82" x2="476.678" y2="120.008" stroke="#56422A"/>
<rect x="480.081" y="131.958" width="2.84405" height="0.474008" transform="rotate(20.6609 480.081 131.958)" fill="#FFF59A"/>
<rect x="480.8" y="132.736" width="0.948016" height="1.42202" transform="rotate(20.6609 480.8 132.736)" fill="#FFF59A"/>
<rect x="485.549" y="114.769" width="16.1163" height="1.89603" transform="rotate(20.6609 485.549 114.769)" fill="#C4C4C4"/>
<rect x="472.87" y="70.4741" width="10.4282" height="2.84405" transform="rotate(20.6609 472.87 70.4741)" fill="#56422A"/>
<rect x="457.473" y="119.886" width="18.4863" height="2.84405" transform="rotate(20.6609 457.473 119.886)" fill="#C4C4C4"/>
<circle cx="343.493" cy="406.074" r="299" transform="rotate(9.19656 343.493 406.074)" fill="#54AB00"/>
<rect x="268.883" y="128.583" width="1" height="5" transform="rotate(9.19656 268.883 128.583)" fill="#3B3B3B"/>
<rect x="276.78" y="129.862" width="1" height="5" transform="rotate(9.19656 276.78 129.862)" fill="#3B3B3B"/>
<path d="M269.094 121.02C268.874 122.383 267.59 123.309 266.227 123.088C264.864 122.867 263.938 121.584 264.159 120.221C264.379 118.858 265.663 117.932 267.026 118.152C268.389 118.373 269.315 119.657 269.094 121.02Z" fill="white"/>
<path d="M271.388 119.365C271.168 120.728 269.884 121.654 268.521 121.433C267.158 121.213 266.232 119.929 266.453 118.566C266.673 117.203 267.957 116.277 269.32 116.498C270.683 116.718 271.609 118.002 271.388 119.365Z" fill="white"/>
<path d="M271.736 123.474C271.516 124.837 270.232 125.763 268.869 125.542C267.506 125.321 266.58 124.037 266.801 122.674C267.021 121.312 268.305 120.386 269.668 120.606C271.031 120.827 271.957 122.111 271.736 123.474Z" fill="white"/>
<path d="M275.337 120.004C275.116 121.367 273.833 122.293 272.47 122.073C271.107 121.852 270.181 120.568 270.401 119.205C270.622 117.842 271.906 116.916 273.269 117.137C274.632 117.358 275.558 118.642 275.337 120.004Z" fill="white"/>
<path d="M272.883 122.646C272.663 124.009 271.379 124.935 270.016 124.715C268.653 124.494 267.727 123.21 267.947 121.847C268.168 120.484 269.452 119.558 270.815 119.779C272.178 120 273.104 121.283 272.883 122.646Z" fill="white"/>
<path d="M277.819 123.445C277.598 124.808 276.314 125.734 274.952 125.514C273.589 125.293 272.663 124.009 272.883 122.646C273.104 121.283 274.388 120.357 275.751 120.578C277.114 120.799 278.04 122.082 277.819 123.445Z" fill="white"/>
<path d="M279.126 121.631C278.905 122.994 277.621 123.92 276.258 123.699C274.895 123.479 273.969 122.195 274.19 120.832C274.411 119.469 275.694 118.543 277.057 118.763C278.42 118.984 279.346 120.268 279.126 121.631Z" fill="white"/>
<path d="M280.621 124.912C280.4 126.275 279.116 127.201 277.753 126.98C276.39 126.76 275.464 125.476 275.685 124.113C275.906 122.75 277.189 121.824 278.552 122.045C279.915 122.265 280.841 123.549 280.621 124.912Z" fill="white"/>
<path d="M277.18 127.394C276.959 128.757 275.675 129.683 274.312 129.462C272.949 129.242 272.023 127.958 272.244 126.595C272.465 125.232 273.748 124.306 275.111 124.527C276.474 124.747 277.4 126.031 277.18 127.394Z" fill="white"/>
<path d="M275.046 128.061C274.825 129.424 273.541 130.35 272.178 130.13C270.815 129.909 269.889 128.625 270.11 127.262C270.33 125.899 271.614 124.973 272.977 125.194C274.34 125.415 275.266 126.698 275.046 128.061Z" fill="white"/>
<path d="M278.834 129.688C278.614 131.051 277.33 131.977 275.967 131.756C274.604 131.536 273.678 130.252 273.899 128.889C274.119 127.526 275.403 126.6 276.766 126.82C278.129 127.041 279.055 128.325 278.834 129.688Z" fill="white"/>
<path d="M281.128 128.033C280.908 129.396 279.624 130.322 278.261 130.102C276.898 129.881 275.972 128.597 276.193 127.234C276.413 125.871 277.697 124.945 279.06 125.166C280.423 125.386 281.349 126.67 281.128 128.033Z" fill="white"/>
<path d="M282.755 124.244C282.534 125.607 281.25 126.533 279.887 126.313C278.524 126.092 277.598 124.808 277.819 123.445C278.04 122.082 279.323 121.156 280.686 121.377C282.049 121.598 282.975 122.882 282.755 124.244Z" fill="white"/>
<path d="M282.915 123.257C282.694 124.62 281.41 125.546 280.047 125.326C278.684 125.105 277.758 123.821 277.979 122.458C278.199 121.095 279.483 120.169 280.846 120.39C282.209 120.611 283.135 121.894 282.915 123.257Z" fill="white"/>
<path d="M284.409 126.538C284.189 127.901 282.905 128.827 281.542 128.607C280.179 128.386 279.253 127.102 279.474 125.739C279.694 124.376 280.978 123.45 282.341 123.671C283.704 123.892 284.63 125.175 284.409 126.538Z" fill="white"/>
<path d="M270.11 127.262C269.889 128.625 268.605 129.551 267.242 129.331C265.879 129.11 264.953 127.826 265.174 126.463C265.395 125.1 266.679 124.174 268.042 124.395C269.404 124.616 270.33 125.899 270.11 127.262Z" fill="white"/>
<path d="M275.365 126.087C275.145 127.45 273.861 128.376 272.498 128.155C271.135 127.935 270.209 126.651 270.429 125.288C270.65 123.925 271.934 122.999 273.297 123.22C274.66 123.44 275.586 124.724 275.365 126.087Z" fill="white"/>
<path d="M272.244 126.595C272.023 127.958 270.739 128.884 269.377 128.663C268.014 128.442 267.088 127.159 267.308 125.796C267.529 124.433 268.813 123.507 270.176 123.727C271.539 123.948 272.465 125.232 272.244 126.595Z" fill="white"/>
<path d="M268.455 124.968C268.235 126.331 266.951 127.257 265.588 127.037C264.225 126.816 263.299 125.532 263.519 124.169C263.74 122.806 265.024 121.88 266.387 122.101C267.75 122.322 268.676 123.605 268.455 124.968Z" fill="white"/>
<path d="M286.612 131.706C286.261 133.873 283.157 132.873 281.48 132.601C279.802 132.329 278.727 130.352 279.078 128.184C279.429 126.016 281.073 124.479 282.751 124.75C284.428 125.022 286.963 129.538 286.612 131.706Z" fill="#3C3C3C"/>
<rect x="266.749" y="129.251" width="1" height="5" transform="rotate(9.19656 266.749 129.251)" fill="#3B3B3B"/>
<rect x="274.646" y="130.529" width="1" height="5" transform="rotate(9.19656 274.646 130.529)" fill="#3B3B3B"/>
<rect width="0.916667" height="5" transform="matrix(-0.987146 -0.159822 -0.159822 0.987146 325.005 141.722)" fill="#3B3B3B"/>
<rect width="0.916667" height="5" transform="matrix(-0.987146 -0.159822 -0.159822 0.987146 317.766 140.55)" fill="#3B3B3B"/>
<path d="M327.108 134.465C326.887 135.827 327.721 137.096 328.971 137.299C330.22 137.501 331.412 136.56 331.632 135.197C331.853 133.834 331.019 132.565 329.77 132.363C328.52 132.161 327.329 133.102 327.108 134.465Z" fill="white"/>
<path d="M325.618 132.197C325.397 133.56 326.231 134.829 327.481 135.031C328.73 135.234 329.922 134.293 330.142 132.93C330.363 131.567 329.529 130.298 328.28 130.096C327.03 129.893 325.839 130.834 325.618 132.197Z" fill="white"/>
<path d="M324.074 135.999C323.853 137.362 324.687 138.631 325.936 138.833C327.186 139.036 328.378 138.095 328.598 136.732C328.819 135.369 327.985 134.1 326.736 133.898C325.486 133.695 324.294 134.636 324.074 135.999Z" fill="white"/>
<path d="M321.998 131.611C321.778 132.974 322.612 134.243 323.861 134.445C325.11 134.648 326.302 133.707 326.523 132.344C326.743 130.981 325.91 129.712 324.66 129.51C323.411 129.307 322.219 130.248 321.998 131.611Z" fill="white"/>
<path d="M323.329 134.866C323.108 136.229 323.942 137.497 325.191 137.7C326.441 137.902 327.632 136.961 327.853 135.598C328.074 134.235 327.24 132.966 325.99 132.764C324.741 132.562 323.549 133.503 323.329 134.866Z" fill="white"/>
<path d="M318.804 134.133C318.584 135.496 319.418 136.765 320.667 136.967C321.916 137.17 323.108 136.229 323.329 134.866C323.549 133.503 322.715 132.234 321.466 132.032C320.217 131.829 319.025 132.77 318.804 134.133Z" fill="white"/>
<path d="M318.219 132.012C317.998 133.375 318.832 134.644 320.082 134.846C321.331 135.049 322.523 134.108 322.743 132.745C322.964 131.382 322.13 130.113 320.881 129.911C319.631 129.708 318.44 130.649 318.219 132.012Z" fill="white"/>
<path d="M315.93 134.681C315.709 136.044 316.543 137.313 317.792 137.515C319.042 137.717 320.234 136.776 320.454 135.413C320.675 134.05 319.841 132.781 318.592 132.579C317.342 132.377 316.15 133.318 315.93 134.681Z" fill="white"/>
<path d="M318.165 138.082C317.944 139.445 318.778 140.714 320.028 140.916C321.277 141.118 322.469 140.177 322.689 138.814C322.91 137.451 322.076 136.182 320.827 135.98C319.577 135.778 318.386 136.719 318.165 138.082Z" fill="white"/>
<path d="M319.815 139.362C319.594 140.725 320.428 141.994 321.678 142.196C322.927 142.398 324.119 141.457 324.339 140.094C324.56 138.731 323.726 137.463 322.477 137.26C321.227 137.058 320.036 137.999 319.815 139.362Z" fill="white"/>
<path d="M316.036 139.763C315.815 141.126 316.649 142.395 317.898 142.597C319.148 142.799 320.339 141.858 320.56 140.496C320.781 139.133 319.947 137.864 318.697 137.661C317.448 137.459 316.256 138.4 316.036 139.763Z" fill="white"/>
<path d="M314.545 137.496C314.325 138.859 315.159 140.128 316.408 140.33C317.658 140.532 318.849 139.591 319.07 138.228C319.291 136.865 318.457 135.596 317.207 135.394C315.958 135.192 314.766 136.133 314.545 137.496Z" fill="white"/>
<path d="M314.28 133.401C314.059 134.764 314.893 136.032 316.143 136.235C317.392 136.437 318.584 135.496 318.804 134.133C319.025 132.77 318.191 131.501 316.942 131.299C315.692 131.097 314.501 132.038 314.28 133.401Z" fill="white"/>
<path d="M314.44 132.413C314.219 133.776 315.053 135.045 316.302 135.248C317.552 135.45 318.743 134.509 318.964 133.146C319.185 131.783 318.351 130.514 317.101 130.312C315.852 130.11 314.66 131.051 314.44 132.413Z" fill="white"/>
<path d="M312.15 135.082C311.93 136.445 312.764 137.714 314.013 137.916C315.263 138.118 316.454 137.177 316.675 135.814C316.896 134.451 316.062 133.183 314.812 132.98C313.563 132.778 312.371 133.719 312.15 135.082Z" fill="white"/>
<path d="M324.339 140.094C324.119 141.457 324.953 142.726 326.202 142.929C327.451 143.131 328.643 142.19 328.864 140.827C329.084 139.464 328.251 138.195 327.001 137.993C325.752 137.791 324.56 138.731 324.339 140.094Z" fill="white"/>
<path d="M320.135 137.388C319.914 138.751 320.748 140.019 321.997 140.222C323.247 140.424 324.438 139.483 324.659 138.12C324.88 136.757 324.046 135.488 322.796 135.286C321.547 135.084 320.355 136.025 320.135 137.388Z" fill="white"/>
<path d="M322.689 138.814C322.469 140.177 323.303 141.446 324.552 141.648C325.801 141.851 326.993 140.91 327.214 139.547C327.435 138.184 326.601 136.915 325.351 136.713C324.102 136.51 322.91 137.451 322.689 138.814Z" fill="white"/>
<path d="M326.469 138.413C326.248 139.776 327.082 141.045 328.331 141.247C329.581 141.45 330.773 140.509 330.993 139.146C331.214 137.783 330.38 136.514 329.131 136.311C327.881 136.109 326.689 137.05 326.469 138.413Z" fill="white"/>
<path d="M308.677 139.33C308.326 141.498 311.322 141.485 312.859 141.734C314.397 141.983 315.928 140.427 316.279 138.259C316.63 136.091 315.668 134.132 314.13 133.883C312.593 133.634 309.028 137.162 308.677 139.33Z" fill="#3C3C3C"/>
<rect width="0.916667" height="5" transform="matrix(-0.987146 -0.159822 -0.159822 0.987146 326.654 143.002)" fill="#3B3B3B"/>
<rect width="0.916667" height="5" transform="matrix(-0.987146 -0.159822 -0.159822 0.987146 319.415 141.83)" fill="#3B3B3B"/>
<rect x="273.073" y="151.714" width="1.02403" height="5" transform="rotate(0.525915 273.073 151.714)" fill="#3B3B3B"/>
<rect x="281.529" y="152.891" width="1.02403" height="5" transform="rotate(8.57343 281.529 152.891)" fill="#3B3B3B"/>
<path d="M273.534 144.101C273.328 145.466 272.028 146.402 270.63 146.192C269.232 145.981 268.265 144.703 268.471 143.338C268.677 141.973 269.977 141.037 271.375 141.247C272.773 141.458 273.74 142.736 273.534 144.101Z" fill="white"/>
<path d="M275.857 142.429C275.651 143.794 274.351 144.73 272.953 144.519C271.555 144.308 270.589 143.031 270.794 141.666C271 140.3 272.3 139.364 273.698 139.575C275.096 139.786 276.063 141.063 275.857 142.429Z" fill="white"/>
<path d="M276.273 146.537C276.067 147.902 274.767 148.838 273.369 148.627C271.971 148.416 271.005 147.139 271.211 145.773C271.416 144.408 272.717 143.472 274.115 143.683C275.513 143.894 276.479 145.171 276.273 146.537Z" fill="white"/>
<path d="M279.907 143.039C279.701 144.405 278.401 145.341 277.003 145.13C275.605 144.919 274.639 143.641 274.844 142.276C275.05 140.911 276.35 139.975 277.748 140.186C279.146 140.396 280.113 141.674 279.907 143.039Z" fill="white"/>
<path d="M277.435 145.701C277.229 147.066 275.929 148.002 274.531 147.791C273.133 147.58 272.166 146.303 272.372 144.937C272.578 143.572 273.878 142.636 275.276 142.847C276.674 143.058 277.641 144.335 277.435 145.701Z" fill="white"/>
<path d="M282.497 146.464C282.291 147.829 280.991 148.765 279.593 148.554C278.195 148.343 277.229 147.066 277.435 145.701C277.641 144.335 278.941 143.399 280.339 143.61C281.737 143.821 282.703 145.098 282.497 146.464Z" fill="white"/>
<path d="M283.808 144.639C283.602 146.004 282.302 146.94 280.904 146.729C279.506 146.518 278.54 145.241 278.745 143.876C278.951 142.51 280.251 141.574 281.649 141.785C283.047 141.996 284.014 143.273 283.808 144.639Z" fill="white"/>
<path d="M285.386 147.911C285.18 149.276 283.88 150.212 282.482 150.001C281.084 149.79 280.117 148.513 280.323 147.147C280.529 145.782 281.829 144.846 283.227 145.057C284.625 145.268 285.591 146.545 285.386 147.911Z" fill="white"/>
<path d="M281.901 150.419C281.695 151.784 280.395 152.72 278.997 152.51C277.599 152.299 276.633 151.021 276.838 149.656C277.044 148.291 278.344 147.355 279.742 147.565C281.14 147.776 282.107 149.054 281.901 150.419Z" fill="white"/>
<path d="M279.727 151.103C279.521 152.468 278.221 153.404 276.823 153.193C275.425 152.982 274.458 151.705 274.664 150.339C274.87 148.974 276.17 148.038 277.568 148.249C278.966 148.46 279.933 149.737 279.727 151.103Z" fill="white"/>
<path d="M283.628 152.702C283.422 154.067 282.122 155.003 280.724 154.792C279.326 154.582 278.359 153.304 278.565 151.939C278.771 150.573 280.071 149.638 281.469 149.848C282.867 150.059 283.834 151.337 283.628 152.702Z" fill="white"/>
<path d="M285.951 151.03C285.745 152.395 284.445 153.331 283.047 153.12C281.649 152.909 280.683 151.632 280.888 150.266C281.094 148.901 282.394 147.965 283.792 148.176C285.19 148.387 286.157 149.664 285.951 151.03Z" fill="white"/>
<path d="M287.56 147.227C287.354 148.592 286.054 149.528 284.656 149.317C283.258 149.107 282.291 147.829 282.497 146.464C282.703 145.098 284.003 144.163 285.401 144.373C286.799 144.584 287.766 145.862 287.56 147.227Z" fill="white"/>
<path d="M287.709 146.238C287.503 147.603 286.203 148.539 284.805 148.329C283.407 148.118 282.44 146.84 282.646 145.475C282.852 144.11 284.152 143.174 285.55 143.384C286.948 143.595 287.915 144.873 287.709 146.238Z" fill="white"/>
<path d="M289.287 149.51C289.081 150.875 287.781 151.811 286.383 151.6C284.985 151.39 284.018 150.112 284.224 148.747C284.43 147.381 285.73 146.445 287.128 146.656C288.526 146.867 289.492 148.145 289.287 149.51Z" fill="white"/>
<path d="M274.664 150.339C274.458 151.705 273.158 152.641 271.76 152.43C270.362 152.219 269.396 150.941 269.602 149.576C269.808 148.211 271.108 147.275 272.506 147.486C273.904 147.696 274.87 148.974 274.664 150.339Z" fill="white"/>
<path d="M280.025 149.125C279.819 150.49 278.519 151.426 277.121 151.215C275.723 151.005 274.757 149.727 274.962 148.362C275.168 146.996 276.468 146.061 277.866 146.271C279.264 146.482 280.231 147.76 280.025 149.125Z" fill="white"/>
<path d="M276.838 149.656C276.633 151.021 275.332 151.957 273.934 151.746C272.536 151.536 271.57 150.258 271.776 148.893C271.982 147.527 273.282 146.591 274.68 146.802C276.078 147.013 277.044 148.291 276.838 149.656Z" fill="white"/>
<path d="M272.937 148.056C272.732 149.422 271.432 150.358 270.034 150.147C268.636 149.936 267.669 148.658 267.875 147.293C268.081 145.928 269.381 144.992 270.779 145.203C272.177 145.414 273.143 146.691 272.937 148.056Z" fill="white"/>
<path d="M289.589 158.324C288.383 160.16 285.894 157.936 284.44 156.981C282.985 156.026 282.784 153.763 283.989 151.927C285.195 150.092 287.352 149.378 288.806 150.334C290.26 151.289 290.795 156.489 289.589 158.324Z" fill="#3C3C3C"/>
<rect x="270.908" y="151.227" width="1.02403" height="5" transform="rotate(19.3885 270.908 151.227)" fill="#3B3B3B"/>
<rect x="279.68" y="153.578" width="1.02403" height="5" transform="rotate(15.8775 279.68 153.578)" fill="#3B3B3B"/>
</svg>
