<svg width="789" height="749" viewBox="0 0 789 749" fill="none" xmlns="http://www.w3.org/2000/svg">
<path d="M749 326L758 325L760 337.5L751 338.5" stroke="black"/>
<path d="M738.092 315.373C752.515 313.245 760.588 311.818 774.796 306.182L775.272 308.08L738.567 317.271L738.092 315.373Z" fill="#A52A2A"/>
<path d="M739.178 344.318L776.978 346.011L776.89 347.967C762.233 346.022 753.912 346.203 739.09 346.274L739.178 344.318Z" fill="#A52A2A"/>
<rect x="728" y="312.644" width="26.3403" height="43.8771" transform="rotate(-9.21356 728 312.644)" fill="#656565"/>
<path d="M787.563 326.703L775.842 352.006C770.857 333.582 770.152 322.77 774.087 302.29L787.563 326.703Z" fill="#A52A2A"/>
<rect y="403.666" width="164.512" height="60.2934" transform="rotate(-4.06652 0 403.666)" fill="#909090"/>
<rect x="8.29901" y="407.468" width="9" height="47" transform="rotate(-2.98209 8.29901 407.468)" fill="#C4C4C4"/>
<rect x="25.299" y="405.468" width="9" height="47" transform="rotate(-2.98209 25.299 405.468)" fill="#C4C4C4"/>
<rect x="42.299" y="404.468" width="9" height="47" transform="rotate(-2.98209 42.299 404.468)" fill="#C4C4C4"/>
<rect x="59.299" y="403.468" width="9" height="47" transform="rotate(-2.98209 59.299 403.468)" fill="#C4C4C4"/>
<rect x="77.299" y="402.468" width="9" height="47" transform="rotate(-2.98209 77.299 402.468)" fill="#C4C4C4"/>
<rect x="88.1636" y="267" width="92.6796" height="36.9078" transform="rotate(22.0648 88.1636 267)" fill="#A8A8A8"/>
<rect x="85.196" y="308.829" width="92.6796" height="36.9078" transform="rotate(14.2668 85.196 308.829)" fill="#A8A8A8"/>
<rect x="96.9987" y="354.759" width="92.6796" height="36.9078" transform="rotate(5.7139 96.9987 354.759)" fill="#A8A8A8"/>
<rect x="87.3108" y="291.605" width="9.84208" height="4.10087" transform="rotate(19.4904 87.3108 291.605)" fill="#C4C4C4"/>
<rect x="92.2318" y="276.842" width="9.84208" height="4.10087" transform="rotate(19.4904 92.2318 276.842)" fill="#C4C4C4"/>
<rect x="106.995" y="298.987" width="9.84208" height="4.10087" transform="rotate(19.4904 106.995 298.987)" fill="#C4C4C4"/>
<rect x="111.916" y="284.224" width="9.84208" height="4.10087" transform="rotate(19.4904 111.916 284.224)" fill="#C4C4C4"/>
<rect x="128.319" y="308.009" width="9.84208" height="4.10087" transform="rotate(19.4904 128.319 308.009)" fill="#C4C4C4"/>
<rect x="133.24" y="293.246" width="9.84208" height="4.10087" transform="rotate(19.4904 133.24 293.246)" fill="#C4C4C4"/>
<rect x="89.7713" y="333.434" width="9.84208" height="4.10087" transform="rotate(19.4904 89.7713 333.434)" fill="#C4C4C4"/>
<rect x="94.6924" y="318.671" width="9.84208" height="4.10087" transform="rotate(19.4904 94.6924 318.671)" fill="#C4C4C4"/>
<rect x="116.837" y="339.995" width="9.84208" height="4.10087" transform="rotate(19.4904 116.837 339.995)" fill="#C4C4C4"/>
<rect x="121.758" y="325.232" width="9.84208" height="4.10087" transform="rotate(19.4904 121.758 325.232)" fill="#C4C4C4"/>
<rect x="106.995" y="377.723" width="9.84208" height="4.10087" transform="rotate(19.4904 106.995 377.723)" fill="#C4C4C4"/>
<rect x="111.916" y="362.96" width="9.84208" height="4.10087" transform="rotate(19.4904 111.916 362.96)" fill="#C4C4C4"/>
<circle cx="237.977" cy="144.112" r="8.43395" fill="#A3FF4A"/>
<circle cx="237.977" cy="132.434" r="8.43395" fill="#A3FF4A"/>
<circle cx="232.138" cy="138.273" r="5.83889" fill="#A3FF4A"/>
<circle cx="247.708" cy="130.488" r="4.54136" fill="#A3FF4A"/>
<circle cx="249.655" cy="137.624" r="8.43395" fill="#A3FF4A"/>
<path d="M237.977 144.267L247.65 148.208L250.106 139.833L248.884 148.972L268.254 176.661L263.837 179.386L247.78 149.653L237.977 144.267Z" fill="#A52A2A"/>
<path d="M692.43 60.2205C694.699 56.9679 699.176 56.1705 702.428 58.4397C705.681 60.7088 706.478 65.1851 704.209 68.4377L698.11 77.1809L686.331 68.9637L692.43 60.2205Z" fill="#978062"/>
<rect width="2.7678" height="124.805" transform="matrix(0.282868 0.959159 -0.643151 0.76574 690.444 65.381)" fill="#978062"/>
<rect width="2.99803" height="20.3002" transform="matrix(-0.652141 0.758098 -0.132205 -0.991222 685.231 95.0961)" fill="#978062"/>
<rect width="2.99803" height="20.3003" transform="matrix(0.486297 -0.873793 0.975907 -0.218186 671.743 89.7487)" fill="#978062"/>
<rect width="2.98979" height="23.9531" transform="matrix(-0.679317 0.733845 -0.282797 -0.95918 672.141 118.552)" fill="#978062"/>
<rect width="2.98979" height="23.9532" transform="matrix(0.454152 -0.890924 0.997833 -0.0657929 654.442 110.267)" fill="#978062"/>
<rect width="2.98028" height="27.67" transform="matrix(-0.703211 0.710981 -0.380306 -0.924861 658.685 141.752)" fill="#978062"/>
<rect width="2.98028" height="27.67" transform="matrix(0.424444 -0.905454 0.999294 0.0375695 637.124 130.773)" fill="#978062"/>
<rect width="2.99561" height="30.9684" transform="matrix(-0.722486 0.691385 -0.441466 -0.897278 646.301 164.013)" fill="#978062"/>
<rect width="2.99561" height="30.9685" transform="matrix(0.399397 -0.916778 0.994526 0.104492 621.499 150.772)" fill="#978062"/>
<rect width="2.7678" height="123.397" transform="matrix(0.997839 -0.0657133 -0.496574 0.867994 696.517 72.9047)" fill="#978062"/>
<path d="M737.985 40.8606L705 61.1586L698.12 49.9778C712.813 42.9271 719.931 38.4326 731.104 29.6799L737.985 40.8606Z" fill="#FDFFAE" fill-opacity="0.9"/>
<line x1="736.799" y1="38.9335" x2="703.814" y2="59.2315" stroke="#E8E8E8"/>
<line x1="735.35" y1="36.5796" x2="702.366" y2="56.8776" stroke="#E8E8E8"/>
<line x1="733.902" y1="34.226" x2="700.918" y2="54.524" stroke="#E8E8E8"/>
<line x1="732.454" y1="31.8722" x2="699.469" y2="52.1702" stroke="#E8E8E8"/>
<line x1="735.098" y1="42.6383" x2="728.218" y2="31.4575" stroke="#E8E8E8"/>
<line x1="733.129" y1="43.8501" x2="726.248" y2="32.6693" stroke="#E8E8E8"/>
<line x1="731.159" y1="45.0619" x2="724.279" y2="33.8811" stroke="#E8E8E8"/>
<line x1="729.19" y1="46.2738" x2="722.31" y2="35.093" stroke="#E8E8E8"/>
<line x1="727.221" y1="47.4856" x2="720.341" y2="36.3048" stroke="#E8E8E8"/>
<line x1="725.252" y1="48.6974" x2="718.371" y2="37.5166" stroke="#E8E8E8"/>
<line x1="723.283" y1="49.9093" x2="716.402" y2="38.7285" stroke="#E8E8E8"/>
<line x1="721.313" y1="51.1211" x2="714.433" y2="39.9403" stroke="#E8E8E8"/>
<line x1="719.344" y1="52.3328" x2="712.464" y2="41.1521" stroke="#E8E8E8"/>
<line x1="717.375" y1="53.5446" x2="710.495" y2="42.3639" stroke="#E8E8E8"/>
<line x1="715.406" y1="54.7566" x2="708.525" y2="43.5758" stroke="#E8E8E8"/>
<line x1="713.436" y1="55.9683" x2="706.556" y2="44.7876" stroke="#E8E8E8"/>
<line x1="711.467" y1="57.1801" x2="704.587" y2="45.9994" stroke="#E8E8E8"/>
<line x1="709.498" y1="58.3921" x2="702.618" y2="47.2113" stroke="#E8E8E8"/>
<line x1="707.529" y1="59.6038" x2="700.648" y2="48.4231" stroke="#E8E8E8"/>
<path d="M696.077 82.6909C685.802 87.8385 681.237 89.45 663.092 102.989L656.212 91.8082L689.196 71.5102L696.077 82.6909Z" fill="#FDFFAE" fill-opacity="0.9"/>
<line x1="694.89" y1="80.7629" x2="661.906" y2="101.061" stroke="#E8E8E8"/>
<line x1="693.442" y1="78.409" x2="660.457" y2="98.707" stroke="#E8E8E8"/>
<line x1="691.993" y1="76.0553" x2="659.009" y2="96.3533" stroke="#E8E8E8"/>
<line x1="690.545" y1="73.7013" x2="657.56" y2="93.9993" stroke="#E8E8E8"/>
<line x1="693.189" y1="84.4676" x2="686.309" y2="73.2869" stroke="#E8E8E8"/>
<line x1="691.22" y1="85.6795" x2="684.34" y2="74.4988" stroke="#E8E8E8"/>
<line x1="689.251" y1="86.8913" x2="682.37" y2="75.7106" stroke="#E8E8E8"/>
<line x1="687.282" y1="88.1031" x2="680.401" y2="76.9224" stroke="#E8E8E8"/>
<line x1="685.312" y1="89.3149" x2="678.432" y2="78.1342" stroke="#E8E8E8"/>
<line x1="683.343" y1="90.5267" x2="676.463" y2="79.346" stroke="#E8E8E8"/>
<line x1="681.374" y1="91.7386" x2="674.493" y2="80.5579" stroke="#E8E8E8"/>
<line x1="679.405" y1="92.9504" x2="672.524" y2="81.7697" stroke="#E8E8E8"/>
<line x1="677.435" y1="94.1622" x2="670.555" y2="82.9815" stroke="#E8E8E8"/>
<line x1="675.466" y1="95.3741" x2="668.586" y2="84.1934" stroke="#E8E8E8"/>
<line x1="673.497" y1="96.5859" x2="666.617" y2="85.4052" stroke="#E8E8E8"/>
<line x1="671.528" y1="97.7977" x2="664.647" y2="86.617" stroke="#E8E8E8"/>
<line x1="669.559" y1="99.0095" x2="662.678" y2="87.8287" stroke="#E8E8E8"/>
<line x1="667.589" y1="100.221" x2="660.709" y2="89.0405" stroke="#E8E8E8"/>
<line x1="665.62" y1="101.433" x2="658.74" y2="90.2523" stroke="#E8E8E8"/>
<path d="M671.979 25.1454L692.277 58.1299L681.096 65.0103C674.896 51.3397 670.385 44.147 660.798 32.0258L671.979 25.1454Z" fill="#FDFFAE" fill-opacity="0.9"/>
<line x1="670.051" y1="26.3316" x2="690.349" y2="59.3161" stroke="#E8E8E8"/>
<line x1="667.696" y1="27.7804" x2="687.994" y2="60.7649" stroke="#E8E8E8"/>
<line x1="665.343" y1="29.2289" x2="685.641" y2="62.2134" stroke="#E8E8E8"/>
<line x1="662.989" y1="30.6773" x2="683.287" y2="63.6618" stroke="#E8E8E8"/>
<line x1="673.755" y1="28.0326" x2="662.575" y2="34.913" stroke="#E8E8E8"/>
<line x1="674.967" y1="30.0019" x2="663.786" y2="36.8823" stroke="#E8E8E8"/>
<line x1="676.179" y1="31.9711" x2="664.998" y2="38.8515" stroke="#E8E8E8"/>
<line x1="677.391" y1="33.9404" x2="666.21" y2="40.8208" stroke="#E8E8E8"/>
<line x1="678.603" y1="35.9096" x2="667.422" y2="42.79" stroke="#E8E8E8"/>
<line x1="679.815" y1="37.8788" x2="668.634" y2="44.7592" stroke="#E8E8E8"/>
<line x1="681.026" y1="39.8481" x2="669.846" y2="46.7285" stroke="#E8E8E8"/>
<line x1="682.238" y1="41.8172" x2="671.057" y2="48.6976" stroke="#E8E8E8"/>
<line x1="683.45" y1="43.7864" x2="672.269" y2="50.6668" stroke="#E8E8E8"/>
<line x1="684.662" y1="45.7557" x2="673.481" y2="52.6361" stroke="#E8E8E8"/>
<line x1="685.874" y1="47.7249" x2="674.693" y2="54.6053" stroke="#E8E8E8"/>
<line x1="687.085" y1="49.6941" x2="675.905" y2="56.5745" stroke="#E8E8E8"/>
<line x1="688.297" y1="51.6634" x2="677.116" y2="58.5438" stroke="#E8E8E8"/>
<line x1="689.509" y1="53.6326" x2="678.328" y2="60.513" stroke="#E8E8E8"/>
<line x1="690.721" y1="55.6019" x2="679.54" y2="62.4823" stroke="#E8E8E8"/>
<path d="M712.825 67.233C718.752 79.9445 722.874 87.1393 733.123 100.218L721.942 107.098L701.644 74.1134L712.825 67.233Z" fill="#FDFFAE" fill-opacity="0.9"/>
<line x1="710.897" y1="68.4192" x2="731.195" y2="101.404" stroke="#E8E8E8"/>
<line x1="708.543" y1="69.8681" x2="728.841" y2="102.853" stroke="#E8E8E8"/>
<line x1="706.189" y1="71.3164" x2="726.487" y2="104.301" stroke="#E8E8E8"/>
<line x1="703.835" y1="72.7648" x2="724.133" y2="105.749" stroke="#E8E8E8"/>
<line x1="714.602" y1="70.1203" x2="703.421" y2="77.0007" stroke="#E8E8E8"/>
<line x1="715.813" y1="72.0895" x2="704.633" y2="78.9699" stroke="#E8E8E8"/>
<line x1="717.025" y1="74.0588" x2="705.844" y2="80.9392" stroke="#E8E8E8"/>
<line x1="718.237" y1="76.028" x2="707.056" y2="82.9084" stroke="#E8E8E8"/>
<line x1="719.449" y1="77.9971" x2="708.268" y2="84.8775" stroke="#E8E8E8"/>
<line x1="720.661" y1="79.9664" x2="709.48" y2="86.8467" stroke="#E8E8E8"/>
<line x1="721.872" y1="81.9356" x2="710.692" y2="88.816" stroke="#E8E8E8"/>
<line x1="723.084" y1="83.9048" x2="711.904" y2="90.7852" stroke="#E8E8E8"/>
<line x1="724.296" y1="85.8741" x2="713.115" y2="92.7545" stroke="#E8E8E8"/>
<line x1="725.508" y1="87.8432" x2="714.327" y2="94.7236" stroke="#E8E8E8"/>
<line x1="726.72" y1="89.8124" x2="715.539" y2="96.6928" stroke="#E8E8E8"/>
<line x1="727.931" y1="91.7817" x2="716.751" y2="98.6621" stroke="#E8E8E8"/>
<line x1="729.143" y1="93.7509" x2="717.963" y2="100.631" stroke="#E8E8E8"/>
<line x1="730.355" y1="95.7201" x2="719.174" y2="102.601" stroke="#E8E8E8"/>
<line x1="731.567" y1="97.6894" x2="720.386" y2="104.57" stroke="#E8E8E8"/>
<line x1="738.247" y1="41.2873" x2="656.524" y2="91.5778" stroke="#E8E8E8"/>
<line x1="721.843" y1="107.13" x2="671.553" y2="25.4074" stroke="#E8E8E8"/>
<circle cx="696.993" cy="66.5567" r="2.79875" transform="rotate(148.393 696.993 66.5567)" fill="#E8E8E8"/>
<rect x="571.729" y="64.7357" width="9.48016" height="27.0185" transform="rotate(20.6609 571.729 64.7357)" fill="white"/>
<path d="M557.527 94.3352L606.758 112.9L593.713 147.494L544.482 128.93L557.527 94.3352Z" fill="white"/>
<path d="M591.843 77.8932L606.834 113.181L557.285 94.497L591.843 77.8932Z" fill="white"/>
<rect x="595.112" y="77.7905" width="48.3488" height="4.26607" transform="rotate(155.661 595.112 77.7905)" fill="#56422A"/>
<rect x="593.46" y="73.9436" width="48.3488" height="4.26607" transform="rotate(65.6609 593.46 73.9436)" fill="#56422A"/>
<rect x="562.142" y="100.156" width="16.5383" height="15.1163" rx="1.5" transform="rotate(20.6609 562.142 100.156)" fill="#FCFF6F" stroke="#56422A"/>
<rect x="584.073" y="109.918" width="15.1683" height="31.7586" transform="rotate(20.6609 584.073 109.918)" fill="#56422A"/>
<line x1="570.135" y1="103.142" x2="564.95" y2="116.891" stroke="#56422A"/>
<line x1="559.017" y1="107.027" x2="575.427" y2="113.215" stroke="#56422A"/>
<rect x="578.83" y="125.165" width="2.84405" height="0.474008" transform="rotate(20.6609 578.83 125.165)" fill="#FFF59A"/>
<rect x="579.55" y="125.943" width="0.948016" height="1.42202" transform="rotate(20.6609 579.55 125.943)" fill="#FFF59A"/>
<rect x="584.299" y="107.976" width="16.1163" height="1.89603" transform="rotate(20.6609 584.299 107.976)" fill="#C4C4C4"/>
<rect x="571.62" y="63.6814" width="10.4282" height="2.84405" transform="rotate(20.6609 571.62 63.6814)" fill="#56422A"/>
<rect x="556.223" y="113.094" width="18.4863" height="2.84405" transform="rotate(20.6609 556.223 113.094)" fill="#C4C4C4"/>
<circle cx="444.242" cy="405.282" r="299" transform="rotate(9.19656 444.242 405.282)" fill="#54AB00"/>
<rect x="369.633" y="122.791" width="1" height="5" transform="rotate(9.19656 369.633 122.791)" fill="#3B3B3B"/>
<rect x="377.53" y="124.069" width="1" height="5" transform="rotate(9.19656 377.53 124.069)" fill="#3B3B3B"/>
<path d="M369.844 115.227C369.623 116.59 368.34 117.516 366.977 117.295C365.614 117.075 364.688 115.791 364.908 114.428C365.129 113.065 366.413 112.139 367.776 112.36C369.139 112.58 370.065 113.864 369.844 115.227Z" fill="white"/>
<path d="M372.138 113.572C371.917 114.935 370.634 115.861 369.271 115.641C367.908 115.42 366.982 114.136 367.202 112.773C367.423 111.41 368.707 110.484 370.07 110.705C371.433 110.926 372.359 112.209 372.138 113.572Z" fill="white"/>
<path d="M372.486 117.681C372.265 119.044 370.981 119.97 369.618 119.749C368.256 119.529 367.329 118.245 367.55 116.882C367.771 115.519 369.055 114.593 370.418 114.813C371.781 115.034 372.707 116.318 372.486 117.681Z" fill="white"/>
<path d="M376.087 114.212C375.866 115.575 374.582 116.501 373.219 116.28C371.856 116.059 370.93 114.776 371.151 113.413C371.372 112.05 372.655 111.124 374.018 111.344C375.381 111.565 376.307 112.849 376.087 114.212Z" fill="white"/>
<path d="M373.633 116.854C373.412 118.217 372.128 119.143 370.765 118.922C369.402 118.701 368.476 117.417 368.697 116.054C368.918 114.691 370.202 113.765 371.565 113.986C372.928 114.207 373.854 115.491 373.633 116.854Z" fill="white"/>
<path d="M378.569 117.653C378.348 119.016 377.064 119.942 375.701 119.721C374.338 119.5 373.412 118.217 373.633 116.854C373.854 115.491 375.137 114.565 376.5 114.785C377.863 115.006 378.789 116.29 378.569 117.653Z" fill="white"/>
<path d="M379.875 115.838C379.655 117.201 378.371 118.127 377.008 117.906C375.645 117.686 374.719 116.402 374.94 115.039C375.16 113.676 376.444 112.75 377.807 112.971C379.17 113.191 380.096 114.475 379.875 115.838Z" fill="white"/>
<path d="M381.37 119.119C381.15 120.482 379.866 121.408 378.503 121.188C377.14 120.967 376.214 119.683 376.434 118.32C376.655 116.957 377.939 116.031 379.302 116.252C380.665 116.473 381.591 117.756 381.37 119.119Z" fill="white"/>
<path d="M377.929 121.601C377.709 122.964 376.425 123.89 375.062 123.67C373.699 123.449 372.773 122.165 372.994 120.802C373.214 119.439 374.498 118.513 375.861 118.734C377.224 118.954 378.15 120.238 377.929 121.601Z" fill="white"/>
<path d="M375.795 122.269C375.575 123.632 374.291 124.558 372.928 124.337C371.565 124.116 370.639 122.833 370.859 121.47C371.08 120.107 372.364 119.181 373.727 119.401C375.09 119.622 376.016 120.906 375.795 122.269Z" fill="white"/>
<path d="M379.584 123.895C379.363 125.258 378.079 126.184 376.717 125.963C375.354 125.743 374.428 124.459 374.648 123.096C374.869 121.733 376.153 120.807 377.516 121.028C378.879 121.248 379.805 122.532 379.584 123.895Z" fill="white"/>
<path d="M381.878 122.241C381.657 123.603 380.373 124.529 379.01 124.309C377.647 124.088 376.721 122.804 376.942 121.441C377.163 120.078 378.447 119.152 379.81 119.373C381.173 119.594 382.099 120.878 381.878 122.241Z" fill="white"/>
<path d="M383.504 118.452C383.284 119.815 382 120.741 380.637 120.52C379.274 120.299 378.348 119.016 378.569 117.653C378.789 116.29 380.073 115.364 381.436 115.584C382.799 115.805 383.725 117.089 383.504 118.452Z" fill="white"/>
<path d="M383.664 117.465C383.443 118.828 382.16 119.754 380.797 119.533C379.434 119.312 378.508 118.028 378.728 116.666C378.949 115.303 380.233 114.377 381.596 114.597C382.959 114.818 383.885 116.102 383.664 117.465Z" fill="white"/>
<path d="M385.159 120.746C384.938 122.109 383.655 123.035 382.292 122.814C380.929 122.593 380.003 121.31 380.223 119.947C380.444 118.584 381.728 117.658 383.091 117.878C384.454 118.099 385.38 119.383 385.159 120.746Z" fill="white"/>
<path d="M370.859 121.47C370.639 122.833 369.355 123.759 367.992 123.538C366.629 123.317 365.703 122.033 365.924 120.671C366.144 119.308 367.428 118.382 368.791 118.602C370.154 118.823 371.08 120.107 370.859 121.47Z" fill="white"/>
<path d="M376.115 120.294C375.894 121.657 374.61 122.583 373.247 122.363C371.884 122.142 370.958 120.858 371.179 119.495C371.4 118.132 372.684 117.206 374.047 117.427C375.409 117.648 376.335 118.931 376.115 120.294Z" fill="white"/>
<path d="M372.994 120.802C372.773 122.165 371.489 123.091 370.126 122.87C368.763 122.65 367.837 121.366 368.058 120.003C368.279 118.64 369.562 117.714 370.925 117.935C372.288 118.155 373.214 119.439 372.994 120.802Z" fill="white"/>
<path d="M369.205 119.176C368.984 120.539 367.7 121.465 366.337 121.244C364.974 121.023 364.048 119.74 364.269 118.377C364.49 117.014 365.774 116.088 367.136 116.308C368.499 116.529 369.425 117.813 369.205 119.176Z" fill="white"/>
<path d="M387.361 125.913C387.011 128.081 383.907 127.08 382.229 126.808C380.552 126.537 379.476 124.559 379.827 122.391C380.178 120.223 381.823 118.686 383.5 118.958C385.178 119.229 387.712 123.745 387.361 125.913Z" fill="#3C3C3C"/>
<rect x="367.498" y="123.458" width="1" height="5" transform="rotate(9.19656 367.498 123.458)" fill="#3B3B3B"/>
<rect x="375.396" y="124.737" width="1" height="5" transform="rotate(9.19656 375.396 124.737)" fill="#3B3B3B"/>
<rect width="0.916667" height="5" transform="matrix(-0.987146 -0.159822 -0.159822 0.987146 425.754 140.929)" fill="#3B3B3B"/>
<rect width="0.916667" height="5" transform="matrix(-0.987146 -0.159822 -0.159822 0.987146 418.515 139.757)" fill="#3B3B3B"/>
<path d="M427.858 133.672C427.637 135.035 428.471 136.304 429.72 136.506C430.97 136.708 432.161 135.767 432.382 134.404C432.603 133.041 431.769 131.772 430.519 131.57C429.27 131.368 428.078 132.309 427.858 133.672Z" fill="white"/>
<path d="M426.368 131.404C426.147 132.767 426.981 134.036 428.23 134.239C429.48 134.441 430.671 133.5 430.892 132.137C431.113 130.774 430.279 129.505 429.029 129.303C427.78 129.101 426.588 130.042 426.368 131.404Z" fill="white"/>
<path d="M424.823 135.207C424.603 136.57 425.437 137.838 426.686 138.041C427.935 138.243 429.127 137.302 429.348 135.939C429.568 134.576 428.735 133.307 427.485 133.105C426.236 132.903 425.044 133.844 424.823 135.207Z" fill="white"/>
<path d="M422.748 130.818C422.527 132.181 423.361 133.45 424.611 133.653C425.86 133.855 427.052 132.914 427.272 131.551C427.493 130.188 426.659 128.919 425.41 128.717C424.16 128.515 422.969 129.456 422.748 130.818Z" fill="white"/>
<path d="M424.078 134.073C423.858 135.436 424.692 136.705 425.941 136.907C427.19 137.109 428.382 136.168 428.603 134.805C428.823 133.442 427.989 132.174 426.74 131.971C425.491 131.769 424.299 132.71 424.078 134.073Z" fill="white"/>
<path d="M419.554 133.34C419.333 134.703 420.167 135.972 421.417 136.175C422.666 136.377 423.858 135.436 424.078 134.073C424.299 132.71 423.465 131.441 422.216 131.239C420.966 131.037 419.775 131.977 419.554 133.34Z" fill="white"/>
<path d="M418.969 131.22C418.748 132.583 419.582 133.851 420.831 134.054C422.081 134.256 423.272 133.315 423.493 131.952C423.714 130.589 422.88 129.32 421.63 129.118C420.381 128.916 419.189 129.857 418.969 131.22Z" fill="white"/>
<path d="M416.679 133.888C416.459 135.251 417.293 136.52 418.542 136.722C419.791 136.924 420.983 135.984 421.204 134.621C421.425 133.258 420.591 131.989 419.341 131.786C418.092 131.584 416.9 132.525 416.679 133.888Z" fill="white"/>
<path d="M418.915 137.289C418.694 138.652 419.528 139.921 420.777 140.123C422.027 140.325 423.218 139.384 423.439 138.022C423.66 136.659 422.826 135.39 421.576 135.187C420.327 134.985 419.135 135.926 418.915 137.289Z" fill="white"/>
<path d="M420.565 138.569C420.344 139.932 421.178 141.201 422.427 141.403C423.677 141.606 424.868 140.665 425.089 139.302C425.31 137.939 424.476 136.67 423.226 136.468C421.977 136.265 420.785 137.206 420.565 138.569Z" fill="white"/>
<path d="M416.785 138.97C416.565 140.333 417.398 141.602 418.648 141.804C419.897 142.007 421.089 141.066 421.31 139.703C421.53 138.34 420.696 137.071 419.447 136.869C418.198 136.666 417.006 137.607 416.785 138.97Z" fill="white"/>
<path d="M415.295 136.703C415.074 138.066 415.908 139.335 417.158 139.537C418.407 139.739 419.599 138.798 419.82 137.435C420.04 136.073 419.206 134.804 417.957 134.601C416.707 134.399 415.516 135.34 415.295 136.703Z" fill="white"/>
<path d="M415.03 132.608C414.809 133.971 415.643 135.24 416.892 135.442C418.142 135.644 419.333 134.703 419.554 133.34C419.775 131.977 418.941 130.709 417.691 130.506C416.442 130.304 415.25 131.245 415.03 132.608Z" fill="white"/>
<path d="M415.189 131.621C414.969 132.984 415.803 134.253 417.052 134.455C418.301 134.657 419.493 133.716 419.714 132.353C419.934 130.99 419.1 129.721 417.851 129.519C416.602 129.317 415.41 130.258 415.189 131.621Z" fill="white"/>
<path d="M412.9 134.289C412.679 135.652 413.513 136.921 414.763 137.123C416.012 137.326 417.204 136.385 417.425 135.022C417.645 133.659 416.811 132.39 415.562 132.188C414.312 131.985 413.121 132.926 412.9 134.289Z" fill="white"/>
<path d="M425.089 139.302C424.868 140.665 425.702 141.934 426.952 142.136C428.201 142.338 429.393 141.397 429.613 140.034C429.834 138.671 429 137.402 427.751 137.2C426.501 136.998 425.31 137.939 425.089 139.302Z" fill="white"/>
<path d="M420.884 136.595C420.664 137.958 421.497 139.227 422.747 139.429C423.996 139.631 425.188 138.69 425.409 137.327C425.629 135.964 424.795 134.696 423.546 134.493C422.297 134.291 421.105 135.232 420.884 136.595Z" fill="white"/>
<path d="M423.439 138.022C423.218 139.384 424.052 140.653 425.302 140.856C426.551 141.058 427.743 140.117 427.963 138.754C428.184 137.391 427.35 136.122 426.101 135.92C424.851 135.718 423.66 136.659 423.439 138.022Z" fill="white"/>
<path d="M427.218 137.62C426.998 138.983 427.832 140.252 429.081 140.455C430.33 140.657 431.522 139.716 431.743 138.353C431.964 136.99 431.13 135.721 429.88 135.519C428.631 135.316 427.439 136.257 427.218 137.62Z" fill="white"/>
<path d="M409.427 138.537C409.076 140.705 412.071 140.692 413.609 140.941C415.147 141.19 416.678 139.634 417.029 137.466C417.38 135.298 416.418 133.339 414.88 133.09C413.342 132.841 409.778 136.369 409.427 138.537Z" fill="#3C3C3C"/>
<rect width="0.916667" height="5" transform="matrix(-0.987146 -0.159822 -0.159822 0.987146 427.404 142.209)" fill="#3B3B3B"/>
<rect width="0.916667" height="5" transform="matrix(-0.987146 -0.159822 -0.159822 0.987146 420.165 141.037)" fill="#3B3B3B"/>
<rect x="373.823" y="150.921" width="1.02403" height="5" transform="rotate(0.525915 373.823 150.921)" fill="#3B3B3B"/>
<rect x="382.279" y="152.099" width="1.02403" height="5" transform="rotate(8.57343 382.279 152.099)" fill="#3B3B3B"/>
<path d="M374.283 143.308C374.078 144.674 372.777 145.61 371.379 145.399C369.981 145.188 369.015 143.91 369.221 142.545C369.427 141.18 370.727 140.244 372.125 140.455C373.523 140.665 374.489 141.943 374.283 143.308Z" fill="white"/>
<path d="M376.607 141.636C376.401 143.001 375.101 143.937 373.703 143.726C372.305 143.516 371.338 142.238 371.544 140.873C371.75 139.508 373.05 138.572 374.448 138.782C375.846 138.993 376.812 140.271 376.607 141.636Z" fill="white"/>
<path d="M377.023 145.744C376.817 147.109 375.517 148.045 374.119 147.834C372.721 147.624 371.754 146.346 371.96 144.981C372.166 143.615 373.466 142.68 374.864 142.89C376.262 143.101 377.229 144.379 377.023 145.744Z" fill="white"/>
<path d="M380.657 142.247C380.451 143.612 379.151 144.548 377.753 144.337C376.355 144.126 375.388 142.849 375.594 141.483C375.8 140.118 377.1 139.182 378.498 139.393C379.896 139.604 380.862 140.881 380.657 142.247Z" fill="white"/>
<path d="M378.184 144.908C377.978 146.273 376.678 147.209 375.28 146.998C373.882 146.788 372.916 145.51 373.122 144.145C373.328 142.779 374.628 141.843 376.026 142.054C377.424 142.265 378.39 143.543 378.184 144.908Z" fill="white"/>
<path d="M383.247 145.671C383.041 147.036 381.741 147.972 380.343 147.761C378.945 147.551 377.978 146.273 378.184 144.908C378.39 143.543 379.69 142.607 381.088 142.817C382.486 143.028 383.453 144.306 383.247 145.671Z" fill="white"/>
<path d="M384.557 143.846C384.352 145.211 383.051 146.147 381.653 145.936C380.256 145.726 379.289 144.448 379.495 143.083C379.701 141.718 381.001 140.782 382.399 140.992C383.797 141.203 384.763 142.481 384.557 143.846Z" fill="white"/>
<path d="M386.135 147.118C385.929 148.483 384.629 149.419 383.231 149.208C381.833 148.997 380.867 147.72 381.073 146.355C381.279 144.989 382.579 144.053 383.977 144.264C385.375 144.475 386.341 145.753 386.135 147.118Z" fill="white"/>
<path d="M382.65 149.626C382.445 150.992 381.144 151.928 379.747 151.717C378.349 151.506 377.382 150.228 377.588 148.863C377.794 147.498 379.094 146.562 380.492 146.773C381.89 146.983 382.856 148.261 382.65 149.626Z" fill="white"/>
<path d="M380.476 150.31C380.271 151.675 378.97 152.611 377.572 152.4C376.174 152.19 375.208 150.912 375.414 149.547C375.62 148.181 376.92 147.245 378.318 147.456C379.716 147.667 380.682 148.945 380.476 150.31Z" fill="white"/>
<path d="M384.377 151.909C384.171 153.275 382.871 154.21 381.473 154C380.075 153.789 379.109 152.511 379.315 151.146C379.521 149.781 380.821 148.845 382.219 149.056C383.617 149.266 384.583 150.544 384.377 151.909Z" fill="white"/>
<path d="M386.7 150.237C386.495 151.602 385.194 152.538 383.797 152.327C382.399 152.117 381.432 150.839 381.638 149.474C381.844 148.108 383.144 147.172 384.542 147.383C385.94 147.594 386.906 148.872 386.7 150.237Z" fill="white"/>
<path d="M388.309 146.434C388.103 147.8 386.803 148.735 385.405 148.525C384.007 148.314 383.041 147.036 383.247 145.671C383.453 144.306 384.753 143.37 386.151 143.581C387.549 143.791 388.515 145.069 388.309 146.434Z" fill="white"/>
<path d="M388.458 145.445C388.253 146.811 386.952 147.747 385.554 147.536C384.156 147.325 383.19 146.047 383.396 144.682C383.602 143.317 384.902 142.381 386.3 142.592C387.698 142.803 388.664 144.08 388.458 145.445Z" fill="white"/>
<path d="M390.036 148.717C389.83 150.082 388.53 151.018 387.132 150.808C385.734 150.597 384.768 149.319 384.974 147.954C385.179 146.589 386.48 145.653 387.878 145.864C389.276 146.074 390.242 147.352 390.036 148.717Z" fill="white"/>
<path d="M375.414 149.547C375.208 150.912 373.908 151.848 372.51 151.637C371.112 151.426 370.146 150.149 370.351 148.783C370.557 147.418 371.857 146.482 373.255 146.693C374.653 146.904 375.62 148.181 375.414 149.547Z" fill="white"/>
<path d="M380.775 148.332C380.569 149.698 379.269 150.633 377.871 150.423C376.473 150.212 375.506 148.934 375.712 147.569C375.918 146.204 377.218 145.268 378.616 145.479C380.014 145.689 380.98 146.967 380.775 148.332Z" fill="white"/>
<path d="M377.588 148.863C377.382 150.228 376.082 151.164 374.684 150.954C373.286 150.743 372.32 149.465 372.525 148.1C372.731 146.735 374.031 145.799 375.429 146.009C376.827 146.22 377.794 147.498 377.588 148.863Z" fill="white"/>
<path d="M373.687 147.264C373.481 148.629 372.181 149.565 370.783 149.354C369.385 149.143 368.419 147.866 368.625 146.5C368.83 145.135 370.131 144.199 371.529 144.41C372.926 144.621 373.893 145.898 373.687 147.264Z" fill="white"/>
<path d="M390.339 157.532C389.133 159.367 386.644 157.144 385.189 156.188C383.735 155.233 383.533 152.97 384.739 151.135C385.945 149.299 388.101 148.586 389.556 149.541C391.01 150.496 391.544 155.696 390.339 157.532Z" fill="#3C3C3C"/>
<rect x="371.657" y="150.434" width="1.02403" height="5" transform="rotate(19.3885 371.657 150.434)" fill="#3B3B3B"/>
<rect x="380.43" y="152.786" width="1.02403" height="5" transform="rotate(15.8775 380.43 152.786)" fill="#3B3B3B"/>
<path d="M610.799 408.5C676.299 229 522.799 124 501.799 111.5L492.799 110C522.309 134.683 645.299 224 437.799 408.5C383.807 468.099 576.681 502 610.799 408.5Z" fill="#C4C4C4"/>
<circle cx="235.299" cy="109" r="13" fill="#A3FF4A"/>
<circle cx="235.299" cy="91" r="13" fill="#A3FF4A"/>
<circle cx="226.299" cy="100" r="9" fill="#A3FF4A"/>
<circle cx="250.299" cy="88" r="7" fill="#A3FF4A"/>
<circle cx="253.299" cy="99" r="13" fill="#A3FF4A"/>
<path d="M235.299 109.239L250.21 115.315L253.995 102.404L252.111 116.492L281.968 159.172L275.159 163.372L250.409 117.542L235.299 109.239Z" fill="#A52A2A"/>
<path d="M239.299 236.407C224.739 259.218 191.498 279.969 177.299 270.907C177.299 270.907 190.002 245.068 207.661 222.711C234.04 189.315 248.774 179.705 248.799 179.907C262.998 188.969 253.859 213.595 239.299 236.407Z" fill="#4BB7FF"/>
<path d="M227.688 191.589L232.582 193.221L230.951 194.852L229.319 196.483L227.688 191.589Z" fill="#F2E1E1"/>
<path d="M224.425 199.42L231.277 194.526L234.866 188L236.7 192.305L229.569 199.932L224.425 199.42Z" fill="white"/>
<path d="M708.042 233.052L724.881 230.722C726.559 231.827 726.265 232.492 725.293 233.694L708.453 236.024L708.042 233.052Z" fill="#7E7E7E"/>
<path d="M713.887 201.576C715.971 200.117 717.554 202.55 718.454 204.979C717.148 204.768 718.127 206.26 716.822 206.049L715.354 203.812L685.984 223.082L684.517 220.845L713.887 201.576Z" fill="#747474"/>
<path d="M693.316 194.621C697.368 192.061 699.765 196.65 702.395 200.658L712.22 215.633C713.609 217.75 712.391 220.599 709.901 221.058C707.411 221.517 706.194 224.365 707.583 226.482L710.562 231.024C712.14 233.429 715.006 234.654 717.835 234.133L718.299 234.047C721.52 233.453 724.773 234.918 726.506 237.697C727.837 239.832 729.108 241.855 730.033 243.418C732.188 247.057 726.024 245.416 722.381 247.564L714.811 252.029C710.673 254.469 705.349 253.229 702.714 249.213L680.052 214.672C677.545 210.852 678.298 205.732 681.884 202.901C686.832 198.994 690.592 196.341 693.316 194.621Z" fill="#FF4848"/>
<circle cx="681.458" cy="218.159" r="5.17033" transform="rotate(56.7317 681.458 218.159)" fill="#1C1D1D"/>
<circle cx="681.186" cy="217.886" r="3.52891" transform="rotate(56.7317 681.186 217.886)" fill="#7B7B7B"/>
<circle cx="711.264" cy="250.464" r="12.1503" transform="rotate(56.7317 711.264 250.464)" fill="#1C1D1D"/>
<circle cx="710.965" cy="249.665" r="8.42468" transform="rotate(56.7317 710.965 249.665)" fill="#7B7B7B"/>
<path d="M722.383 240.372C724.234 244.62 726.239 246.751 725.715 251.613C725.51 252.438 723.964 252.705 724.064 252.102C724.899 247.079 722.584 245.088 720.733 240.861L722.383 240.372Z" fill="#FF4848"/>
<path d="M682.299 202L695.935 220.719" stroke="black"/>
<path d="M684.299 200L697.824 218.886" stroke="black"/>
<line y1="-0.5" x2="22.6039" y2="-0.5" transform="matrix(0.584952 0.811068 -0.827153 0.561977 686.077 199)" stroke="black"/>
</svg>
