<svg width="24" height="18" viewBox="0 0 24 18" fill="none" xmlns="http://www.w3.org/2000/svg">
<rect x="6" y="12" width="1" height="5" fill="#3B3B3B"/>
<rect x="14" y="12" width="1" height="5" fill="#3B3B3B"/>
<path d="M5 4.5C5 5.88071 3.88071 7 2.5 7C1.11929 7 0 5.88071 0 4.5C0 3.11929 1.11929 2 2.5 2C3.88071 2 5 3.11929 5 4.5Z" fill="white"/>
<path d="M7 2.5C7 3.88071 5.88071 5 4.5 5C3.11929 5 2 3.88071 2 2.5C2 1.11929 3.11929 0 4.5 0C5.88071 0 7 1.11929 7 2.5Z" fill="white"/>
<path d="M8 6.5C8 7.88071 6.88071 9 5.5 9C4.11929 9 3 7.88071 3 6.5C3 5.11929 4.11929 4 5.5 4C6.88071 4 8 5.11929 8 6.5Z" fill="white"/>
<path d="M11 2.5C11 3.88071 9.88071 5 8.5 5C7.11929 5 6 3.88071 6 2.5C6 1.11929 7.11929 0 8.5 0C9.88071 0 11 1.11929 11 2.5Z" fill="white"/>
<path d="M9 5.5C9 6.88071 7.88071 8 6.5 8C5.11929 8 4 6.88071 4 5.5C4 4.11929 5.11929 3 6.5 3C7.88071 3 9 4.11929 9 5.5Z" fill="white"/>
<path d="M14 5.5C14 6.88071 12.8807 8 11.5 8C10.1193 8 9 6.88071 9 5.5C9 4.11929 10.1193 3 11.5 3C12.8807 3 14 4.11929 14 5.5Z" fill="white"/>
<path d="M15 3.5C15 4.88071 13.8807 6 12.5 6C11.1193 6 10 4.88071 10 3.5C10 2.11929 11.1193 1 12.5 1C13.8807 1 15 2.11929 15 3.5Z" fill="white"/>
<path d="M17 6.5C17 7.88071 15.8807 9 14.5 9C13.1193 9 12 7.88071 12 6.5C12 5.11929 13.1193 4 14.5 4C15.8807 4 17 5.11929 17 6.5Z" fill="white"/>
<path d="M14 9.5C14 10.8807 12.8807 12 11.5 12C10.1193 12 9 10.8807 9 9.5C9 8.11929 10.1193 7 11.5 7C12.8807 7 14 8.11929 14 9.5Z" fill="white"/>
<path d="M12 10.5C12 11.8807 10.8807 13 9.5 13C8.11929 13 7 11.8807 7 10.5C7 9.11929 8.11929 8 9.5 8C10.8807 8 12 9.11929 12 10.5Z" fill="white"/>
<path d="M16 11.5C16 12.8807 14.8807 14 13.5 14C12.1193 14 11 12.8807 11 11.5C11 10.1193 12.1193 9 13.5 9C14.8807 9 16 10.1193 16 11.5Z" fill="white"/>
<path d="M18 9.5C18 10.8807 16.8807 12 15.5 12C14.1193 12 13 10.8807 13 9.5C13 8.11929 14.1193 7 15.5 7C16.8807 7 18 8.11929 18 9.5Z" fill="white"/>
<path d="M19 5.5C19 6.88071 17.8807 8 16.5 8C15.1193 8 14 6.88071 14 5.5C14 4.11929 15.1193 3 16.5 3C17.8807 3 19 4.11929 19 5.5Z" fill="white"/>
<path d="M19 4.5C19 5.88071 17.8807 7 16.5 7C15.1193 7 14 5.88071 14 4.5C14 3.11929 15.1193 2 16.5 2C17.8807 2 19 3.11929 19 4.5Z" fill="white"/>
<path d="M21 7.5C21 8.88071 19.8807 10 18.5 10C17.1193 10 16 8.88071 16 7.5C16 6.11929 17.1193 5 18.5 5C19.8807 5 21 6.11929 21 7.5Z" fill="white"/>
<path d="M7 10.5C7 11.8807 5.88071 13 4.5 13C3.11929 13 2 11.8807 2 10.5C2 9.11929 3.11929 8 4.5 8C5.88071 8 7 9.11929 7 10.5Z" fill="white"/>
<path d="M12 8.5C12 9.88071 10.8807 11 9.5 11C8.11929 11 7 9.88071 7 8.5C7 7.11929 8.11929 6 9.5 6C10.8807 6 12 7.11929 12 8.5Z" fill="white"/>
<path d="M9 9.5C9 10.8807 7.88071 12 6.5 12C5.11929 12 4 10.8807 4 9.5C4 8.11929 5.11929 7 6.5 7C7.88071 7 9 8.11929 9 9.5Z" fill="white"/>
<path d="M5 8.5C5 9.88071 3.88071 11 2.5 11C1.11929 11 0 9.88071 0 8.5C0 7.11929 1.11929 6 2.5 6C3.88071 6 5 7.11929 5 8.5Z" fill="white"/>
<path d="M24 12.2487C24 14.4448 20.7763 13.9529 19.0769 13.9529C17.3776 13.9529 16 12.1726 16 9.97645C16 7.78032 17.3776 6 19.0769 6C20.7763 6 24 10.0526 24 12.2487Z" fill="#3C3C3C"/>
<rect x="4" y="13" width="1" height="5" fill="#3B3B3B"/>
<rect x="12" y="13" width="1" height="5" fill="#3B3B3B"/>
</svg>
