<svg width="69" height="41" viewBox="0 0 69 41" fill="none" xmlns="http://www.w3.org/2000/svg">
<rect x="6" y="12" width="1" height="5" fill="#3B3B3B"/>
<rect x="14" y="12" width="1" height="5" fill="#3B3B3B"/>
<path d="M5 4.5C5 5.88071 3.88071 7 2.5 7C1.11929 7 0 5.88071 0 4.5C0 3.11929 1.11929 2 2.5 2C3.88071 2 5 3.11929 5 4.5Z" fill="white"/>
<path d="M7 2.5C7 3.88071 5.88071 5 4.5 5C3.11929 5 2 3.88071 2 2.5C2 1.11929 3.11929 0 4.5 0C5.88071 0 7 1.11929 7 2.5Z" fill="white"/>
<path d="M8 6.5C8 7.88071 6.88071 9 5.5 9C4.11929 9 3 7.88071 3 6.5C3 5.11929 4.11929 4 5.5 4C6.88071 4 8 5.11929 8 6.5Z" fill="white"/>
<path d="M11 2.5C11 3.88071 9.88071 5 8.5 5C7.11929 5 6 3.88071 6 2.5C6 1.11929 7.11929 0 8.5 0C9.88071 0 11 1.11929 11 2.5Z" fill="white"/>
<path d="M9 5.5C9 6.88071 7.88071 8 6.5 8C5.11929 8 4 6.88071 4 5.5C4 4.11929 5.11929 3 6.5 3C7.88071 3 9 4.11929 9 5.5Z" fill="white"/>
<path d="M14 5.5C14 6.88071 12.8807 8 11.5 8C10.1193 8 9 6.88071 9 5.5C9 4.11929 10.1193 3 11.5 3C12.8807 3 14 4.11929 14 5.5Z" fill="white"/>
<path d="M15 3.5C15 4.88071 13.8807 6 12.5 6C11.1193 6 10 4.88071 10 3.5C10 2.11929 11.1193 1 12.5 1C13.8807 1 15 2.11929 15 3.5Z" fill="white"/>
<path d="M17 6.5C17 7.88071 15.8807 9 14.5 9C13.1193 9 12 7.88071 12 6.5C12 5.11929 13.1193 4 14.5 4C15.8807 4 17 5.11929 17 6.5Z" fill="white"/>
<path d="M14 9.5C14 10.8807 12.8807 12 11.5 12C10.1193 12 9 10.8807 9 9.5C9 8.11929 10.1193 7 11.5 7C12.8807 7 14 8.11929 14 9.5Z" fill="white"/>
<path d="M12 10.5C12 11.8807 10.8807 13 9.5 13C8.11929 13 7 11.8807 7 10.5C7 9.11929 8.11929 8 9.5 8C10.8807 8 12 9.11929 12 10.5Z" fill="white"/>
<path d="M16 11.5C16 12.8807 14.8807 14 13.5 14C12.1193 14 11 12.8807 11 11.5C11 10.1193 12.1193 9 13.5 9C14.8807 9 16 10.1193 16 11.5Z" fill="white"/>
<path d="M18 9.5C18 10.8807 16.8807 12 15.5 12C14.1193 12 13 10.8807 13 9.5C13 8.11929 14.1193 7 15.5 7C16.8807 7 18 8.11929 18 9.5Z" fill="white"/>
<path d="M19 5.5C19 6.88071 17.8807 8 16.5 8C15.1193 8 14 6.88071 14 5.5C14 4.11929 15.1193 3 16.5 3C17.8807 3 19 4.11929 19 5.5Z" fill="white"/>
<path d="M19 4.5C19 5.88071 17.8807 7 16.5 7C15.1193 7 14 5.88071 14 4.5C14 3.11929 15.1193 2 16.5 2C17.8807 2 19 3.11929 19 4.5Z" fill="white"/>
<path d="M21 7.5C21 8.88071 19.8807 10 18.5 10C17.1193 10 16 8.88071 16 7.5C16 6.11929 17.1193 5 18.5 5C19.8807 5 21 6.11929 21 7.5Z" fill="white"/>
<path d="M7 10.5C7 11.8807 5.88071 13 4.5 13C3.11929 13 2 11.8807 2 10.5C2 9.11929 3.11929 8 4.5 8C5.88071 8 7 9.11929 7 10.5Z" fill="white"/>
<path d="M12 8.5C12 9.88071 10.8807 11 9.5 11C8.11929 11 7 9.88071 7 8.5C7 7.11929 8.11929 6 9.5 6C10.8807 6 12 7.11929 12 8.5Z" fill="white"/>
<path d="M9 9.5C9 10.8807 7.88071 12 6.5 12C5.11929 12 4 10.8807 4 9.5C4 8.11929 5.11929 7 6.5 7C7.88071 7 9 8.11929 9 9.5Z" fill="white"/>
<path d="M5 8.5C5 9.88071 3.88071 11 2.5 11C1.11929 11 0 9.88071 0 8.5C0 7.11929 1.11929 6 2.5 6C3.88071 6 5 7.11929 5 8.5Z" fill="white"/>
<path d="M24 12.2487C24 14.4448 20.7763 13.9529 19.0769 13.9529C17.3776 13.9529 16 12.1726 16 9.97645C16 7.78032 17.3776 6 19.0769 6C20.7763 6 24 10.0526 24 12.2487Z" fill="#3C3C3C"/>
<rect x="4" y="13" width="1" height="5" fill="#3B3B3B"/>
<rect x="12" y="13" width="1" height="5" fill="#3B3B3B"/>
<rect width="0.916667" height="5" transform="matrix(-1 0 0 1 63.5 16)" fill="#3B3B3B"/>
<rect width="0.916667" height="5" transform="matrix(-1 0 0 1 56.1667 16)" fill="#3B3B3B"/>
<path d="M64.4167 8.5C64.4167 9.88071 65.4427 11 66.7083 11C67.974 11 69 9.88071 69 8.5C69 7.11929 67.974 6 66.7083 6C65.4427 6 64.4167 7.11929 64.4167 8.5Z" fill="white"/>
<path d="M62.5833 6.5C62.5833 7.88071 63.6093 9 64.875 9C66.1407 9 67.1667 7.88071 67.1667 6.5C67.1667 5.11929 66.1407 4 64.875 4C63.6093 4 62.5833 5.11929 62.5833 6.5Z" fill="white"/>
<path d="M61.6667 10.5C61.6667 11.8807 62.6927 13 63.9583 13C65.224 13 66.25 11.8807 66.25 10.5C66.25 9.11929 65.224 8 63.9583 8C62.6927 8 61.6667 9.11929 61.6667 10.5Z" fill="white"/>
<path d="M58.9167 6.5C58.9167 7.88071 59.9427 9 61.2083 9C62.474 9 63.5 7.88071 63.5 6.5C63.5 5.11929 62.474 4 61.2083 4C59.9427 4 58.9167 5.11929 58.9167 6.5Z" fill="white"/>
<path d="M60.75 9.5C60.75 10.8807 61.776 12 63.0417 12C64.3073 12 65.3333 10.8807 65.3333 9.5C65.3333 8.11929 64.3073 7 63.0417 7C61.776 7 60.75 8.11929 60.75 9.5Z" fill="white"/>
<path d="M56.1667 9.5C56.1667 10.8807 57.1927 12 58.4583 12C59.724 12 60.75 10.8807 60.75 9.5C60.75 8.11929 59.724 7 58.4583 7C57.1927 7 56.1667 8.11929 56.1667 9.5Z" fill="white"/>
<path d="M55.25 7.5C55.25 8.88071 56.276 10 57.5417 10C58.8073 10 59.8333 8.88071 59.8333 7.5C59.8333 6.11929 58.8073 5 57.5417 5C56.276 5 55.25 6.11929 55.25 7.5Z" fill="white"/>
<path d="M53.4167 10.5C53.4167 11.8807 54.4427 13 55.7083 13C56.974 13 58 11.8807 58 10.5C58 9.11929 56.974 8 55.7083 8C54.4427 8 53.4167 9.11929 53.4167 10.5Z" fill="white"/>
<path d="M56.1667 13.5C56.1667 14.8807 57.1927 16 58.4583 16C59.724 16 60.75 14.8807 60.75 13.5C60.75 12.1193 59.724 11 58.4583 11C57.1927 11 56.1667 12.1193 56.1667 13.5Z" fill="white"/>
<path d="M58 14.5C58 15.8807 59.026 17 60.2917 17C61.5573 17 62.5833 15.8807 62.5833 14.5C62.5833 13.1193 61.5573 12 60.2917 12C59.026 12 58 13.1193 58 14.5Z" fill="white"/>
<path d="M54.3333 15.5C54.3333 16.8807 55.3593 18 56.625 18C57.8907 18 58.9167 16.8807 58.9167 15.5C58.9167 14.1193 57.8907 13 56.625 13C55.3593 13 54.3333 14.1193 54.3333 15.5Z" fill="white"/>
<path d="M52.5 13.5C52.5 14.8807 53.526 16 54.7917 16C56.0573 16 57.0833 14.8807 57.0833 13.5C57.0833 12.1193 56.0573 11 54.7917 11C53.526 11 52.5 12.1193 52.5 13.5Z" fill="white"/>
<path d="M51.5833 9.5C51.5833 10.8807 52.6093 12 53.875 12C55.1407 12 56.1667 10.8807 56.1667 9.5C56.1667 8.11929 55.1407 7 53.875 7C52.6093 7 51.5833 8.11929 51.5833 9.5Z" fill="white"/>
<path d="M51.5833 8.5C51.5833 9.88071 52.6093 11 53.875 11C55.1407 11 56.1667 9.88071 56.1667 8.5C56.1667 7.11929 55.1407 6 53.875 6C52.6093 6 51.5833 7.11929 51.5833 8.5Z" fill="white"/>
<path d="M49.75 11.5C49.75 12.8807 50.776 14 52.0417 14C53.3073 14 54.3333 12.8807 54.3333 11.5C54.3333 10.1193 53.3073 9 52.0417 9C50.776 9 49.75 10.1193 49.75 11.5Z" fill="white"/>
<path d="M62.5833 14.5C62.5833 15.8807 63.6093 17 64.875 17C66.1407 17 67.1667 15.8807 67.1667 14.5C67.1667 13.1193 66.1407 12 64.875 12C63.6093 12 62.5833 13.1193 62.5833 14.5Z" fill="white"/>
<path d="M58 12.5C58 13.8807 59.026 15 60.2917 15C61.5573 15 62.5833 13.8807 62.5833 12.5C62.5833 11.1193 61.5573 10 60.2917 10C59.026 10 58 11.1193 58 12.5Z" fill="white"/>
<path d="M60.75 13.5C60.75 14.8807 61.776 16 63.0417 16C64.3073 16 65.3333 14.8807 65.3333 13.5C65.3333 12.1193 64.3073 11 63.0417 11C61.776 11 60.75 12.1193 60.75 13.5Z" fill="white"/>
<path d="M64.4167 12.5C64.4167 13.8807 65.4427 15 66.7083 15C67.974 15 69 13.8807 69 12.5C69 11.1193 67.974 10 66.7083 10C65.4427 10 64.4167 11.1193 64.4167 12.5Z" fill="white"/>
<path d="M47 16.2487C47 18.4448 49.9551 17.9529 51.5128 17.9529C53.0705 17.9529 54.3333 16.1726 54.3333 13.9765C54.3333 11.7803 53.0705 10 51.5128 10C49.9551 10 47 14.0526 47 16.2487Z" fill="#3C3C3C"/>
<rect width="0.916667" height="5" transform="matrix(-1 0 0 1 65.3333 17)" fill="#3B3B3B"/>
<rect width="0.916667" height="5" transform="matrix(-1 0 0 1 58 17)" fill="#3B3B3B"/>
<rect x="13.8333" y="34.1635" width="1.02403" height="5" transform="rotate(-8.67064 13.8333 34.1635)" fill="#3B3B3B"/>
<rect x="22.3689" y="33.9744" width="1.02403" height="5" transform="rotate(-0.623129 22.3689 33.9744)" fill="#3B3B3B"/>
<path d="M13.0712 26.5751C13.0862 27.9557 11.9523 29.0874 10.5387 29.1028C9.12498 29.1182 7.96679 28.0114 7.95177 26.6308C7.93676 25.2501 9.0706 24.1185 10.4843 24.1031C11.898 24.0877 13.0562 25.1945 13.0712 26.5751Z" fill="white"/>
<path d="M15.0972 24.5529C15.1122 25.9336 13.9783 27.0653 12.5647 27.0806C11.151 27.096 9.99279 25.9893 9.97778 24.6086C9.96276 23.228 11.0966 22.0963 12.5103 22.0809C13.924 22.0656 15.0822 23.1723 15.0972 24.5529Z" fill="white"/>
<path d="M16.1646 28.5416C16.1796 29.9222 15.0457 31.0539 13.632 31.0693C12.2184 31.0846 11.0602 29.9779 11.0452 28.5973C11.0301 27.2166 12.164 26.0849 13.5777 26.0696C14.9913 26.0542 16.1495 27.1609 16.1646 28.5416Z" fill="white"/>
<path d="M19.1927 24.5084C19.2077 25.889 18.0739 27.0207 16.6602 27.0361C15.2465 27.0515 14.0883 25.9447 14.0733 24.5641C14.0583 23.1834 15.1921 22.0518 16.6058 22.0364C18.0195 22.021 19.1777 23.1278 19.1927 24.5084Z" fill="white"/>
<path d="M17.1776 27.5305C17.1926 28.9111 16.0587 30.0428 14.645 30.0582C13.2314 30.0736 12.0732 28.9668 12.0582 27.5862C12.0431 26.2055 13.177 25.0739 14.5907 25.0585C16.0044 25.0431 17.1625 26.1499 17.1776 27.5305Z" fill="white"/>
<path d="M22.297 27.4748C22.312 28.8554 21.1781 29.9871 19.7644 30.0025C18.3508 30.0179 17.1926 28.9111 17.1776 27.5305C17.1625 26.1499 18.2964 25.0182 19.7101 25.0028C21.1237 24.9874 22.2819 26.0942 22.297 27.4748Z" fill="white"/>
<path d="M23.2991 25.4638C23.3141 26.8444 22.1803 27.9761 20.7666 27.9915C19.3529 28.0069 18.1947 26.9001 18.1797 25.5195C18.1647 24.1388 19.2985 23.0072 20.7122 22.9918C22.1259 22.9764 23.2841 24.0832 23.2991 25.4638Z" fill="white"/>
<path d="M25.3795 28.4413C25.3945 29.822 24.2606 30.9537 22.847 30.969C21.4333 30.9844 20.2751 29.8777 20.2601 28.497C20.2451 27.1164 21.3789 25.9847 22.7926 25.9693C24.2063 25.954 25.3644 27.0607 25.3795 28.4413Z" fill="white"/>
<path d="M22.3405 31.4746C22.3555 32.8552 21.2216 33.9869 19.8079 34.0023C18.3943 34.0176 17.2361 32.9109 17.2211 31.5303C17.206 30.1496 18.3399 29.0179 19.7536 29.0026C21.1672 28.9872 22.3254 30.0939 22.3405 31.4746Z" fill="white"/>
<path d="M20.3036 32.4968C20.3186 33.8774 19.1847 35.0091 17.7711 35.0245C16.3574 35.0399 15.1992 33.9331 15.1842 32.5525C15.1692 31.1718 16.303 30.0402 17.7167 30.0248C19.1304 30.0094 20.2886 31.1162 20.3036 32.4968Z" fill="white"/>
<path d="M24.41 33.4522C24.425 34.8328 23.2911 35.9645 21.8775 35.9799C20.4638 35.9953 19.3056 34.8885 19.2906 33.5079C19.2756 32.1272 20.4094 30.9956 21.8231 30.9802C23.2368 30.9648 24.3949 32.0716 24.41 33.4522Z" fill="white"/>
<path d="M26.436 31.43C26.451 32.8107 25.3171 33.9424 23.9035 33.9577C22.4898 33.9731 21.3316 32.8663 21.3166 31.4857C21.3016 30.1051 22.4354 28.9734 23.8491 28.958C25.2628 28.9426 26.421 30.0494 26.436 31.43Z" fill="white"/>
<path d="M27.4163 27.4191C27.4314 28.7998 26.2975 29.9315 24.8838 29.9468C23.4702 29.9622 22.312 28.8554 22.297 27.4748C22.2819 26.0942 23.4158 24.9625 24.8295 24.9471C26.2431 24.9317 27.4013 26.0385 27.4163 27.4191Z" fill="white"/>
<path d="M27.4055 26.4192C27.4205 27.7998 26.2866 28.9315 24.873 28.9469C23.4593 28.9623 22.3011 27.8555 22.2861 26.4749C22.2711 25.0942 23.4049 23.9626 24.8186 23.9472C26.2323 23.9318 27.3905 25.0386 27.4055 26.4192Z" fill="white"/>
<path d="M29.4859 29.3967C29.5009 30.7774 28.367 31.9091 26.9533 31.9244C25.5397 31.9398 24.3815 30.8331 24.3665 29.4524C24.3514 28.0718 25.4853 26.9401 26.899 26.9247C28.3127 26.9094 29.4708 28.0161 29.4859 29.3967Z" fill="white"/>
<path d="M15.1842 32.5525C15.1992 33.9331 14.0653 35.0648 12.6517 35.0802C11.238 35.0955 10.0798 33.9888 10.0648 32.6082C10.0498 31.2275 11.1836 30.0958 12.5973 30.0805C14.011 30.0651 15.1692 31.1718 15.1842 32.5525Z" fill="white"/>
<path d="M20.2818 30.4969C20.2968 31.8775 19.163 33.0092 17.7493 33.0246C16.3356 33.04 15.1774 31.9332 15.1624 30.5526C15.1474 29.172 16.2813 28.0403 17.6949 28.0249C19.1086 28.0095 20.2668 29.1163 20.2818 30.4969Z" fill="white"/>
<path d="M17.2211 31.5303C17.2361 32.9109 16.1022 34.0426 14.6886 34.058C13.2749 34.0733 12.1167 32.9666 12.1017 31.5859C12.0866 30.2053 13.2205 29.0736 14.6342 29.0582C16.0479 29.0429 17.206 30.1496 17.2211 31.5303Z" fill="white"/>
<path d="M13.1147 30.5749C13.1297 31.9555 11.9958 33.0872 10.5822 33.1026C9.16848 33.1179 8.01029 32.0112 7.99527 30.6305C7.98026 29.2499 9.1141 28.1182 10.5278 28.1028C11.9415 28.0875 13.0997 29.1942 13.1147 30.5749Z" fill="white"/>
<path d="M31.1932 38.0494C30.2963 40.0541 27.4838 38.2569 25.8954 37.5463C24.3069 36.8356 23.7463 34.6344 24.6431 32.6298C25.54 30.6251 27.5547 29.5761 29.1432 30.2867C30.7316 30.9974 32.09 36.0448 31.1932 38.0494Z" fill="#3C3C3C"/>
<rect x="11.6177" y="34.0289" width="1.02403" height="5" transform="rotate(10.1919 11.6177 34.0289)" fill="#3B3B3B"/>
<rect x="20.6533" y="34.9483" width="1.02403" height="5" transform="rotate(6.68093 20.6533 34.9483)" fill="#3B3B3B"/>
</svg>
