<svg width="22" height="18" viewBox="0 0 22 18" fill="none" xmlns="http://www.w3.org/2000/svg">
<rect width="0.916667" height="5" transform="matrix(-1 0 0 1 16.5 12)" fill="#3B3B3B"/>
<rect width="0.916667" height="5" transform="matrix(-1 0 0 1 9.16669 12)" fill="#3B3B3B"/>
<path d="M17.4167 4.5C17.4167 5.88071 18.4427 7 19.7083 7C20.974 7 22 5.88071 22 4.5C22 3.11929 20.974 2 19.7083 2C18.4427 2 17.4167 3.11929 17.4167 4.5Z" fill="white"/>
<path d="M15.5833 2.5C15.5833 3.88071 16.6093 5 17.875 5C19.1407 5 20.1667 3.88071 20.1667 2.5C20.1667 1.11929 19.1407 0 17.875 0C16.6093 0 15.5833 1.11929 15.5833 2.5Z" fill="white"/>
<path d="M14.6667 6.5C14.6667 7.88071 15.6927 9 16.9583 9C18.224 9 19.25 7.88071 19.25 6.5C19.25 5.11929 18.224 4 16.9583 4C15.6927 4 14.6667 5.11929 14.6667 6.5Z" fill="white"/>
<path d="M11.9167 2.5C11.9167 3.88071 12.9427 5 14.2083 5C15.474 5 16.5 3.88071 16.5 2.5C16.5 1.11929 15.474 0 14.2083 0C12.9427 0 11.9167 1.11929 11.9167 2.5Z" fill="white"/>
<path d="M13.75 5.5C13.75 6.88071 14.776 8 16.0417 8C17.3073 8 18.3333 6.88071 18.3333 5.5C18.3333 4.11929 17.3073 3 16.0417 3C14.776 3 13.75 4.11929 13.75 5.5Z" fill="white"/>
<path d="M9.16667 5.5C9.16667 6.88071 10.1927 8 11.4583 8C12.724 8 13.75 6.88071 13.75 5.5C13.75 4.11929 12.724 3 11.4583 3C10.1927 3 9.16667 4.11929 9.16667 5.5Z" fill="white"/>
<path d="M8.25 3.5C8.25 4.88071 9.27601 6 10.5417 6C11.8073 6 12.8333 4.88071 12.8333 3.5C12.8333 2.11929 11.8073 1 10.5417 1C9.27601 1 8.25 2.11929 8.25 3.5Z" fill="white"/>
<path d="M6.41667 6.5C6.41667 7.88071 7.44268 9 8.70833 9C9.97399 9 11 7.88071 11 6.5C11 5.11929 9.97399 4 8.70833 4C7.44268 4 6.41667 5.11929 6.41667 6.5Z" fill="white"/>
<path d="M9.16667 9.5C9.16667 10.8807 10.1927 12 11.4583 12C12.724 12 13.75 10.8807 13.75 9.5C13.75 8.11929 12.724 7 11.4583 7C10.1927 7 9.16667 8.11929 9.16667 9.5Z" fill="white"/>
<path d="M11 10.5C11 11.8807 12.026 13 13.2917 13C14.5573 13 15.5833 11.8807 15.5833 10.5C15.5833 9.11929 14.5573 8 13.2917 8C12.026 8 11 9.11929 11 10.5Z" fill="white"/>
<path d="M7.33333 11.5C7.33333 12.8807 8.35935 14 9.625 14C10.8907 14 11.9167 12.8807 11.9167 11.5C11.9167 10.1193 10.8907 9 9.625 9C8.35935 9 7.33333 10.1193 7.33333 11.5Z" fill="white"/>
<path d="M5.5 9.5C5.5 10.8807 6.52601 12 7.79167 12C9.05732 12 10.0833 10.8807 10.0833 9.5C10.0833 8.11929 9.05732 7 7.79167 7C6.52601 7 5.5 8.11929 5.5 9.5Z" fill="white"/>
<path d="M4.58333 5.5C4.58333 6.88071 5.60935 8 6.875 8C8.14065 8 9.16667 6.88071 9.16667 5.5C9.16667 4.11929 8.14065 3 6.875 3C5.60935 3 4.58333 4.11929 4.58333 5.5Z" fill="white"/>
<path d="M4.58333 4.5C4.58333 5.88071 5.60935 7 6.875 7C8.14065 7 9.16667 5.88071 9.16667 4.5C9.16667 3.11929 8.14065 2 6.875 2C5.60935 2 4.58333 3.11929 4.58333 4.5Z" fill="white"/>
<path d="M2.75 7.5C2.75 8.88071 3.77601 10 5.04167 10C6.30732 10 7.33333 8.88071 7.33333 7.5C7.33333 6.11929 6.30732 5 5.04167 5C3.77601 5 2.75 6.11929 2.75 7.5Z" fill="white"/>
<path d="M15.5833 10.5C15.5833 11.8807 16.6093 13 17.875 13C19.1407 13 20.1667 11.8807 20.1667 10.5C20.1667 9.11929 19.1407 8 17.875 8C16.6093 8 15.5833 9.11929 15.5833 10.5Z" fill="white"/>
<path d="M11 8.5C11 9.88071 12.026 11 13.2917 11C14.5573 11 15.5833 9.88071 15.5833 8.5C15.5833 7.11929 14.5573 6 13.2917 6C12.026 6 11 7.11929 11 8.5Z" fill="white"/>
<path d="M13.75 9.5C13.75 10.8807 14.776 12 16.0417 12C17.3073 12 18.3333 10.8807 18.3333 9.5C18.3333 8.11929 17.3073 7 16.0417 7C14.776 7 13.75 8.11929 13.75 9.5Z" fill="white"/>
<path d="M17.4167 8.5C17.4167 9.88071 18.4427 11 19.7083 11C20.974 11 22 9.88071 22 8.5C22 7.11929 20.974 6 19.7083 6C18.4427 6 17.4167 7.11929 17.4167 8.5Z" fill="white"/>
<path d="M-2.0504e-05 12.2487C-2.0504e-05 14.4448 2.95507 13.9529 4.5128 13.9529C6.07053 13.9529 7.33331 12.1726 7.33331 9.97645C7.33331 7.78032 6.07053 6 4.5128 6C2.95507 6 -2.0504e-05 10.0526 -2.0504e-05 12.2487Z" fill="#3C3C3C"/>
<rect width="0.916667" height="5" transform="matrix(-1 0 0 1 18.3333 13)" fill="#3B3B3B"/>
<rect width="0.916667" height="5" transform="matrix(-1 0 0 1 11 13)" fill="#3B3B3B"/>
</svg>
