<svg width="27" height="20" viewBox="0 0 27 20" fill="none" xmlns="http://www.w3.org/2000/svg">
<rect x="6.83331" y="13.1635" width="1.02403" height="5" transform="rotate(-8.67064 6.83331 13.1635)" fill="#3B3B3B"/>
<rect x="15.3689" y="12.9744" width="1.02403" height="5" transform="rotate(-0.623129 15.3689 12.9744)" fill="#3B3B3B"/>
<path d="M6.07117 5.5751C6.08618 6.95573 4.95234 8.08741 3.53866 8.10279C2.12498 8.11816 0.966787 7.01141 0.951771 5.63078C0.936756 4.25015 2.0706 3.11846 3.48428 3.10308C4.89796 3.08771 6.05615 4.19447 6.07117 5.5751Z" fill="white"/>
<path d="M8.09717 3.55294C8.11219 4.93357 6.97835 6.06526 5.56466 6.08064C4.15098 6.09601 2.99279 4.98925 2.97778 3.60862C2.96276 2.22799 4.09661 1.09631 5.51029 1.08093C6.92397 1.06556 8.08216 2.17231 8.09717 3.55294Z" fill="white"/>
<path d="M9.16455 7.54157C9.17957 8.9222 8.04573 10.0539 6.63205 10.0693C5.21836 10.0846 4.06017 8.97788 4.04516 7.59725C4.03014 6.21662 5.16399 5.08493 6.57767 5.06956C7.99135 5.05418 9.14954 6.16094 9.16455 7.54157Z" fill="white"/>
<path d="M12.1927 3.5084C12.2077 4.88903 11.0739 6.02072 9.66018 6.03609C8.2465 6.05147 7.08831 4.94471 7.07329 3.56408C7.05828 2.18345 8.19212 1.05176 9.6058 1.03639C11.0195 1.02101 12.1777 2.12777 12.1927 3.5084Z" fill="white"/>
<path d="M10.1776 6.5305C10.1926 7.91113 9.05873 9.04281 7.64505 9.05819C6.23137 9.07356 5.07318 7.9668 5.05816 6.58617C5.04315 5.20554 6.17699 4.07386 7.59067 4.05848C9.00435 4.04311 10.1625 5.14986 10.1776 6.5305Z" fill="white"/>
<path d="M15.297 6.47482C15.312 7.85545 14.1781 8.98713 12.7644 9.00251C11.3508 9.01788 10.1926 7.91113 10.1776 6.5305C10.1625 5.14986 11.2964 4.01818 12.7101 4.0028C14.1237 3.98743 15.2819 5.09419 15.297 6.47482Z" fill="white"/>
<path d="M16.2991 4.4638C16.3141 5.84443 15.1803 6.97612 13.7666 6.99149C12.3529 7.00687 11.1947 5.90011 11.1797 4.51948C11.1647 3.13885 12.2985 2.00716 13.7122 1.99179C15.1259 1.97641 16.2841 3.08317 16.2991 4.4638Z" fill="white"/>
<path d="M18.3795 7.44135C18.3945 8.82198 17.2606 9.95367 15.847 9.96904C14.4333 9.98442 13.2751 8.87766 13.2601 7.49703C13.2451 6.1164 14.3789 4.98471 15.7926 4.96934C17.2063 4.95396 18.3644 6.06072 18.3795 7.44135Z" fill="white"/>
<path d="M15.3405 10.4746C15.3555 11.8552 14.2216 12.9869 12.8079 13.0023C11.3943 13.0176 10.2361 11.9109 10.2211 10.5303C10.206 9.14963 11.3399 8.01794 12.7536 8.00257C14.1672 7.98719 15.3254 9.09395 15.3405 10.4746Z" fill="white"/>
<path d="M13.3036 11.4968C13.3186 12.8774 12.1847 14.0091 10.7711 14.0245C9.35738 14.0399 8.19919 12.9331 8.18418 11.5525C8.16916 10.1718 9.303 9.04015 10.7167 9.02478C12.1304 9.0094 13.2886 10.1162 13.3036 11.4968Z" fill="white"/>
<path d="M17.41 12.4522C17.425 13.8328 16.2911 14.9645 14.8775 14.9799C13.4638 14.9953 12.3056 13.8885 12.2906 12.5079C12.2756 11.1272 13.4094 9.99555 14.8231 9.98018C16.2368 9.9648 17.3949 11.0716 17.41 12.4522Z" fill="white"/>
<path d="M19.436 10.43C19.451 11.8107 18.3171 12.9424 16.9035 12.9577C15.4898 12.9731 14.3316 11.8663 14.3166 10.4857C14.3016 9.10509 15.4354 7.9734 16.8491 7.95802C18.2628 7.94265 19.421 9.04941 19.436 10.43Z" fill="white"/>
<path d="M20.4163 6.41914C20.4314 7.79977 19.2975 8.93145 17.8838 8.94683C16.4702 8.9622 15.312 7.85545 15.297 6.47482C15.2819 5.09419 16.4158 3.9625 17.8295 3.94712C19.2431 3.93175 20.4013 5.03851 20.4163 6.41914Z" fill="white"/>
<path d="M20.4055 5.4192C20.4205 6.79983 19.2866 7.93151 17.873 7.94689C16.4593 7.96226 15.3011 6.85551 15.2861 5.47488C15.2711 4.09424 16.4049 2.96256 17.8186 2.94718C19.2323 2.93181 20.3905 4.03857 20.4055 5.4192Z" fill="white"/>
<path d="M22.4859 8.39675C22.5009 9.77738 21.367 10.9091 19.9533 10.9244C18.5397 10.9398 17.3815 9.83306 17.3665 8.45243C17.3514 7.0718 18.4853 5.94011 19.899 5.92473C21.3127 5.90936 22.4708 7.01612 22.4859 8.39675Z" fill="white"/>
<path d="M8.18418 11.5525C8.19919 12.9331 7.06535 14.0648 5.65167 14.0802C4.23799 14.0955 3.0798 12.9888 3.06478 11.6082C3.04977 10.2275 4.18361 9.09583 5.59729 9.08046C7.01097 9.06508 8.16916 10.1718 8.18418 11.5525Z" fill="white"/>
<path d="M13.2818 9.49691C13.2968 10.8775 12.163 12.0092 10.7493 12.0246C9.33563 12.04 8.17744 10.9332 8.16243 9.55259C8.14741 8.17196 9.28125 7.04027 10.6949 7.0249C12.1086 7.00952 13.2668 8.11628 13.2818 9.49691Z" fill="white"/>
<path d="M10.2211 10.5303C10.2361 11.9109 9.10223 13.0426 7.68855 13.058C6.27487 13.0733 5.11668 11.9666 5.10166 10.5859C5.08665 9.20531 6.22049 8.07362 7.63417 8.05825C9.04786 8.04287 10.206 9.14963 10.2211 10.5303Z" fill="white"/>
<path d="M6.11467 9.57486C6.12968 10.9555 4.99584 12.0872 3.58216 12.1026C2.16848 12.1179 1.01029 11.0112 0.995273 9.63054C0.980257 8.24991 2.1141 7.11822 3.52778 7.10285C4.94146 7.08747 6.09965 8.19423 6.11467 9.57486Z" fill="white"/>
<path d="M24.1932 17.0494C23.2963 19.0541 20.4838 17.2569 18.8954 16.5463C17.3069 15.8356 16.7463 13.6344 17.6431 11.6298C18.54 9.6251 20.5547 8.5761 22.1432 9.28674C23.7316 9.99739 25.09 15.0448 24.1932 17.0494Z" fill="#3C3C3C"/>
<rect x="4.61768" y="13.0289" width="1.02403" height="5" transform="rotate(10.1919 4.61768 13.0289)" fill="#3B3B3B"/>
<rect x="13.6533" y="13.9483" width="1.02403" height="5" transform="rotate(6.68093 13.6533 13.9483)" fill="#3B3B3B"/>
</svg>
