<svg width="78" height="294" viewBox="0 0 78 294" fill="none" xmlns="http://www.w3.org/2000/svg">
<g filter="url(#filter0_d)">
<path d="M24.6049 10.3243C24.6049 4.8015 29.082 0.324341 34.6049 0.324341H44.189C49.7119 0.324341 54.1891 4.80149 54.1891 10.3243V37.076H24.6049V10.3243Z" fill="#978062"/>
<rect width="5.70139" height="257.086" transform="matrix(0.780777 0.624809 -0.0893601 0.995999 27.3306 26.176)" fill="#978062"/>
<rect width="6.17564" height="41.8164" transform="matrix(-0.101105 0.994876 -0.675557 -0.737307 53.5461 82.5203)" fill="#978062"/>
<rect width="6.17564" height="41.8166" transform="matrix(-0.101106 -0.994875 0.675553 -0.737311 24.4569 89.383)" fill="#978062"/>
<rect width="6.15867" height="49.341" transform="matrix(-0.13727 0.990534 -0.780731 -0.624867 59.0764 137.575)" fill="#978062"/>
<rect width="6.15867" height="49.3411" transform="matrix(-0.137271 -0.990533 0.780727 -0.624871 19.4093 144.438)" fill="#978062"/>
<rect width="6.13908" height="56.9973" transform="matrix(-0.169948 0.985453 -0.841067 -0.54093 63.6851 192.629)" fill="#978062"/>
<rect width="6.13908" height="56.9974" transform="matrix(-0.16995 -0.985452 0.841064 -0.540935 14.3214 199.492)" fill="#978062"/>
<rect width="6.17066" height="63.7917" transform="matrix(-0.196969 0.98041 -0.875446 -0.483316 69 244.832)" fill="#978062"/>
<rect width="6.17066" height="63.7918" transform="matrix(-0.196971 -0.980409 0.875444 -0.48332 11.4935 251.694)" fill="#978062"/>
<rect width="5.70139" height="254.186" transform="matrix(0.780777 -0.624809 0.0893601 0.995999 46.4587 31.7285)" fill="#978062"/>
</g>
<defs>
<filter id="filter0_d" x="0.3573" y="0.324341" width="77.267" height="293.471" filterUnits="userSpaceOnUse" color-interpolation-filters="sRGB">
<feFlood flood-opacity="0" result="BackgroundImageFix"/>
<feColorMatrix in="SourceAlpha" type="matrix" values="0 0 0 0 0 0 0 0 0 0 0 0 0 0 0 0 0 0 127 0"/>
<feOffset dy="4"/>
<feGaussianBlur stdDeviation="2"/>
<feColorMatrix type="matrix" values="0 0 0 0 0 0 0 0 0 0 0 0 0 0 0 0 0 0 0.25 0"/>
<feBlend mode="normal" in2="BackgroundImageFix" result="effect1_dropShadow"/>
<feBlend mode="normal" in="SourceGraphic" in2="effect1_dropShadow" result="shape"/>
</filter>
</defs>
</svg>
