<svg width="261" height="261" viewBox="0 0 261 261" fill="none" xmlns="http://www.w3.org/2000/svg">
<g filter="url(#filter0_d)">
<path d="M169.75 39.3962L137.948 112.563L113.146 101.783C129.658 72.5548 136.387 56.5724 144.948 28.6163L169.75 39.3962Z" fill="#FDFFAE" fill-opacity="0.9"/>
<line x1="164.988" y1="37.3267" x2="133.186" y2="110.493" stroke="#E8E8E8"/>
<line x1="159.766" y1="35.0572" x2="127.964" y2="108.224" stroke="#E8E8E8"/>
<line x1="154.546" y1="32.7878" x2="122.744" y2="105.954" stroke="#E8E8E8"/>
<line x1="149.324" y1="30.5184" x2="117.522" y2="103.685" stroke="#E8E8E8"/>
<line x1="167.178" y1="45.3155" x2="142.377" y2="34.5356" stroke="#E8E8E8"/>
<line x1="165.279" y1="49.6837" x2="140.478" y2="38.9038" stroke="#E8E8E8"/>
<line x1="163.38" y1="54.0518" x2="138.579" y2="43.2719" stroke="#E8E8E8"/>
<line x1="161.482" y1="58.4199" x2="136.681" y2="47.64" stroke="#E8E8E8"/>
<line x1="159.583" y1="62.7881" x2="134.782" y2="52.0082" stroke="#E8E8E8"/>
<line x1="157.685" y1="67.1562" x2="132.883" y2="56.3763" stroke="#E8E8E8"/>
<line x1="155.786" y1="71.5244" x2="130.985" y2="60.7444" stroke="#E8E8E8"/>
<line x1="153.887" y1="75.8925" x2="129.086" y2="65.1126" stroke="#E8E8E8"/>
<line x1="151.989" y1="80.2607" x2="127.188" y2="69.4808" stroke="#E8E8E8"/>
<line x1="150.09" y1="84.6288" x2="125.289" y2="73.8488" stroke="#E8E8E8"/>
<line x1="148.191" y1="88.997" x2="123.39" y2="78.2171" stroke="#E8E8E8"/>
<line x1="146.293" y1="93.3651" x2="121.492" y2="82.5852" stroke="#E8E8E8"/>
<line x1="144.394" y1="97.7332" x2="119.593" y2="86.9533" stroke="#E8E8E8"/>
<line x1="142.496" y1="102.101" x2="117.695" y2="91.3215" stroke="#E8E8E8"/>
<line x1="140.597" y1="106.469" x2="115.796" y2="95.6896" stroke="#E8E8E8"/>
<path d="M148.248 159.456C136.957 180.262 131.144 188.365 116.446 232.623L91.6447 221.843L123.447 148.676L148.248 159.456Z" fill="#FDFFAE" fill-opacity="0.9"/>
<line x1="143.485" y1="157.386" x2="111.683" y2="230.553" stroke="#E8E8E8"/>
<line x1="138.264" y1="155.117" x2="106.462" y2="228.283" stroke="#E8E8E8"/>
<line x1="133.043" y1="152.847" x2="101.241" y2="226.014" stroke="#E8E8E8"/>
<line x1="127.822" y1="150.578" x2="96.0196" y2="223.744" stroke="#E8E8E8"/>
<line x1="145.675" y1="165.375" x2="120.874" y2="154.595" stroke="#E8E8E8"/>
<line x1="143.777" y1="169.743" x2="118.975" y2="158.963" stroke="#E8E8E8"/>
<line x1="141.878" y1="174.111" x2="117.077" y2="163.332" stroke="#E8E8E8"/>
<line x1="139.979" y1="178.48" x2="115.178" y2="167.7" stroke="#E8E8E8"/>
<line x1="138.081" y1="182.848" x2="113.28" y2="172.068" stroke="#E8E8E8"/>
<line x1="136.182" y1="187.216" x2="111.381" y2="176.436" stroke="#E8E8E8"/>
<line x1="134.283" y1="191.584" x2="109.482" y2="180.804" stroke="#E8E8E8"/>
<line x1="132.385" y1="195.952" x2="107.584" y2="185.172" stroke="#E8E8E8"/>
<line x1="130.486" y1="200.32" x2="105.685" y2="189.54" stroke="#E8E8E8"/>
<line x1="128.588" y1="204.688" x2="103.786" y2="193.909" stroke="#E8E8E8"/>
<line x1="126.689" y1="209.057" x2="101.888" y2="198.277" stroke="#E8E8E8"/>
<line x1="124.79" y1="213.425" x2="99.9892" y2="202.645" stroke="#E8E8E8"/>
<line x1="122.892" y1="217.793" x2="98.0905" y2="207.013" stroke="#E8E8E8"/>
<line x1="120.993" y1="222.161" x2="96.192" y2="211.381" stroke="#E8E8E8"/>
<line x1="119.095" y1="226.529" x2="94.2933" y2="215.749" stroke="#E8E8E8"/>
<path d="M39.7146 90.6393L112.881 122.441L102.101 147.243C75.5158 131.454 59.4168 124.62 28.9347 115.441L39.7146 90.6393Z" fill="#FDFFAE" fill-opacity="0.9"/>
<line x1="37.6446" y1="95.4015" x2="110.811" y2="127.204" stroke="#E8E8E8"/>
<line x1="35.3746" y1="100.624" x2="108.541" y2="132.426" stroke="#E8E8E8"/>
<line x1="33.1054" y1="105.845" x2="106.272" y2="137.647" stroke="#E8E8E8"/>
<line x1="30.8362" y1="111.066" x2="104.003" y2="142.868" stroke="#E8E8E8"/>
<line x1="45.6332" y1="93.212" x2="34.8533" y2="118.013" stroke="#E8E8E8"/>
<line x1="50.0015" y1="95.1106" x2="39.2216" y2="119.912" stroke="#E8E8E8"/>
<line x1="54.3697" y1="97.0092" x2="43.5898" y2="121.81" stroke="#E8E8E8"/>
<line x1="58.7379" y1="98.9078" x2="47.958" y2="123.709" stroke="#E8E8E8"/>
<line x1="63.1058" y1="100.806" x2="52.3259" y2="125.608" stroke="#E8E8E8"/>
<line x1="67.4741" y1="102.705" x2="56.6942" y2="127.506" stroke="#E8E8E8"/>
<line x1="71.8422" y1="104.604" x2="61.0623" y2="129.405" stroke="#E8E8E8"/>
<line x1="76.2104" y1="106.502" x2="65.4305" y2="131.303" stroke="#E8E8E8"/>
<line x1="80.5784" y1="108.401" x2="69.7985" y2="133.202" stroke="#E8E8E8"/>
<line x1="84.9466" y1="110.3" x2="74.1667" y2="135.101" stroke="#E8E8E8"/>
<line x1="89.3148" y1="112.198" x2="78.5349" y2="136.999" stroke="#E8E8E8"/>
<line x1="93.6829" y1="114.097" x2="82.903" y2="138.898" stroke="#E8E8E8"/>
<line x1="98.0511" y1="115.995" x2="87.2712" y2="140.797" stroke="#E8E8E8"/>
<line x1="102.419" y1="117.894" x2="91.6394" y2="142.695" stroke="#E8E8E8"/>
<line x1="106.787" y1="119.793" x2="96.0075" y2="144.594" stroke="#E8E8E8"/>
<path d="M158.324 113.603C183.318 128.093 198.762 135.39 231.491 145.405L220.711 170.206L147.544 138.404L158.324 113.603Z" fill="#FDFFAE" fill-opacity="0.9"/>
<line x1="156.254" y1="118.365" x2="229.421" y2="150.167" stroke="#E8E8E8"/>
<line x1="153.984" y1="123.588" x2="227.151" y2="155.39" stroke="#E8E8E8"/>
<line x1="151.715" y1="128.808" x2="224.882" y2="160.61" stroke="#E8E8E8"/>
<line x1="149.446" y1="134.029" x2="222.612" y2="165.831" stroke="#E8E8E8"/>
<line x1="164.243" y1="116.175" x2="153.463" y2="140.977" stroke="#E8E8E8"/>
<line x1="168.611" y1="118.074" x2="157.831" y2="142.875" stroke="#E8E8E8"/>
<line x1="172.979" y1="119.973" x2="162.199" y2="144.774" stroke="#E8E8E8"/>
<line x1="177.347" y1="121.871" x2="166.568" y2="146.672" stroke="#E8E8E8"/>
<line x1="181.716" y1="123.77" x2="170.936" y2="148.571" stroke="#E8E8E8"/>
<line x1="186.084" y1="125.668" x2="175.304" y2="150.47" stroke="#E8E8E8"/>
<line x1="190.452" y1="127.567" x2="179.672" y2="152.368" stroke="#E8E8E8"/>
<line x1="194.82" y1="129.466" x2="184.04" y2="154.267" stroke="#E8E8E8"/>
<line x1="199.188" y1="131.364" x2="188.408" y2="156.166" stroke="#E8E8E8"/>
<line x1="203.556" y1="133.263" x2="192.776" y2="158.064" stroke="#E8E8E8"/>
<line x1="207.924" y1="135.162" x2="197.144" y2="159.963" stroke="#E8E8E8"/>
<line x1="212.292" y1="137.06" x2="201.513" y2="161.861" stroke="#E8E8E8"/>
<line x1="216.661" y1="138.959" x2="205.881" y2="163.76" stroke="#E8E8E8"/>
<line x1="221.029" y1="140.858" x2="210.249" y2="165.659" stroke="#E8E8E8"/>
<line x1="225.397" y1="142.756" x2="214.617" y2="167.557" stroke="#E8E8E8"/>
<line x1="170.209" y1="39.5961" x2="91.4158" y2="220.874" stroke="#E8E8E8"/>
<line x1="220.793" y1="169.891" x2="39.5153" y2="91.0979" stroke="#E8E8E8"/>
<circle cx="130.781" cy="131.119" r="5.76513" transform="rotate(113.492 130.781 131.119)" fill="#E8E8E8"/>
</g>
<defs>
<filter id="filter0_d" x="24.9347" y="28.6163" width="210.556" height="212.007" filterUnits="userSpaceOnUse" color-interpolation-filters="sRGB">
<feFlood flood-opacity="0" result="BackgroundImageFix"/>
<feColorMatrix in="SourceAlpha" type="matrix" values="0 0 0 0 0 0 0 0 0 0 0 0 0 0 0 0 0 0 127 0"/>
<feOffset dy="4"/>
<feGaussianBlur stdDeviation="2"/>
<feColorMatrix type="matrix" values="0 0 0 0 0 0 0 0 0 0 0 0 0 0 0 0 0 0 0.25 0"/>
<feBlend mode="normal" in2="BackgroundImageFix" result="effect1_dropShadow"/>
<feBlend mode="normal" in="SourceGraphic" in2="effect1_dropShadow" result="shape"/>
</filter>
</defs>
</svg>
